SplineFontDB: 3.0
FontName: msam10
FullName: msam10
FamilyName: msam10
Weight: Book
Copyright: Copyright (C) 1994, 1995, Basil K. Malyshev. All Rights Reserved.012BaKoMa Fonts Collection, Level-C.
Version: 1.2/19-Jan-95
ItalicAngle: 0
UnderlinePosition: -123
UnderlineWidth: 20
Ascent: 1638
Descent: 410
sfntRevision: 0x00013333
LayerCount: 2
Layer: 0 1 "Back"  1
Layer: 1 1 "Fore"  0
XUID: [1021 99 1815243471 9193245]
FSType: 0
OS2Version: 1
OS2_WeightWidthSlopeOnly: 0
OS2_UseTypoMetrics: 1
CreationTime: -2082844800
ModificationTime: 1421634340
PfmFamily: 17
TTFWeight: 400
TTFWidth: 5
LineGap: 0
VLineGap: 0
Panose: 2 11 5 0 0 0 0 0 0 0
OS2TypoAscent: 416
OS2TypoAOffset: 1
OS2TypoDescent: -540
OS2TypoDOffset: 1
OS2TypoLinegap: 0
OS2WinAscent: 0
OS2WinAOffset: 1
OS2WinDescent: 0
OS2WinDOffset: 1
HheadAscent: 0
HheadAOffset: 1
HheadDescent: 0
HheadDOffset: 1
OS2SubXSize: 410
OS2SubYSize: 369
OS2SubXOff: 0
OS2SubYOff: 0
OS2SupXSize: 410
OS2SupYSize: 369
OS2SupXOff: 0
OS2SupYOff: 0
OS2StrikeYSize: 102
OS2StrikeYPos: 530
OS2Vendor: 'PfEd'
OS2CodePages: 00000001.00000000
OS2UnicodeRanges: 00000000.00000000.00000000.00000000
MarkAttachClasses: 1
DEI: 91125
TtTable: prep
NPUSHB
 32
 4
 22
 2
 21
 5
 18
 5
 14
 4
 21
 61
 10
 13
 6
 63
 6
 61
 11
 51
 6
 39
 3
 38
 10
 33
 6
 61
 61
 26
 13
 48
 0
SCANTYPE
PUSHW_1
 828
SCANCTRL
SCVTCI
CALL
CALL
EndTTInstrs
TtTable: fpgm
NPUSHB
 22
 21
 20
 19
 18
 17
 16
 15
 14
 13
 12
 11
 10
 9
 8
 7
 6
 5
 4
 3
 2
 1
 0
FDEF
PUSHB_3
 0
 128
 0
RS
DUP
ROLL
DIV
ROLL
SWAP
WS
FLOOR
ODD
ENDF
FDEF
PUSHB_3
 42
 0
 0
RS
EQ
JROT
PUSHB_1
 0
CALL
IF
SLOOP
IP
EIF
PUSHB_1
 0
CALL
IF
SLOOP
ALIGNRP
EIF
PUSHB_1
 0
CALL
IF
PUSHB_1
 10
LOOPCALL
EIF
PUSHB_1
 1
RS
SRP0
PUSHB_1
 0
CALL
IF
SLOOP
ALIGNRP
EIF
PUSHB_1
 0
CALL
IF
PUSHB_1
 10
LOOPCALL
EIF
ENDF
FDEF
CALL
ENDF
FDEF
CALL
PUSHB_1
 2
LOOPCALL
ENDF
FDEF
PUSHB_1
 2
LOOPCALL
ENDF
FDEF
PUSHB_1
 1
DIV
PUSHB_1
 0
SWAP
WS
PUSHB_2
 1
 3
CINDEX
WS
DUP
GC[cur]
DUP
ROUND[Grey]
SUB
ABS
PUSHB_1
 3
CINDEX
GC[cur]
DUP

StartChar: .notdef
Encoding: 65536 -1 0
Width: 1536
Flags: W
LayerCount: 2
Fore
SplineSet
256 0 m 1,0,-1
 256 1280 l 1,1,-1
 1280 1280 l 1,2,-1
 1280 0 l 1,3,-1
 256 0 l 1,0,-1
1247 33 m 1,4,-1
 1247 1247 l 1,5,-1
 289 1247 l 1,6,-1
 289 33 l 1,7,-1
 1247 33 l 1,4,-1
EndSplineSet
EndChar

StartChar: exclam
Encoding: 33 33 4
Width: 2843
GlyphClass: 2
Flags: W
LayerCount: 2
Fore
SplineSet
420 170 m 1,0,1
 381 278 381 278 300 368.5 c 128,-1,2
 219 459 219 459 115 512 c 1,3,4
 219 565 219 565 299.5 655 c 128,-1,5
 380 745 380 745 420 854 c 1,6,-1
 492 854 l 1,7,8
 473 802 473 802 441 745.5 c 128,-1,9
 409 689 409 689 370.5 641.5 c 128,-1,10
 332 594 332 594 287 553 c 1,11,-1
 567 553 l 1,12,-1
 723 711 l 2,13,14
 735 723 735 723 754 723 c 0,15,16
 772 723 772 723 784 711 c 2,17,-1
 1087 401 l 1,18,-1
 1391 711 l 2,19,20
 1403 723 1403 723 1421 723 c 0,21,22
 1440 723 1440 723 1452 711 c 2,23,-1
 1755 401 l 1,24,-1
 2058 711 l 2,25,26
 2070 723 2070 723 2089 723 c 0,27,28
 2111 723 2111 723 2120 711 c 1,29,-1
 2275 553 l 1,30,-1
 2556 553 l 1,31,32
 2511 594 2511 594 2472.5 641.5 c 128,-1,33
 2434 689 2434 689 2402 745.5 c 128,-1,34
 2370 802 2370 802 2351 854 c 1,35,-1
 2423 854 l 1,36,37
 2466 742 2466 742 2544.5 654.5 c 128,-1,38
 2623 567 2623 567 2728 512 c 1,39,40
 2623 457 2623 457 2544 369 c 128,-1,41
 2465 281 2465 281 2423 170 c 1,42,-1
 2351 170 l 1,43,44
 2384 258 2384 258 2436 333.5 c 128,-1,45
 2488 409 2488 409 2556 471 c 1,46,-1
 2257 471 l 2,47,48
 2240 471 2240 471 2224 487 c 2,49,-1
 2089 623 l 1,50,-1
 1786 313 l 2,51,52
 1774 301 1774 301 1755 301 c 0,53,54
 1738 301 1738 301 1724 313 c 1,55,-1
 1421 623 l 1,56,-1
 1118 313 l 2,57,58
 1106 301 1106 301 1087 301 c 0,59,60
 1069 301 1069 301 1057 313 c 2,61,-1
 754 623 l 1,62,-1
 618 487 l 2,63,64
 602 471 602 471 586 471 c 2,65,-1
 287 471 l 1,66,67
 358 406 358 406 410 329.5 c 128,-1,68
 462 253 462 253 492 170 c 1,69,-1
 420 170 l 1,0,1
EndSplineSet
EndChar

StartChar: quotedbl
Encoding: 34 34 5
Width: 2048
GlyphClass: 2
Flags: W
LayerCount: 2
Fore
SplineSet
420 170 m 1,0,1
 381 278 381 278 300 368.5 c 128,-1,2
 219 459 219 459 115 512 c 1,3,4
 219 565 219 565 299.5 655 c 128,-1,5
 380 745 380 745 420 854 c 1,6,-1
 492 854 l 1,7,8
 473 802 473 802 441 745.5 c 128,-1,9
 409 689 409 689 370.5 641.5 c 128,-1,10
 332 594 332 594 287 553 c 1,11,-1
 1274 553 l 1,12,-1
 1274 598 l 2,13,14
 1274 781 1274 781 1291.5 898 c 128,-1,15
 1309 1015 1309 1015 1385.5 1097.5 c 128,-1,16
 1462 1180 1462 1180 1624 1180 c 0,17,18
 1800 1180 1800 1180 1886 1091 c 128,-1,19
 1972 1002 1972 1002 1972 825 c 0,20,21
 1972 698 1972 698 1925.5 625 c 128,-1,22
 1879 552 1879 552 1799.5 518.5 c 128,-1,23
 1720 485 1720 485 1633 478 c 128,-1,24
 1546 471 1546 471 1409 471 c 2,25,-1
 1356 471 l 1,26,-1
 1356 -49 l 2,27,28
 1356 -65 1356 -65 1343 -75.5 c 128,-1,29
 1330 -86 1330 -86 1315 -86 c 0,30,31
 1298 -86 1298 -86 1286 -75.5 c 128,-1,32
 1274 -65 1274 -65 1274 -49 c 2,33,-1
 1274 471 l 1,34,-1
 287 471 l 1,35,36
 358 406 358 406 410 329.5 c 128,-1,37
 462 253 462 253 492 170 c 1,38,-1
 420 170 l 1,0,1
1356 553 m 1,39,40
 1569 553 1569 553 1673 567 c 1,41,42
 1752 581 1752 581 1799 611.5 c 128,-1,43
 1846 642 1846 642 1868 694.5 c 128,-1,44
 1890 747 1890 747 1890 825 c 0,45,46
 1890 969 1890 969 1827.5 1033.5 c 128,-1,47
 1765 1098 1765 1098 1624 1098 c 0,48,49
 1532 1098 1532 1098 1473 1065 c 128,-1,50
 1414 1032 1414 1032 1386 952 c 1,51,52
 1367 881 1367 881 1361.5 799 c 128,-1,53
 1356 717 1356 717 1356 598 c 2,54,-1
 1356 592 l 1,55,-1
 1356 553 l 1,39,40
EndSplineSet
EndChar

StartChar: numbersign
Encoding: 35 35 6
Width: 2048
GlyphClass: 2
Flags: W
LayerCount: 2
Fore
SplineSet
690 -49 m 2,0,-1
 690 471 l 1,1,-1
 637 471 l 2,2,3
 501 471 501 471 414 478 c 128,-1,4
 327 485 327 485 247.5 518.5 c 128,-1,5
 168 552 168 552 121 625 c 128,-1,6
 74 698 74 698 74 825 c 0,7,8
 74 944 74 944 112 1022 c 128,-1,9
 150 1100 150 1100 227.5 1140 c 128,-1,10
 305 1180 305 1180 424 1180 c 0,11,12
 585 1180 585 1180 661.5 1097 c 128,-1,13
 738 1014 738 1014 755 897.5 c 128,-1,14
 772 781 772 781 772 598 c 2,15,-1
 772 553 l 1,16,-1
 1759 553 l 1,17,18
 1714 594 1714 594 1675.5 641.5 c 128,-1,19
 1637 689 1637 689 1605 745.5 c 128,-1,20
 1573 802 1573 802 1554 854 c 1,21,-1
 1626 854 l 1,22,23
 1669 742 1669 742 1747.5 654.5 c 128,-1,24
 1826 567 1826 567 1931 512 c 1,25,26
 1826 457 1826 457 1747 369 c 128,-1,27
 1668 281 1668 281 1626 170 c 1,28,-1
 1554 170 l 1,29,30
 1587 258 1587 258 1639 333.5 c 128,-1,31
 1691 409 1691 409 1759 471 c 1,32,-1
 772 471 l 1,33,-1
 772 -49 l 2,34,35
 772 -65 772 -65 760 -75.5 c 128,-1,36
 748 -86 748 -86 731 -86 c 0,37,38
 716 -86 716 -86 703 -75.5 c 128,-1,39
 690 -65 690 -65 690 -49 c 2,0,-1
156 825 m 0,40,41
 156 699 156 699 224.5 639.5 c 128,-1,42
 293 580 293 580 389.5 566.5 c 128,-1,43
 486 553 486 553 637 553 c 2,44,-1
 690 553 l 1,45,-1
 690 598 l 2,46,47
 690 717 690 717 684.5 799.5 c 128,-1,48
 679 882 679 882 659 952 c 1,49,50
 632 1032 632 1032 573 1065 c 128,-1,51
 514 1098 514 1098 422 1098 c 0,52,53
 281 1098 281 1098 218.5 1033.5 c 128,-1,54
 156 969 156 969 156 825 c 0,40,41
EndSplineSet
EndChar

StartChar: dollar
Encoding: 36 36 7
Width: 1591
GlyphClass: 2
Flags: W
LayerCount: 2
Fore
SplineSet
154 272 m 2,0,1
 137 272 137 272 126 285 c 128,-1,2
 115 298 115 298 115 313 c 0,3,4
 115 330 115 330 126 342 c 128,-1,5
 137 354 137 354 154 354 c 2,6,-1
 1440 354 l 2,7,8
 1455 354 1455 354 1466 342 c 128,-1,9
 1477 330 1477 330 1477 313 c 0,10,11
 1477 298 1477 298 1466 285 c 128,-1,12
 1455 272 1455 272 1440 272 c 2,13,-1
 154 272 l 2,0,1
154 670 m 2,14,15
 137 670 137 670 126 682 c 128,-1,16
 115 694 115 694 115 711 c 0,17,18
 115 726 115 726 126 739 c 128,-1,19
 137 752 137 752 154 752 c 2,20,-1
 1440 752 l 2,21,22
 1455 752 1455 752 1466 739 c 128,-1,23
 1477 726 1477 726 1477 711 c 0,24,25
 1477 694 1477 694 1466 682 c 128,-1,26
 1455 670 1455 670 1440 670 c 2,27,-1
 154 670 l 2,14,15
571 1251 m 256,28,29
 571 1311 571 1311 602 1363 c 128,-1,30
 633 1415 633 1415 685 1446 c 128,-1,31
 737 1477 737 1477 797 1477 c 0,32,33
 887 1477 887 1477 953.5 1410.5 c 128,-1,34
 1020 1344 1020 1344 1020 1251 c 0,35,36
 1020 1191 1020 1191 989.5 1140 c 128,-1,37
 959 1089 959 1089 908 1058.5 c 128,-1,38
 857 1028 857 1028 797 1028 c 256,39,40
 737 1028 737 1028 685 1058.5 c 128,-1,41
 633 1089 633 1089 602 1140 c 128,-1,42
 571 1191 571 1191 571 1251 c 256,28,29
653 1251 m 0,43,44
 653 1175 653 1175 686 1142.5 c 128,-1,45
 719 1110 719 1110 797 1110 c 0,46,47
 873 1110 873 1110 905.5 1142.5 c 128,-1,48
 938 1175 938 1175 938 1251 c 0,49,50
 938 1330 938 1330 905.5 1362.5 c 128,-1,51
 873 1395 873 1395 797 1395 c 0,52,53
 719 1395 719 1395 686 1362.5 c 128,-1,54
 653 1330 653 1330 653 1251 c 0,43,44
EndSplineSet
EndChar

StartChar: percent
Encoding: 37 37 8
Width: 1591
GlyphClass: 2
Flags: W
LayerCount: 2
Fore
SplineSet
143 -463 m 0,0,1
 121 -463 121 -463 115 -412 c 1,2,-1
 115 -399 l 2,3,4
 115 -300 115 -300 156 -204 c 128,-1,5
 197 -108 197 -108 274.5 -47 c 128,-1,6
 352 14 352 14 455 14 c 0,7,8
 550 14 550 14 627 -33 c 128,-1,9
 704 -80 704 -80 802.5 -168.5 c 128,-1,10
 901 -257 901 -257 974 -302.5 c 128,-1,11
 1047 -348 1047 -348 1137 -348 c 0,12,13
 1218 -348 1218 -348 1282.5 -304.5 c 128,-1,14
 1347 -261 1347 -261 1383 -188.5 c 128,-1,15
 1419 -116 1419 -116 1419 -37 c 1,16,17
 1425 14 1425 14 1448 14 c 256,18,19
 1471 14 1471 14 1477 -37 c 1,20,-1
 1477 -49 l 2,21,22
 1477 -148 1477 -148 1435.5 -244.5 c 128,-1,23
 1394 -341 1394 -341 1317 -402 c 128,-1,24
 1240 -463 1240 -463 1137 -463 c 0,25,26
 1044 -463 1044 -463 969 -417.5 c 128,-1,27
 894 -372 894 -372 796 -283.5 c 128,-1,28
 698 -195 698 -195 621.5 -147.5 c 128,-1,29
 545 -100 545 -100 455 -100 c 0,30,31
 375 -100 375 -100 309.5 -144 c 128,-1,32
 244 -188 244 -188 208 -260.5 c 128,-1,33
 172 -333 172 -333 172 -412 c 1,34,35
 166 -463 166 -463 143 -463 c 0,0,1
211 313 m 0,36,37
 192 313 192 313 181 326.5 c 128,-1,38
 170 340 170 340 170 358 c 1,39,40
 187 523 187 523 283 636 c 128,-1,41
 379 749 379 749 521 812 c 128,-1,42
 663 875 663 875 834 905 c 1,43,44
 216 1016 216 1016 170 1456 c 1,45,46
 170 1473 170 1473 181 1486 c 128,-1,47
 192 1499 192 1499 211 1499 c 0,48,49
 228 1499 228 1499 239.5 1488.5 c 128,-1,50
 251 1478 251 1478 252 1462 c 0,51,52
 275 1237 275 1237 463.5 1123 c 128,-1,53
 652 1009 652 1009 887.5 977.5 c 128,-1,54
 1123 946 1123 946 1384 946 c 0,55,56
 1400 946 1400 946 1410.5 934 c 128,-1,57
 1421 922 1421 922 1421 905 c 0,58,59
 1421 890 1421 890 1410.5 877 c 128,-1,60
 1400 864 1400 864 1384 864 c 0,61,62
 1190 864 1190 864 1020 850 c 128,-1,63
 850 836 850 836 679.5 786.5 c 128,-1,64
 509 737 509 737 389.5 630.5 c 128,-1,65
 270 524 270 524 252 352 c 0,66,67
 251 336 251 336 239.5 324.5 c 128,-1,68
 228 313 228 313 211 313 c 0,36,37
EndSplineSet
EndChar

StartChar: ampersand
Encoding: 38 38 9
Width: 1591
GlyphClass: 2
Flags: W
LayerCount: 2
Fore
SplineSet
143 -463 m 0,0,1
 121 -463 121 -463 115 -412 c 1,2,-1
 115 -399 l 2,3,4
 115 -300 115 -300 156 -204 c 128,-1,5
 197 -108 197 -108 274.5 -47 c 128,-1,6
 352 14 352 14 455 14 c 0,7,8
 550 14 550 14 627 -33 c 128,-1,9
 704 -80 704 -80 802.5 -168.5 c 128,-1,10
 901 -257 901 -257 974 -302.5 c 128,-1,11
 1047 -348 1047 -348 1137 -348 c 0,12,13
 1218 -348 1218 -348 1282.5 -304.5 c 128,-1,14
 1347 -261 1347 -261 1383 -188.5 c 128,-1,15
 1419 -116 1419 -116 1419 -37 c 1,16,17
 1425 14 1425 14 1448 14 c 256,18,19
 1471 14 1471 14 1477 -37 c 1,20,-1
 1477 -49 l 2,21,22
 1477 -148 1477 -148 1435.5 -244.5 c 128,-1,23
 1394 -341 1394 -341 1317 -402 c 128,-1,24
 1240 -463 1240 -463 1137 -463 c 0,25,26
 1044 -463 1044 -463 969 -417.5 c 128,-1,27
 894 -372 894 -372 796 -283.5 c 128,-1,28
 698 -195 698 -195 621.5 -147.5 c 128,-1,29
 545 -100 545 -100 455 -100 c 0,30,31
 375 -100 375 -100 309.5 -144 c 128,-1,32
 244 -188 244 -188 208 -260.5 c 128,-1,33
 172 -333 172 -333 172 -412 c 1,34,35
 166 -463 166 -463 143 -463 c 0,0,1
170 354 m 0,36,37
 170 380 170 380 197 393 c 2,38,-1
 1284 907 l 1,39,-1
 190 1423 l 2,40,41
 170 1433 170 1433 170 1458 c 0,42,43
 170 1475 170 1475 181 1487 c 128,-1,44
 192 1499 192 1499 211 1499 c 0,45,46
 221 1499 221 1499 227 1497 c 2,47,-1
 1403 942 l 2,48,49
 1421 933 1421 933 1421 907 c 0,50,51
 1421 883 1421 883 1397 868 c 1,52,-1
 227 317 l 1,53,54
 221 313 221 313 211 313 c 0,55,56
 194 313 194 313 182 326 c 128,-1,57
 170 339 170 339 170 354 c 0,36,37
EndSplineSet
EndChar

StartChar: quotesingle
Encoding: 39 39 10
Width: 1591
GlyphClass: 2
Flags: W
LayerCount: 2
Fore
SplineSet
143 -588 m 0,0,1
 121 -588 121 -588 115 -537 c 1,2,-1
 115 -524 l 2,3,4
 115 -432 115 -432 161 -355.5 c 128,-1,5
 207 -279 207 -279 285.5 -234.5 c 128,-1,6
 364 -190 364 -190 455 -190 c 0,7,8
 565 -190 565 -190 681.5 -260.5 c 128,-1,9
 798 -331 798 -331 913 -402 c 128,-1,10
 1028 -473 1028 -473 1137 -473 c 0,11,12
 1241 -473 1241 -473 1330 -407.5 c 128,-1,13
 1419 -342 1419 -342 1419 -242 c 1,14,15
 1425 -190 1425 -190 1448 -190 c 256,16,17
 1471 -190 1471 -190 1477 -242 c 1,18,-1
 1477 -254 l 2,19,20
 1477 -346 1477 -346 1431 -422.5 c 128,-1,21
 1385 -499 1385 -499 1306 -543.5 c 128,-1,22
 1227 -588 1227 -588 1137 -588 c 0,23,24
 1051 -588 1051 -588 975.5 -552.5 c 128,-1,25
 900 -517 900 -517 798.5 -448.5 c 128,-1,26
 697 -380 697 -380 618 -342.5 c 128,-1,27
 539 -305 539 -305 455 -305 c 0,28,29
 390 -305 390 -305 323 -334.5 c 128,-1,30
 256 -364 256 -364 214 -416.5 c 128,-1,31
 172 -469 172 -469 172 -537 c 1,32,33
 166 -588 166 -588 143 -588 c 0,0,1
143 -111 m 0,34,35
 121 -111 121 -111 115 -59 c 1,36,-1
 115 -47 l 2,37,38
 115 45 115 45 161 121.5 c 128,-1,39
 207 198 207 198 285.5 242.5 c 128,-1,40
 364 287 364 287 455 287 c 0,41,42
 565 287 565 287 681.5 216.5 c 128,-1,43
 798 146 798 146 913 75 c 128,-1,44
 1028 4 1028 4 1137 4 c 0,45,46
 1241 4 1241 4 1330 69.5 c 128,-1,47
 1419 135 1419 135 1419 236 c 1,48,49
 1425 287 1425 287 1448 287 c 256,50,51
 1471 287 1471 287 1477 236 c 1,52,-1
 1477 223 l 2,53,54
 1477 131 1477 131 1431 54.5 c 128,-1,55
 1385 -22 1385 -22 1306 -66.5 c 128,-1,56
 1227 -111 1227 -111 1137 -111 c 0,57,58
 1051 -111 1051 -111 975.5 -75.5 c 128,-1,59
 900 -40 900 -40 798.5 28.5 c 128,-1,60
 697 97 697 97 618 134.5 c 128,-1,61
 539 172 539 172 455 172 c 0,62,63
 390 172 390 172 323 142.5 c 128,-1,64
 256 113 256 113 214 61 c 128,-1,65
 172 9 172 9 172 -59 c 1,66,67
 166 -111 166 -111 143 -111 c 0,34,35
170 539 m 0,68,69
 170 564 170 564 197 578 c 1,70,-1
 1274 1030 l 1,71,-1
 197 1483 l 1,72,73
 170 1493 170 1493 170 1520 c 0,74,75
 170 1535 170 1535 182 1548 c 128,-1,76
 194 1561 194 1561 211 1561 c 0,77,78
 221 1561 221 1561 227 1559 c 2,79,-1
 1397 1067 l 2,80,81
 1421 1057 1421 1057 1421 1030 c 0,82,83
 1421 1001 1421 1001 1397 991 c 2,84,-1
 227 502 l 1,85,86
 221 498 221 498 211 498 c 0,87,88
 194 498 194 498 182 510 c 128,-1,89
 170 522 170 522 170 539 c 0,68,69
EndSplineSet
EndChar

StartChar: parenleft
Encoding: 40 40 11
Width: 2275
GlyphClass: 2
Flags: W
LayerCount: 2
Fore
SplineSet
152 471 m 2,0,1
 136 471 136 471 125.5 484 c 128,-1,2
 115 497 115 497 115 512 c 256,3,4
 115 527 115 527 125.5 540 c 128,-1,5
 136 553 136 553 152 553 c 2,6,-1
 1511 553 l 1,7,8
 1521 633 1521 633 1567 698 c 128,-1,9
 1613 763 1613 763 1684.5 800.5 c 128,-1,10
 1756 838 1756 838 1835 838 c 0,11,12
 1900 838 1900 838 1959.5 813 c 128,-1,13
 2019 788 2019 788 2063.5 743 c 128,-1,14
 2108 698 2108 698 2133.5 638 c 128,-1,15
 2159 578 2159 578 2159 512 c 256,16,17
 2159 446 2159 446 2134 387 c 128,-1,18
 2109 328 2109 328 2064 283 c 128,-1,19
 2019 238 2019 238 1959.5 212 c 128,-1,20
 1900 186 1900 186 1835 186 c 0,21,22
 1712 186 1712 186 1619.5 268 c 128,-1,23
 1527 350 1527 350 1511 471 c 1,24,-1
 152 471 l 2,0,1
1835 268 m 0,25,26
 1899 268 1899 268 1955 301 c 128,-1,27
 2011 334 2011 334 2044 390.5 c 128,-1,28
 2077 447 2077 447 2077 512 c 256,29,30
 2077 577 2077 577 2044 633.5 c 128,-1,31
 2011 690 2011 690 1955 723 c 128,-1,32
 1899 756 1899 756 1835 756 c 0,33,34
 1770 756 1770 756 1713.5 723 c 128,-1,35
 1657 690 1657 690 1624 633.5 c 128,-1,36
 1591 577 1591 577 1591 512 c 256,37,38
 1591 447 1591 447 1624 390.5 c 128,-1,39
 1657 334 1657 334 1713.5 301 c 128,-1,40
 1770 268 1770 268 1835 268 c 0,25,26
EndSplineSet
EndChar

StartChar: parenright
Encoding: 41 41 12
Width: 1364
GlyphClass: 2
Flags: W
LayerCount: 2
Fore
SplineSet
57 -45 m 256,0,1
 57 2 57 2 90 35 c 128,-1,2
 123 68 123 68 170 68 c 0,3,4
 200 68 200 68 226 52.5 c 128,-1,5
 252 37 252 37 267.5 11 c 128,-1,6
 283 -15 283 -15 283 -45 c 0,7,8
 283 -92 283 -92 250 -125 c 128,-1,9
 217 -158 217 -158 170 -158 c 256,10,11
 123 -158 123 -158 90 -125 c 128,-1,12
 57 -92 57 -92 57 -45 c 256,0,1
1081 -45 m 256,13,14
 1081 2 1081 2 1114 35 c 128,-1,15
 1147 68 1147 68 1194 68 c 0,16,17
 1224 68 1224 68 1250 52.5 c 128,-1,18
 1276 37 1276 37 1291.5 11 c 128,-1,19
 1307 -15 1307 -15 1307 -45 c 0,20,21
 1307 -92 1307 -92 1274 -125 c 128,-1,22
 1241 -158 1241 -158 1194 -158 c 256,23,24
 1147 -158 1147 -158 1114 -125 c 128,-1,25
 1081 -92 1081 -92 1081 -45 c 256,13,14
569 842 m 0,26,27
 569 889 569 889 602.5 921.5 c 128,-1,28
 636 954 636 954 682 954 c 0,29,30
 711 954 711 954 737 939 c 128,-1,31
 763 924 763 924 779 897.5 c 128,-1,32
 795 871 795 871 795 842 c 0,33,34
 795 812 795 812 779 785.5 c 128,-1,35
 763 759 763 759 737 744 c 128,-1,36
 711 729 711 729 682 729 c 0,37,38
 636 729 636 729 602.5 762.5 c 128,-1,39
 569 796 569 796 569 842 c 0,26,27
EndSplineSet
EndChar

StartChar: asterisk
Encoding: 42 42 13
Width: 1364
GlyphClass: 2
Flags: W
LayerCount: 2
Fore
SplineSet
569 -45 m 256,0,1
 569 2 569 2 602 35 c 128,-1,2
 635 68 635 68 682 68 c 0,3,4
 712 68 712 68 738 52.5 c 128,-1,5
 764 37 764 37 779.5 11 c 128,-1,6
 795 -15 795 -15 795 -45 c 0,7,8
 795 -92 795 -92 762 -125 c 128,-1,9
 729 -158 729 -158 682 -158 c 256,10,11
 635 -158 635 -158 602 -125 c 128,-1,12
 569 -92 569 -92 569 -45 c 256,0,1
57 842 m 0,13,14
 57 889 57 889 90.5 921.5 c 128,-1,15
 124 954 124 954 170 954 c 0,16,17
 199 954 199 954 225 939 c 128,-1,18
 251 924 251 924 267 897.5 c 128,-1,19
 283 871 283 871 283 842 c 0,20,21
 283 812 283 812 267 785.5 c 128,-1,22
 251 759 251 759 225 744 c 128,-1,23
 199 729 199 729 170 729 c 0,24,25
 124 729 124 729 90.5 762.5 c 128,-1,26
 57 796 57 796 57 842 c 0,13,14
1081 842 m 0,27,28
 1081 889 1081 889 1114.5 921.5 c 128,-1,29
 1148 954 1148 954 1194 954 c 0,30,31
 1223 954 1223 954 1249 939 c 128,-1,32
 1275 924 1275 924 1291 897.5 c 128,-1,33
 1307 871 1307 871 1307 842 c 0,34,35
 1307 812 1307 812 1291 785.5 c 128,-1,36
 1275 759 1275 759 1249 744 c 128,-1,37
 1223 729 1223 729 1194 729 c 0,38,39
 1148 729 1148 729 1114.5 762.5 c 128,-1,40
 1081 796 1081 796 1081 842 c 0,27,28
EndSplineSet
EndChar

StartChar: plus
Encoding: 43 43 14
Width: 1591
GlyphClass: 2
Flags: W
LayerCount: 2
Fore
SplineSet
676 -84 m 256,0,1
 676 -35 676 -35 712 1 c 128,-1,2
 748 37 748 37 797 37 c 0,3,4
 844 37 844 37 879.5 0.5 c 128,-1,5
 915 -36 915 -36 915 -84 c 256,6,7
 915 -132 915 -132 879.5 -168.5 c 128,-1,8
 844 -205 844 -205 797 -205 c 0,9,10
 748 -205 748 -205 712 -169 c 128,-1,11
 676 -133 676 -133 676 -84 c 256,0,1
154 272 m 2,12,13
 137 272 137 272 126 285 c 128,-1,14
 115 298 115 298 115 313 c 0,15,16
 115 330 115 330 126 342 c 128,-1,17
 137 354 137 354 154 354 c 2,18,-1
 1440 354 l 2,19,20
 1455 354 1455 354 1466 342 c 128,-1,21
 1477 330 1477 330 1477 313 c 0,22,23
 1477 298 1477 298 1466 285 c 128,-1,24
 1455 272 1455 272 1440 272 c 2,25,-1
 154 272 l 2,12,13
154 670 m 2,26,27
 137 670 137 670 126 682 c 128,-1,28
 115 694 115 694 115 711 c 0,29,30
 115 726 115 726 126 739 c 128,-1,31
 137 752 137 752 154 752 c 2,32,-1
 1440 752 l 2,33,34
 1455 752 1455 752 1466 739 c 128,-1,35
 1477 726 1477 726 1477 711 c 0,36,37
 1477 694 1477 694 1466 682 c 128,-1,38
 1455 670 1455 670 1440 670 c 2,39,-1
 154 670 l 2,26,27
676 1108 m 256,40,41
 676 1157 676 1157 712 1193 c 128,-1,42
 748 1229 748 1229 797 1229 c 0,43,44
 844 1229 844 1229 879.5 1192.5 c 128,-1,45
 915 1156 915 1156 915 1108 c 256,46,47
 915 1060 915 1060 879.5 1023.5 c 128,-1,48
 844 987 844 987 797 987 c 0,49,50
 748 987 748 987 712 1023 c 128,-1,51
 676 1059 676 1059 676 1108 c 256,40,41
EndSplineSet
EndChar

StartChar: comma
Encoding: 44 44 15
Width: 1591
GlyphClass: 2
Flags: W
LayerCount: 2
Fore
SplineSet
154 272 m 2,0,1
 137 272 137 272 126 285 c 128,-1,2
 115 298 115 298 115 313 c 0,3,4
 115 330 115 330 126 342 c 128,-1,5
 137 354 137 354 154 354 c 2,6,-1
 1442 354 l 2,7,8
 1457 354 1457 354 1468 342 c 128,-1,9
 1479 330 1479 330 1479 313 c 0,10,11
 1479 298 1479 298 1468 285 c 128,-1,12
 1457 272 1457 272 1442 272 c 2,13,-1
 154 272 l 2,0,1
154 670 m 2,14,15
 137 670 137 670 126 682 c 128,-1,16
 115 694 115 694 115 711 c 0,17,18
 115 726 115 726 126 739 c 128,-1,19
 137 752 137 752 154 752 c 2,20,-1
 1442 752 l 2,21,22
 1457 752 1457 752 1468 739 c 128,-1,23
 1479 726 1479 726 1479 711 c 0,24,25
 1479 694 1479 694 1468 682 c 128,-1,26
 1457 670 1457 670 1442 670 c 2,27,-1
 154 670 l 2,14,15
395 987 m 2,28,29
 380 987 380 987 369 1000 c 128,-1,30
 358 1013 358 1013 358 1028 c 0,31,32
 358 1038 358 1038 365 1051 c 2,33,-1
 762 1739 l 1,34,35
 772 1759 772 1759 797 1759 c 0,36,37
 821 1759 821 1759 831 1739 c 1,38,-1
 1229 1051 l 1,39,40
 1235 1038 1235 1038 1235 1028 c 0,41,42
 1235 1013 1235 1013 1224.5 1000 c 128,-1,43
 1214 987 1214 987 1198 987 c 2,44,-1
 395 987 l 2,28,29
469 1069 m 1,45,-1
 1124 1069 l 1,46,-1
 797 1636 l 1,47,-1
 469 1069 l 1,45,-1
EndSplineSet
EndChar

StartChar: hyphen
Encoding: 45 45 16
Width: 1591
GlyphClass: 2
Flags: W
LayerCount: 2
Fore
SplineSet
143 -463 m 0,0,1
 121 -463 121 -463 115 -412 c 1,2,-1
 115 -399 l 2,3,4
 115 -300 115 -300 156 -204 c 128,-1,5
 197 -108 197 -108 274.5 -47 c 128,-1,6
 352 14 352 14 455 14 c 0,7,8
 550 14 550 14 627 -33 c 128,-1,9
 704 -80 704 -80 802.5 -168.5 c 128,-1,10
 901 -257 901 -257 974 -302.5 c 128,-1,11
 1047 -348 1047 -348 1137 -348 c 0,12,13
 1218 -348 1218 -348 1282.5 -304.5 c 128,-1,14
 1347 -261 1347 -261 1383 -188.5 c 128,-1,15
 1419 -116 1419 -116 1419 -37 c 1,16,17
 1425 14 1425 14 1448 14 c 256,18,19
 1471 14 1471 14 1477 -37 c 1,20,-1
 1477 -49 l 2,21,22
 1477 -148 1477 -148 1435.5 -244.5 c 128,-1,23
 1394 -341 1394 -341 1317 -402 c 128,-1,24
 1240 -463 1240 -463 1137 -463 c 0,25,26
 1044 -463 1044 -463 969 -417.5 c 128,-1,27
 894 -372 894 -372 796 -283.5 c 128,-1,28
 698 -195 698 -195 621.5 -147.5 c 128,-1,29
 545 -100 545 -100 455 -100 c 0,30,31
 375 -100 375 -100 309.5 -144 c 128,-1,32
 244 -188 244 -188 208 -260.5 c 128,-1,33
 172 -333 172 -333 172 -412 c 1,34,35
 166 -463 166 -463 143 -463 c 0,0,1
209 864 m 0,36,37
 192 864 192 864 181 877 c 128,-1,38
 170 890 170 890 170 905 c 0,39,40
 170 922 170 922 181 934 c 128,-1,41
 192 946 192 946 209 946 c 0,42,43
 392 946 392 946 568.5 961 c 128,-1,44
 745 976 745 976 915.5 1026 c 128,-1,45
 1086 1076 1086 1076 1204 1182.5 c 128,-1,46
 1322 1289 1322 1289 1339 1462 c 0,47,48
 1340 1478 1340 1478 1351.5 1488.5 c 128,-1,49
 1363 1499 1363 1499 1380 1499 c 0,50,51
 1399 1499 1399 1499 1410 1486 c 128,-1,52
 1421 1473 1421 1473 1421 1456 c 1,53,54
 1375 1016 1375 1016 758 905 c 1,55,56
 1027 858 1027 858 1211.5 728.5 c 128,-1,57
 1396 599 1396 599 1421 358 c 1,58,59
 1421 340 1421 340 1410 326.5 c 128,-1,60
 1399 313 1399 313 1380 313 c 0,61,62
 1363 313 1363 313 1352 324 c 128,-1,63
 1341 335 1341 335 1339 352 c 0,64,65
 1322 523 1322 523 1202 630 c 128,-1,66
 1082 737 1082 737 912.5 786 c 128,-1,67
 743 835 743 835 573 849.5 c 128,-1,68
 403 864 403 864 209 864 c 0,36,37
EndSplineSet
EndChar

StartChar: period
Encoding: 46 46 17
Width: 1591
GlyphClass: 2
Flags: W
LayerCount: 2
Fore
SplineSet
143 -463 m 0,0,1
 121 -463 121 -463 115 -412 c 1,2,-1
 115 -399 l 2,3,4
 115 -300 115 -300 156 -204 c 128,-1,5
 197 -108 197 -108 274.5 -47 c 128,-1,6
 352 14 352 14 455 14 c 0,7,8
 550 14 550 14 627 -33 c 128,-1,9
 704 -80 704 -80 802.5 -168.5 c 128,-1,10
 901 -257 901 -257 974 -302.5 c 128,-1,11
 1047 -348 1047 -348 1137 -348 c 0,12,13
 1218 -348 1218 -348 1282.5 -304.5 c 128,-1,14
 1347 -261 1347 -261 1383 -188.5 c 128,-1,15
 1419 -116 1419 -116 1419 -37 c 1,16,17
 1425 14 1425 14 1448 14 c 256,18,19
 1471 14 1471 14 1477 -37 c 1,20,-1
 1477 -49 l 2,21,22
 1477 -148 1477 -148 1435.5 -244.5 c 128,-1,23
 1394 -341 1394 -341 1317 -402 c 128,-1,24
 1240 -463 1240 -463 1137 -463 c 0,25,26
 1044 -463 1044 -463 969 -417.5 c 128,-1,27
 894 -372 894 -372 796 -283.5 c 128,-1,28
 698 -195 698 -195 621.5 -147.5 c 128,-1,29
 545 -100 545 -100 455 -100 c 0,30,31
 375 -100 375 -100 309.5 -144 c 128,-1,32
 244 -188 244 -188 208 -260.5 c 128,-1,33
 172 -333 172 -333 172 -412 c 1,34,35
 166 -463 166 -463 143 -463 c 0,0,1
190 872 m 1,36,37
 170 879 170 879 170 907 c 0,38,39
 170 934 170 934 197 944 c 1,40,-1
 1366 1497 l 2,41,42
 1370 1499 1370 1499 1380 1499 c 0,43,44
 1398 1499 1398 1499 1409.5 1488 c 128,-1,45
 1421 1477 1421 1477 1421 1458 c 0,46,47
 1421 1431 1421 1431 1397 1421 c 1,48,-1
 307 907 l 1,49,-1
 1403 389 l 2,50,51
 1421 380 1421 380 1421 354 c 0,52,53
 1421 337 1421 337 1409 325 c 128,-1,54
 1397 313 1397 313 1380 313 c 0,55,56
 1370 313 1370 313 1366 317 c 1,57,-1
 190 872 l 1,36,37
EndSplineSet
EndChar

StartChar: slash
Encoding: 47 47 18
Width: 1591
GlyphClass: 2
Flags: W
LayerCount: 2
Fore
SplineSet
143 -588 m 0,0,1
 121 -588 121 -588 115 -537 c 1,2,-1
 115 -524 l 2,3,4
 115 -432 115 -432 161 -355.5 c 128,-1,5
 207 -279 207 -279 285.5 -234.5 c 128,-1,6
 364 -190 364 -190 455 -190 c 0,7,8
 565 -190 565 -190 681.5 -260.5 c 128,-1,9
 798 -331 798 -331 913 -402 c 128,-1,10
 1028 -473 1028 -473 1137 -473 c 0,11,12
 1241 -473 1241 -473 1330 -407.5 c 128,-1,13
 1419 -342 1419 -342 1419 -242 c 1,14,15
 1425 -190 1425 -190 1448 -190 c 256,16,17
 1471 -190 1471 -190 1477 -242 c 1,18,-1
 1477 -254 l 2,19,20
 1477 -346 1477 -346 1431 -422.5 c 128,-1,21
 1385 -499 1385 -499 1306 -543.5 c 128,-1,22
 1227 -588 1227 -588 1137 -588 c 0,23,24
 1051 -588 1051 -588 975.5 -552.5 c 128,-1,25
 900 -517 900 -517 798.5 -448.5 c 128,-1,26
 697 -380 697 -380 618 -342.5 c 128,-1,27
 539 -305 539 -305 455 -305 c 0,28,29
 390 -305 390 -305 323 -334.5 c 128,-1,30
 256 -364 256 -364 214 -416.5 c 128,-1,31
 172 -469 172 -469 172 -537 c 1,32,33
 166 -588 166 -588 143 -588 c 0,0,1
143 -111 m 0,34,35
 121 -111 121 -111 115 -59 c 1,36,-1
 115 -47 l 2,37,38
 115 45 115 45 161 121.5 c 128,-1,39
 207 198 207 198 285.5 242.5 c 128,-1,40
 364 287 364 287 455 287 c 0,41,42
 565 287 565 287 681.5 216.5 c 128,-1,43
 798 146 798 146 913 75 c 128,-1,44
 1028 4 1028 4 1137 4 c 0,45,46
 1241 4 1241 4 1330 69.5 c 128,-1,47
 1419 135 1419 135 1419 236 c 1,48,49
 1425 287 1425 287 1448 287 c 256,50,51
 1471 287 1471 287 1477 236 c 1,52,-1
 1477 223 l 2,53,54
 1477 131 1477 131 1431 54.5 c 128,-1,55
 1385 -22 1385 -22 1306 -66.5 c 128,-1,56
 1227 -111 1227 -111 1137 -111 c 0,57,58
 1051 -111 1051 -111 975.5 -75.5 c 128,-1,59
 900 -40 900 -40 798.5 28.5 c 128,-1,60
 697 97 697 97 618 134.5 c 128,-1,61
 539 172 539 172 455 172 c 0,62,63
 390 172 390 172 323 142.5 c 128,-1,64
 256 113 256 113 214 61 c 128,-1,65
 172 9 172 9 172 -59 c 1,66,67
 166 -111 166 -111 143 -111 c 0,34,35
197 991 m 1,68,69
 170 1001 170 1001 170 1030 c 0,70,71
 170 1057 170 1057 197 1067 c 1,72,-1
 1366 1559 l 2,73,74
 1370 1561 1370 1561 1380 1561 c 0,75,76
 1397 1561 1397 1561 1409 1549 c 128,-1,77
 1421 1537 1421 1537 1421 1520 c 0,78,79
 1421 1493 1421 1493 1397 1483 c 2,80,-1
 317 1030 l 1,81,-1
 1397 578 l 1,82,83
 1421 563 1421 563 1421 539 c 0,84,85
 1421 521 1421 521 1409 509.5 c 128,-1,86
 1397 498 1397 498 1380 498 c 0,87,88
 1370 498 1370 498 1366 502 c 1,89,-1
 197 991 l 1,68,69
EndSplineSet
EndChar

StartChar: zero
Encoding: 48 48 19
Width: 1591
GlyphClass: 2
Flags: W
LayerCount: 2
Fore
SplineSet
190 279 m 1,0,1
 170 285 170 285 170 313 c 0,2,3
 170 340 170 340 197 350 c 1,4,-1
 1366 903 l 2,5,6
 1370 905 1370 905 1380 905 c 0,7,8
 1398 905 1398 905 1409.5 894 c 128,-1,9
 1421 883 1421 883 1421 864 c 0,10,11
 1421 839 1421 839 1397 827 c 2,12,-1
 307 313 l 1,13,-1
 1403 -205 l 2,14,15
 1421 -214 1421 -214 1421 -240 c 0,16,17
 1421 -257 1421 -257 1409 -269 c 128,-1,18
 1397 -281 1397 -281 1380 -281 c 0,19,20
 1370 -281 1370 -281 1366 -276 c 1,21,-1
 190 279 l 1,0,1
170 711 m 0,22,23
 170 736 170 736 190 745 c 2,24,-1
 1366 1300 l 1,25,26
 1370 1303 1370 1303 1380 1303 c 0,27,28
 1397 1303 1397 1303 1409 1291 c 128,-1,29
 1421 1279 1421 1279 1421 1262 c 0,30,31
 1421 1236 1421 1236 1403 1227 c 2,32,-1
 227 672 l 2,33,34
 221 670 221 670 211 670 c 0,35,36
 194 670 194 670 182 682 c 128,-1,37
 170 694 170 694 170 711 c 0,22,23
EndSplineSet
EndChar

StartChar: one
Encoding: 49 49 20
Width: 1591
GlyphClass: 2
Flags: W
LayerCount: 2
Fore
SplineSet
170 -240 m 0,0,1
 170 -214 170 -214 197 -201 c 2,2,-1
 1284 313 l 1,3,-1
 190 829 l 2,4,5
 170 839 170 839 170 864 c 0,6,7
 170 881 170 881 181 893 c 128,-1,8
 192 905 192 905 211 905 c 0,9,10
 221 905 221 905 227 903 c 2,11,-1
 1403 348 l 2,12,13
 1421 339 1421 339 1421 313 c 0,14,15
 1421 289 1421 289 1397 274 c 1,16,-1
 227 -276 l 1,17,18
 221 -281 221 -281 211 -281 c 0,19,20
 194 -281 194 -281 182 -268 c 128,-1,21
 170 -255 170 -255 170 -240 c 0,0,1
197 1225 m 1,22,23
 170 1235 170 1235 170 1262 c 0,24,25
 170 1277 170 1277 182 1290 c 128,-1,26
 194 1303 194 1303 211 1303 c 0,27,28
 221 1303 221 1303 227 1300 c 2,29,-1
 1397 748 l 2,30,31
 1421 736 1421 736 1421 711 c 0,32,33
 1421 693 1421 693 1409 681.5 c 128,-1,34
 1397 670 1397 670 1380 670 c 0,35,36
 1370 670 1370 670 1366 672 c 2,37,-1
 197 1225 l 1,22,23
EndSplineSet
EndChar

StartChar: two
Encoding: 50 50 21
Width: 1591
GlyphClass: 2
Flags: W
LayerCount: 2
Fore
SplineSet
209 553 m 0,0,1
 192 553 192 553 181 565 c 128,-1,2
 170 577 170 577 170 594 c 0,3,4
 170 608 170 608 181.5 621.5 c 128,-1,5
 193 635 193 635 209 635 c 0,6,7
 643 635 643 635 974.5 732.5 c 128,-1,8
 1306 830 1306 830 1339 1149 c 0,9,10
 1340 1163 1340 1163 1351.5 1174.5 c 128,-1,11
 1363 1186 1363 1186 1380 1186 c 0,12,13
 1399 1186 1399 1186 1410 1173 c 128,-1,14
 1421 1160 1421 1160 1421 1143 c 1,15,16
 1375 703 1375 703 758 594 c 1,17,18
 1028 546 1028 546 1212 416.5 c 128,-1,19
 1396 287 1396 287 1421 45 c 1,20,21
 1421 26 1421 26 1410 13 c 128,-1,22
 1399 0 1399 0 1380 0 c 0,23,24
 1363 0 1363 0 1352 11 c 128,-1,25
 1341 22 1341 22 1339 39 c 0,26,27
 1322 211 1322 211 1203.5 317 c 128,-1,28
 1085 423 1085 423 915 473 c 128,-1,29
 745 523 745 523 568.5 538 c 128,-1,30
 392 553 392 553 209 553 c 0,0,1
170 909 m 0,31,32
 170 924 170 924 181 937 c 128,-1,33
 192 950 192 950 209 950 c 0,34,35
 353 950 353 950 500 974.5 c 128,-1,36
 647 999 647 999 782 1057 c 128,-1,37
 917 1115 917 1115 1007.5 1216.5 c 128,-1,38
 1098 1318 1098 1318 1112 1464 c 0,39,40
 1113 1480 1113 1480 1124.5 1490.5 c 128,-1,41
 1136 1501 1136 1501 1153 1501 c 0,42,43
 1172 1501 1172 1501 1183 1488 c 128,-1,44
 1194 1475 1194 1475 1194 1458 c 1,45,46
 1178 1294 1178 1294 1081.5 1177.5 c 128,-1,47
 985 1061 985 1061 839 993 c 128,-1,48
 693 925 693 925 532.5 896.5 c 128,-1,49
 372 868 372 868 215 868 c 0,50,51
 196 868 196 868 183 879 c 128,-1,52
 170 890 170 890 170 909 c 0,31,32
EndSplineSet
EndChar

StartChar: three
Encoding: 51 51 22
Width: 1591
GlyphClass: 2
Flags: W
LayerCount: 2
Fore
SplineSet
211 0 m 0,0,1
 192 0 192 0 181 13 c 128,-1,2
 170 26 170 26 170 45 c 1,3,4
 196 287 196 287 379.5 416 c 128,-1,5
 563 545 563 545 834 594 c 1,6,7
 216 703 216 703 170 1143 c 1,8,9
 170 1160 170 1160 181 1173 c 128,-1,10
 192 1186 192 1186 211 1186 c 0,11,12
 228 1186 228 1186 239.5 1174.5 c 128,-1,13
 251 1163 251 1163 252 1149 c 0,14,15
 274 926 274 926 463 811.5 c 128,-1,16
 652 697 652 697 887.5 666 c 128,-1,17
 1123 635 1123 635 1384 635 c 0,18,19
 1399 635 1399 635 1410 621.5 c 128,-1,20
 1421 608 1421 608 1421 594 c 0,21,22
 1421 577 1421 577 1410.5 565 c 128,-1,23
 1400 553 1400 553 1384 553 c 0,24,25
 1122 553 1122 553 886.5 521 c 128,-1,26
 651 489 651 489 463 375.5 c 128,-1,27
 275 262 275 262 252 39 c 0,28,29
 251 23 251 23 239.5 11.5 c 128,-1,30
 228 0 228 0 211 0 c 0,0,1
397 1458 m 1,31,32
 397 1475 397 1475 409 1488 c 128,-1,33
 421 1501 421 1501 438 1501 c 256,34,35
 455 1501 455 1501 466 1491 c 128,-1,36
 477 1481 477 1481 479 1464 c 0,37,38
 495 1318 495 1318 585 1216.5 c 128,-1,39
 675 1115 675 1115 810.5 1056.5 c 128,-1,40
 946 998 946 998 1093 974 c 128,-1,41
 1240 950 1240 950 1384 950 c 0,42,43
 1400 950 1400 950 1410.5 937 c 128,-1,44
 1421 924 1421 924 1421 909 c 0,45,46
 1421 890 1421 890 1408 879 c 128,-1,47
 1395 868 1395 868 1378 868 c 0,48,49
 1221 868 1221 868 1060.5 896.5 c 128,-1,50
 900 925 900 925 754.5 993 c 128,-1,51
 609 1061 609 1061 511.5 1177.5 c 128,-1,52
 414 1294 414 1294 397 1458 c 1,31,32
EndSplineSet
EndChar

StartChar: four
Encoding: 52 52 23
Width: 1591
GlyphClass: 2
Flags: W
LayerCount: 2
Fore
SplineSet
209 238 m 0,0,1
 192 238 192 238 181 250 c 128,-1,2
 170 262 170 262 170 279 c 0,3,4
 170 297 170 297 183 308 c 128,-1,5
 196 319 196 319 215 319 c 0,6,7
 372 319 372 319 533.5 290 c 128,-1,8
 695 261 695 261 840.5 192.5 c 128,-1,9
 986 124 986 124 1082 8 c 128,-1,10
 1178 -108 1178 -108 1194 -272 c 1,11,12
 1194 -289 1194 -289 1183 -302 c 128,-1,13
 1172 -315 1172 -315 1153 -315 c 0,14,15
 1136 -315 1136 -315 1125 -304.5 c 128,-1,16
 1114 -294 1114 -294 1112 -279 c 0,17,18
 1098 -132 1098 -132 1006 -29 c 128,-1,19
 914 74 914 74 779.5 132 c 128,-1,20
 645 190 645 190 499 214 c 128,-1,21
 353 238 353 238 209 238 c 0,0,1
209 553 m 0,22,23
 192 553 192 553 181 565 c 128,-1,24
 170 577 170 577 170 594 c 0,25,26
 170 608 170 608 181.5 621.5 c 128,-1,27
 193 635 193 635 209 635 c 0,28,29
 643 635 643 635 974.5 732.5 c 128,-1,30
 1306 830 1306 830 1339 1149 c 0,31,32
 1340 1163 1340 1163 1351.5 1174.5 c 128,-1,33
 1363 1186 1363 1186 1380 1186 c 0,34,35
 1399 1186 1399 1186 1410 1173 c 128,-1,36
 1421 1160 1421 1160 1421 1143 c 1,37,38
 1375 703 1375 703 758 594 c 1,39,40
 1028 546 1028 546 1212 416.5 c 128,-1,41
 1396 287 1396 287 1421 45 c 1,42,43
 1421 26 1421 26 1410 13 c 128,-1,44
 1399 0 1399 0 1380 0 c 0,45,46
 1363 0 1363 0 1352 11 c 128,-1,47
 1341 22 1341 22 1339 39 c 0,48,49
 1322 211 1322 211 1203.5 317 c 128,-1,50
 1085 423 1085 423 915 473 c 128,-1,51
 745 523 745 523 568.5 538 c 128,-1,52
 392 553 392 553 209 553 c 0,22,23
EndSplineSet
EndChar

StartChar: five
Encoding: 53 53 24
Width: 1591
GlyphClass: 2
Flags: W
LayerCount: 2
Fore
SplineSet
209 -356 m 2,0,1
 192 -356 192 -356 181 -344 c 128,-1,2
 170 -332 170 -332 170 -315 c 0,3,4
 170 -300 170 -300 181 -287 c 128,-1,5
 192 -274 192 -274 209 -274 c 2,6,-1
 1384 -274 l 2,7,8
 1400 -274 1400 -274 1410.5 -287 c 128,-1,9
 1421 -300 1421 -300 1421 -315 c 0,10,11
 1421 -332 1421 -332 1410.5 -344 c 128,-1,12
 1400 -356 1400 -356 1384 -356 c 2,13,-1
 209 -356 l 2,0,1
209 41 m 2,14,15
 192 41 192 41 181 53 c 128,-1,16
 170 65 170 65 170 82 c 0,17,18
 170 97 170 97 181 110 c 128,-1,19
 192 123 192 123 209 123 c 2,20,-1
 1384 123 l 2,21,22
 1400 123 1400 123 1410.5 110 c 128,-1,23
 1421 97 1421 97 1421 82 c 0,24,25
 1421 65 1421 65 1410.5 53 c 128,-1,26
 1400 41 1400 41 1384 41 c 2,27,-1
 209 41 l 2,14,15
190 915 m 1,28,29
 170 922 170 922 170 950 c 0,30,31
 170 977 170 977 197 987 c 1,32,-1
 1366 1540 l 2,33,34
 1370 1542 1370 1542 1380 1542 c 0,35,36
 1398 1542 1398 1542 1409.5 1531 c 128,-1,37
 1421 1520 1421 1520 1421 1501 c 0,38,39
 1421 1474 1421 1474 1397 1464 c 1,40,-1
 307 950 l 1,41,-1
 1403 432 l 2,42,43
 1421 423 1421 423 1421 397 c 0,44,45
 1421 380 1421 380 1409 368 c 128,-1,46
 1397 356 1397 356 1380 356 c 0,47,48
 1370 356 1370 356 1366 360 c 1,49,-1
 190 915 l 1,28,29
EndSplineSet
EndChar

StartChar: six
Encoding: 54 54 25
Width: 1591
GlyphClass: 2
Flags: W
LayerCount: 2
Fore
SplineSet
197 274 m 1,0,1
 170 285 170 285 170 311 c 0,2,3
 170 328 170 328 181 340 c 128,-1,4
 192 352 192 352 211 352 c 0,5,6
 221 352 221 352 227 350 c 2,7,-1
 1397 -203 l 1,8,9
 1421 -213 1421 -213 1421 -240 c 0,10,11
 1421 -257 1421 -257 1409 -269 c 128,-1,12
 1397 -281 1397 -281 1380 -281 c 0,13,14
 1370 -281 1370 -281 1366 -279 c 2,15,-1
 197 274 l 1,0,1
190 676 m 1,16,17
 170 682 170 682 170 711 c 0,18,19
 170 737 170 737 197 748 c 1,20,-1
 1366 1300 l 1,21,22
 1370 1303 1370 1303 1380 1303 c 0,23,24
 1397 1303 1397 1303 1409 1291 c 128,-1,25
 1421 1279 1421 1279 1421 1262 c 0,26,27
 1421 1235 1421 1235 1397 1225 c 1,28,-1
 307 711 l 1,29,-1
 1403 193 l 1,30,31
 1421 183 1421 183 1421 158 c 0,32,33
 1421 140 1421 140 1409 128.5 c 128,-1,34
 1397 117 1397 117 1380 117 c 0,35,36
 1370 117 1370 117 1366 121 c 1,37,-1
 190 676 l 1,16,17
EndSplineSet
EndChar

StartChar: seven
Encoding: 55 55 26
Width: 1591
GlyphClass: 2
Flags: W
LayerCount: 2
Fore
SplineSet
88 -473 m 0,0,1
 88 -444 88 -444 115 -434 c 2,2,-1
 1343 18 l 1,3,-1
 115 471 l 2,4,5
 88 481 88 481 88 510 c 0,6,7
 88 524 88 524 99.5 537.5 c 128,-1,8
 111 551 111 551 129 551 c 0,9,10
 133 551 133 551 145 547 c 2,11,-1
 1477 57 l 2,12,13
 1503 47 1503 47 1503 18 c 0,14,15
 1503 -10 1503 -10 1477 -20 c 2,16,-1
 139 -512 l 2,17,18
 135 -514 135 -514 129 -514 c 0,19,20
 111 -514 111 -514 99.5 -501.5 c 128,-1,21
 88 -489 88 -489 88 -473 c 0,0,1
115 825 m 2,22,23
 88 835 88 835 88 864 c 0,24,25
 88 891 88 891 115 901 c 2,26,-1
 1452 1395 l 1,27,-1
 1462 1395 l 2,28,29
 1479 1395 1479 1395 1491 1383 c 128,-1,30
 1503 1371 1503 1371 1503 1354 c 0,31,32
 1503 1324 1503 1324 1477 1317 c 1,33,-1
 248 864 l 1,34,-1
 1477 412 l 2,35,36
 1503 402 1503 402 1503 373 c 0,37,38
 1503 355 1503 355 1491 343.5 c 128,-1,39
 1479 332 1479 332 1462 332 c 0,40,41
 1458 332 1458 332 1446 336 c 2,42,-1
 115 825 l 2,22,23
EndSplineSet
EndChar

StartChar: eight
Encoding: 56 56 27
Width: 563
GlyphClass: 2
Flags: W
LayerCount: 2
Fore
SplineSet
406 102 m 1,0,-1
 35 987 l 2,1,2
 25 1010 25 1010 25 1034 c 0,3,4
 25 1081 25 1081 62 1113 c 128,-1,5
 99 1145 99 1145 145 1145 c 0,6,7
 183 1145 183 1145 212 1122 c 128,-1,8
 241 1099 241 1099 252 1061 c 2,9,-1
 502 135 l 1,10,-1
 502 129 l 2,11,12
 502 114 502 114 489 111 c 1,13,14
 476 106 476 106 470 103 c 128,-1,15
 464 100 464 100 455 96 c 128,-1,16
 446 92 446 92 439.5 90 c 128,-1,17
 433 88 433 88 424 88 c 0,18,19
 413 88 413 88 406 102 c 1,0,-1
EndSplineSet
EndChar

StartChar: nine
Encoding: 57 57 28
Width: 1024
GlyphClass: 2
Flags: W
LayerCount: 2
Fore
SplineSet
209 471 m 2,0,1
 192 471 192 471 181 484 c 128,-1,2
 170 497 170 497 170 512 c 256,3,4
 170 527 170 527 181 540 c 128,-1,5
 192 553 192 553 209 553 c 2,6,-1
 817 553 l 2,7,8
 833 553 833 553 843.5 540 c 128,-1,9
 854 527 854 527 854 512 c 256,10,11
 854 497 854 497 843.5 484 c 128,-1,12
 833 471 833 471 817 471 c 2,13,-1
 209 471 l 2,0,1
EndSplineSet
EndChar

StartChar: colon
Encoding: 58 58 29
Width: 1591
GlyphClass: 2
Flags: W
LayerCount: 2
Fore
SplineSet
43 -84 m 0,0,1
 43 -55 43 -55 58 -29 c 128,-1,2
 73 -3 73 -3 99.5 13 c 128,-1,3
 126 29 126 29 156 29 c 0,4,5
 185 29 185 29 211.5 13 c 128,-1,6
 238 -3 238 -3 253 -29 c 128,-1,7
 268 -55 268 -55 268 -84 c 0,8,9
 268 -130 268 -130 235.5 -163.5 c 128,-1,10
 203 -197 203 -197 156 -197 c 0,11,12
 110 -197 110 -197 76.5 -163.5 c 128,-1,13
 43 -130 43 -130 43 -84 c 0,0,1
154 272 m 2,14,15
 137 272 137 272 126 285 c 128,-1,16
 115 298 115 298 115 313 c 0,17,18
 115 330 115 330 126 342 c 128,-1,19
 137 354 137 354 154 354 c 2,20,-1
 1440 354 l 2,21,22
 1455 354 1455 354 1466 342 c 128,-1,23
 1477 330 1477 330 1477 313 c 0,24,25
 1477 298 1477 298 1466 285 c 128,-1,26
 1455 272 1455 272 1440 272 c 2,27,-1
 154 272 l 2,14,15
154 670 m 2,28,29
 137 670 137 670 126 682 c 128,-1,30
 115 694 115 694 115 711 c 0,31,32
 115 726 115 726 126 739 c 128,-1,33
 137 752 137 752 154 752 c 2,34,-1
 1440 752 l 2,35,36
 1455 752 1455 752 1466 739 c 128,-1,37
 1477 726 1477 726 1477 711 c 0,38,39
 1477 694 1477 694 1466 682 c 128,-1,40
 1455 670 1455 670 1440 670 c 2,41,-1
 154 670 l 2,28,29
1323 1108 m 0,42,43
 1323 1137 1323 1137 1338 1163 c 128,-1,44
 1353 1189 1353 1189 1379.5 1205 c 128,-1,45
 1406 1221 1406 1221 1436 1221 c 0,46,47
 1465 1221 1465 1221 1491.5 1205 c 128,-1,48
 1518 1189 1518 1189 1533 1163 c 128,-1,49
 1548 1137 1548 1137 1548 1108 c 0,50,51
 1548 1062 1548 1062 1515.5 1028.5 c 128,-1,52
 1483 995 1483 995 1436 995 c 0,53,54
 1390 995 1390 995 1356.5 1028.5 c 128,-1,55
 1323 1062 1323 1062 1323 1108 c 0,42,43
EndSplineSet
EndChar

StartChar: semicolon
Encoding: 59 59 30
Width: 1591
GlyphClass: 2
Flags: W
LayerCount: 2
Fore
SplineSet
1323 -84 m 0,0,1
 1323 -55 1323 -55 1338 -29 c 128,-1,2
 1353 -3 1353 -3 1379.5 13 c 128,-1,3
 1406 29 1406 29 1436 29 c 0,4,5
 1465 29 1465 29 1491.5 13 c 128,-1,6
 1518 -3 1518 -3 1533 -29 c 128,-1,7
 1548 -55 1548 -55 1548 -84 c 0,8,9
 1548 -130 1548 -130 1515.5 -163.5 c 128,-1,10
 1483 -197 1483 -197 1436 -197 c 0,11,12
 1390 -197 1390 -197 1356.5 -163.5 c 128,-1,13
 1323 -130 1323 -130 1323 -84 c 0,0,1
154 272 m 2,14,15
 137 272 137 272 126 285 c 128,-1,16
 115 298 115 298 115 313 c 0,17,18
 115 330 115 330 126 342 c 128,-1,19
 137 354 137 354 154 354 c 2,20,-1
 1440 354 l 2,21,22
 1455 354 1455 354 1466 342 c 128,-1,23
 1477 330 1477 330 1477 313 c 0,24,25
 1477 298 1477 298 1466 285 c 128,-1,26
 1455 272 1455 272 1440 272 c 2,27,-1
 154 272 l 2,14,15
154 670 m 2,28,29
 137 670 137 670 126 682 c 128,-1,30
 115 694 115 694 115 711 c 0,31,32
 115 726 115 726 126 739 c 128,-1,33
 137 752 137 752 154 752 c 2,34,-1
 1440 752 l 2,35,36
 1455 752 1455 752 1466 739 c 128,-1,37
 1477 726 1477 726 1477 711 c 0,38,39
 1477 694 1477 694 1466 682 c 128,-1,40
 1455 670 1455 670 1440 670 c 2,41,-1
 154 670 l 2,28,29
43 1108 m 0,42,43
 43 1137 43 1137 58 1163 c 128,-1,44
 73 1189 73 1189 99.5 1205 c 128,-1,45
 126 1221 126 1221 156 1221 c 0,46,47
 185 1221 185 1221 211.5 1205 c 128,-1,48
 238 1189 238 1189 253 1163 c 128,-1,49
 268 1137 268 1137 268 1108 c 0,50,51
 268 1062 268 1062 235.5 1028.5 c 128,-1,52
 203 995 203 995 156 995 c 0,53,54
 110 995 110 995 76.5 1028.5 c 128,-1,55
 43 1062 43 1062 43 1108 c 0,42,43
EndSplineSet
EndChar

StartChar: less
Encoding: 60 60 31
Width: 1591
GlyphClass: 2
Flags: W
LayerCount: 2
Fore
SplineSet
438 -315 m 256,0,1
 421 -315 421 -315 409 -302 c 128,-1,2
 397 -289 397 -289 397 -272 c 1,3,4
 414 -108 414 -108 510.5 8 c 128,-1,5
 607 124 607 124 752.5 192.5 c 128,-1,6
 898 261 898 261 1059.5 290 c 128,-1,7
 1221 319 1221 319 1378 319 c 0,8,9
 1395 319 1395 319 1408 308 c 128,-1,10
 1421 297 1421 297 1421 279 c 0,11,12
 1421 262 1421 262 1410.5 250 c 128,-1,13
 1400 238 1400 238 1384 238 c 0,14,15
 1240 238 1240 238 1094 214 c 128,-1,16
 948 190 948 190 812.5 132 c 128,-1,17
 677 74 677 74 586 -29 c 128,-1,18
 495 -132 495 -132 479 -279 c 0,19,20
 477 -295 477 -295 466 -305 c 128,-1,21
 455 -315 455 -315 438 -315 c 256,0,1
211 0 m 0,22,23
 192 0 192 0 181 13 c 128,-1,24
 170 26 170 26 170 45 c 1,25,26
 196 287 196 287 379.5 416 c 128,-1,27
 563 545 563 545 834 594 c 1,28,29
 216 703 216 703 170 1143 c 1,30,31
 170 1160 170 1160 181 1173 c 128,-1,32
 192 1186 192 1186 211 1186 c 0,33,34
 228 1186 228 1186 239.5 1174.5 c 128,-1,35
 251 1163 251 1163 252 1149 c 0,36,37
 274 926 274 926 463 811.5 c 128,-1,38
 652 697 652 697 887.5 666 c 128,-1,39
 1123 635 1123 635 1384 635 c 0,40,41
 1399 635 1399 635 1410 621.5 c 128,-1,42
 1421 608 1421 608 1421 594 c 0,43,44
 1421 577 1421 577 1410.5 565 c 128,-1,45
 1400 553 1400 553 1384 553 c 0,46,47
 1122 553 1122 553 886.5 521 c 128,-1,48
 651 489 651 489 463 375.5 c 128,-1,49
 275 262 275 262 252 39 c 0,50,51
 251 23 251 23 239.5 11.5 c 128,-1,52
 228 0 228 0 211 0 c 0,22,23
EndSplineSet
EndChar

StartChar: equal
Encoding: 61 61 32
Width: 1591
GlyphClass: 2
Flags: W
LayerCount: 2
Fore
SplineSet
209 -356 m 2,0,1
 192 -356 192 -356 181 -344 c 128,-1,2
 170 -332 170 -332 170 -315 c 0,3,4
 170 -300 170 -300 181 -287 c 128,-1,5
 192 -274 192 -274 209 -274 c 2,6,-1
 1384 -274 l 2,7,8
 1400 -274 1400 -274 1410.5 -287 c 128,-1,9
 1421 -300 1421 -300 1421 -315 c 0,10,11
 1421 -332 1421 -332 1410.5 -344 c 128,-1,12
 1400 -356 1400 -356 1384 -356 c 2,13,-1
 209 -356 l 2,0,1
209 41 m 2,14,15
 192 41 192 41 181 53 c 128,-1,16
 170 65 170 65 170 82 c 0,17,18
 170 97 170 97 181 110 c 128,-1,19
 192 123 192 123 209 123 c 2,20,-1
 1384 123 l 2,21,22
 1400 123 1400 123 1410.5 110 c 128,-1,23
 1421 97 1421 97 1421 82 c 0,24,25
 1421 65 1421 65 1410.5 53 c 128,-1,26
 1400 41 1400 41 1384 41 c 2,27,-1
 209 41 l 2,14,15
170 397 m 0,28,29
 170 423 170 423 197 436 c 2,30,-1
 1284 950 l 1,31,-1
 190 1466 l 2,32,33
 170 1476 170 1476 170 1501 c 0,34,35
 170 1518 170 1518 181 1530 c 128,-1,36
 192 1542 192 1542 211 1542 c 0,37,38
 221 1542 221 1542 227 1540 c 2,39,-1
 1403 985 l 2,40,41
 1421 976 1421 976 1421 950 c 0,42,43
 1421 926 1421 926 1397 911 c 1,44,-1
 227 360 l 1,45,46
 221 356 221 356 211 356 c 0,47,48
 194 356 194 356 182 369 c 128,-1,49
 170 382 170 382 170 397 c 0,28,29
EndSplineSet
EndChar

StartChar: greater
Encoding: 62 62 33
Width: 1591
GlyphClass: 2
Flags: W
LayerCount: 2
Fore
SplineSet
170 -240 m 0,0,1
 170 -214 170 -214 190 -205 c 2,2,-1
 1366 350 l 2,3,4
 1370 352 1370 352 1380 352 c 0,5,6
 1398 352 1398 352 1409.5 341 c 128,-1,7
 1421 330 1421 330 1421 311 c 0,8,9
 1421 287 1421 287 1403 276 c 1,10,-1
 227 -279 l 2,11,12
 221 -281 221 -281 211 -281 c 0,13,14
 194 -281 194 -281 182 -268 c 128,-1,15
 170 -255 170 -255 170 -240 c 0,0,1
170 158 m 0,16,17
 170 183 170 183 197 197 c 1,18,-1
 1284 711 l 1,19,-1
 190 1227 l 2,20,21
 170 1236 170 1236 170 1262 c 0,22,23
 170 1277 170 1277 182 1290 c 128,-1,24
 194 1303 194 1303 211 1303 c 0,25,26
 221 1303 221 1303 227 1300 c 2,27,-1
 1403 745 l 2,28,29
 1421 736 1421 736 1421 711 c 256,30,31
 1421 686 1421 686 1397 672 c 1,32,-1
 227 121 l 1,33,34
 221 117 221 117 211 117 c 0,35,36
 194 117 194 117 182 129 c 128,-1,37
 170 141 170 141 170 158 c 0,16,17
EndSplineSet
EndChar

StartChar: question
Encoding: 63 63 34
Width: 1591
GlyphClass: 2
Flags: W
LayerCount: 2
Fore
SplineSet
197 -20 m 1,0,1
 170 -10 170 -10 170 18 c 0,2,3
 170 45 170 45 197 55 c 1,4,-1
 1366 547 l 2,5,6
 1370 549 1370 549 1380 549 c 0,7,8
 1397 549 1397 549 1409 537 c 128,-1,9
 1421 525 1421 525 1421 508 c 0,10,11
 1421 481 1421 481 1397 471 c 2,12,-1
 317 18 l 1,13,-1
 1397 -434 l 1,14,15
 1421 -448 1421 -448 1421 -473 c 0,16,17
 1421 -491 1421 -491 1409 -502.5 c 128,-1,18
 1397 -514 1397 -514 1380 -514 c 0,19,20
 1370 -514 1370 -514 1366 -510 c 1,21,-1
 197 -20 l 1,0,1
170 373 m 0,22,23
 170 398 170 398 197 412 c 1,24,-1
 1274 864 l 1,25,-1
 197 1317 l 1,26,27
 170 1327 170 1327 170 1354 c 0,28,29
 170 1369 170 1369 182 1382 c 128,-1,30
 194 1395 194 1395 211 1395 c 0,31,32
 221 1395 221 1395 227 1393 c 2,33,-1
 1397 901 l 2,34,35
 1421 891 1421 891 1421 864 c 0,36,37
 1421 835 1421 835 1397 825 c 2,38,-1
 227 336 l 1,39,40
 221 332 221 332 211 332 c 0,41,42
 194 332 194 332 182 344 c 128,-1,43
 170 356 170 356 170 373 c 0,22,23
EndSplineSet
EndChar

StartChar: at
Encoding: 64 64 35
Width: 1591
GlyphClass: 2
Flags: W
LayerCount: 2
Fore
SplineSet
170 -45 m 2,0,-1
 170 1067 l 2,1,2
 170 1080 170 1080 182 1092 c 128,-1,3
 194 1104 194 1104 209 1104 c 2,4,-1
 1384 1104 l 2,5,6
 1400 1104 1400 1104 1410.5 1091 c 128,-1,7
 1421 1078 1421 1078 1421 1063 c 0,8,9
 1421 1046 1421 1046 1410.5 1034 c 128,-1,10
 1400 1022 1400 1022 1384 1022 c 2,11,-1
 252 1022 l 1,12,-1
 252 0 l 1,13,-1
 1384 0 l 2,14,15
 1400 0 1400 0 1410.5 -12 c 128,-1,16
 1421 -24 1421 -24 1421 -41 c 0,17,18
 1421 -56 1421 -56 1410.5 -69 c 128,-1,19
 1400 -82 1400 -82 1384 -82 c 2,20,-1
 209 -82 l 2,21,22
 194 -82 194 -82 182 -70 c 128,-1,23
 170 -58 170 -58 170 -45 c 2,0,-1
EndSplineSet
EndChar

StartChar: A
Encoding: 65 65 36
Width: 1591
GlyphClass: 2
Flags: W
LayerCount: 2
Fore
SplineSet
168 -82 m 2,0,1
 151 -82 151 -82 140 -69 c 128,-1,2
 129 -56 129 -56 129 -41 c 0,3,4
 129 -24 129 -24 140 -12 c 128,-1,5
 151 0 151 0 168 0 c 2,6,-1
 1380 0 l 1,7,-1
 1380 1022 l 1,8,-1
 168 1022 l 2,9,10
 151 1022 151 1022 140 1034 c 128,-1,11
 129 1046 129 1046 129 1063 c 0,12,13
 129 1078 129 1078 140 1091 c 128,-1,14
 151 1104 151 1104 168 1104 c 2,15,-1
 1425 1104 l 2,16,17
 1439 1104 1439 1104 1450.5 1092.5 c 128,-1,18
 1462 1081 1462 1081 1462 1067 c 2,19,-1
 1462 -45 l 2,20,21
 1462 -59 1462 -59 1450.5 -70.5 c 128,-1,22
 1439 -82 1439 -82 1425 -82 c 2,23,-1
 168 -82 l 2,0,1
EndSplineSet
EndChar

StartChar: B
Encoding: 66 66 37
Width: 1591
GlyphClass: 2
Flags: W
LayerCount: 2
Fore
SplineSet
170 -45 m 2,0,-1
 170 1067 l 2,1,2
 170 1082 170 1082 182 1093 c 128,-1,3
 194 1104 194 1104 211 1104 c 0,4,5
 221 1104 221 1104 227 1102 c 2,6,-1
 1397 549 l 1,7,8
 1421 539 1421 539 1421 512 c 0,9,10
 1421 483 1421 483 1403 477 c 1,11,-1
 227 -80 l 2,12,13
 221 -82 221 -82 211 -82 c 0,14,15
 194 -82 194 -82 182 -71.5 c 128,-1,16
 170 -61 170 -61 170 -45 c 2,0,-1
252 23 m 1,17,-1
 1284 512 l 1,18,-1
 252 999 l 1,19,-1
 252 23 l 1,17,-1
EndSplineSet
EndChar

StartChar: C
Encoding: 67 67 38
Width: 1591
GlyphClass: 2
Flags: W
LayerCount: 2
Fore
SplineSet
197 473 m 2,0,1
 170 486 170 486 170 512 c 256,2,3
 170 538 170 538 190 547 c 2,4,-1
 1366 1102 l 2,5,6
 1370 1104 1370 1104 1380 1104 c 0,7,8
 1397 1104 1397 1104 1409 1093 c 128,-1,9
 1421 1082 1421 1082 1421 1067 c 2,10,-1
 1421 -45 l 2,11,12
 1421 -61 1421 -61 1409 -71.5 c 128,-1,13
 1397 -82 1397 -82 1380 -82 c 0,14,15
 1370 -82 1370 -82 1366 -80 c 2,16,-1
 197 473 l 2,0,1
307 512 m 1,17,-1
 1339 23 l 1,18,-1
 1339 999 l 1,19,-1
 307 512 l 1,17,-1
EndSplineSet
EndChar

StartChar: D
Encoding: 68 68 39
Width: 1591
GlyphClass: 2
Flags: W
LayerCount: 2
Fore
SplineSet
209 -281 m 2,0,1
 192 -281 192 -281 181 -268 c 128,-1,2
 170 -255 170 -255 170 -240 c 0,3,4
 170 -223 170 -223 181 -211 c 128,-1,5
 192 -199 192 -199 209 -199 c 2,6,-1
 1384 -199 l 2,7,8
 1400 -199 1400 -199 1410.5 -211 c 128,-1,9
 1421 -223 1421 -223 1421 -240 c 0,10,11
 1421 -255 1421 -255 1410.5 -268 c 128,-1,12
 1400 -281 1400 -281 1384 -281 c 2,13,-1
 209 -281 l 2,0,1
170 156 m 2,14,-1
 170 1268 l 2,15,16
 170 1283 170 1283 182 1294 c 128,-1,17
 194 1305 194 1305 211 1305 c 0,18,19
 221 1305 221 1305 227 1303 c 2,20,-1
 1397 750 l 2,21,22
 1421 738 1421 738 1421 713 c 0,23,24
 1421 684 1421 684 1403 678 c 1,25,-1
 227 121 l 2,26,27
 221 119 221 119 211 119 c 0,28,29
 194 119 194 119 182 129.5 c 128,-1,30
 170 140 170 140 170 156 c 2,14,-1
252 221 m 1,31,-1
 1284 711 l 1,32,-1
 252 1198 l 1,33,-1
 252 221 l 1,31,-1
EndSplineSet
EndChar

StartChar: E
Encoding: 69 69 40
Width: 1591
GlyphClass: 2
Flags: W
LayerCount: 2
Fore
SplineSet
209 -281 m 2,0,1
 192 -281 192 -281 181 -268 c 128,-1,2
 170 -255 170 -255 170 -240 c 0,3,4
 170 -223 170 -223 181 -211 c 128,-1,5
 192 -199 192 -199 209 -199 c 2,6,-1
 1384 -199 l 2,7,8
 1400 -199 1400 -199 1410.5 -211 c 128,-1,9
 1421 -223 1421 -223 1421 -240 c 0,10,11
 1421 -255 1421 -255 1410.5 -268 c 128,-1,12
 1400 -281 1400 -281 1384 -281 c 2,13,-1
 209 -281 l 2,0,1
197 672 m 2,14,15
 170 685 170 685 170 711 c 0,16,17
 170 736 170 736 190 745 c 2,18,-1
 1366 1300 l 1,19,20
 1370 1303 1370 1303 1380 1303 c 0,21,22
 1397 1303 1397 1303 1409 1292 c 128,-1,23
 1421 1281 1421 1281 1421 1266 c 2,24,-1
 1421 154 l 2,25,26
 1421 138 1421 138 1409 127.5 c 128,-1,27
 1397 117 1397 117 1380 117 c 0,28,29
 1370 117 1370 117 1366 119 c 2,30,-1
 197 672 l 2,14,15
307 711 m 1,31,-1
 1339 221 l 1,32,-1
 1339 1198 l 1,33,-1
 307 711 l 1,31,-1
EndSplineSet
EndChar

StartChar: F
Encoding: 70 70 41
Width: 1933
GlyphClass: 2
Flags: W
LayerCount: 2
Fore
SplineSet
422 -201 m 1,0,-1
 618 399 l 1,1,-1
 109 768 l 2,2,3
 100 775 100 775 100 786 c 0,4,5
 100 793 100 793 107 801 c 128,-1,6
 114 809 114 809 121 809 c 2,7,-1
 752 809 l 1,8,-1
 944 1403 l 1,9,10
 951 1421 951 1421 967 1421 c 0,11,12
 982 1421 982 1421 989 1403 c 1,13,-1
 1182 809 l 1,14,-1
 1812 809 l 2,15,16
 1820 809 1820 809 1826.5 802 c 128,-1,17
 1833 795 1833 795 1833 786 c 0,18,19
 1833 776 1833 776 1825 768 c 1,20,-1
 1315 399 l 1,21,-1
 1511 -201 l 1,22,23
 1511 -227 1511 -227 1489 -227 c 0,24,25
 1481 -227 1481 -227 1477 -225 c 2,26,-1
 967 145 l 1,27,-1
 459 -223 l 1,28,29
 451 -227 451 -227 444 -227 c 0,30,31
 422 -227 422 -227 422 -201 c 1,0,-1
EndSplineSet
EndChar

StartChar: G
Encoding: 71 71 42
Width: 1024
GlyphClass: 2
Flags: W
LayerCount: 2
Fore
SplineSet
201 -481 m 0,0,1
 201 -465 201 -465 213 -459 c 0,2,3
 351 -381 351 -381 465 -264 c 1,4,5
 367 -158 367 -158 296.5 -32 c 128,-1,6
 226 94 226 94 189 232.5 c 128,-1,7
 152 371 152 371 152 512 c 0,8,9
 152 727 152 727 233.5 927 c 128,-1,10
 315 1127 315 1127 465 1288 c 1,11,12
 351 1405 351 1405 213 1483 c 0,13,14
 201 1489 201 1489 201 1505 c 0,15,16
 201 1516 201 1516 210 1526 c 128,-1,17
 219 1536 219 1536 231 1536 c 0,18,19
 260 1536 260 1536 363.5 1457 c 128,-1,20
 467 1378 467 1378 512 1335 c 1,21,22
 559 1379 559 1379 661 1457.5 c 128,-1,23
 763 1536 763 1536 791 1536 c 0,24,25
 804 1536 804 1536 812.5 1527 c 128,-1,26
 821 1518 821 1518 821 1505 c 0,27,28
 821 1489 821 1489 809 1483 c 0,29,30
 671 1405 671 1405 557 1288 c 1,31,32
 655 1182 655 1182 725.5 1056 c 128,-1,33
 796 930 796 930 833 791.5 c 128,-1,34
 870 653 870 653 870 512 c 256,35,36
 870 371 870 371 833 232.5 c 128,-1,37
 796 94 796 94 725.5 -32 c 128,-1,38
 655 -158 655 -158 557 -264 c 1,39,40
 671 -381 671 -381 809 -459 c 0,41,42
 821 -465 821 -465 821 -481 c 0,43,44
 821 -494 821 -494 812 -503 c 128,-1,45
 803 -512 803 -512 791 -512 c 0,46,47
 763 -512 763 -512 669.5 -440 c 128,-1,48
 576 -368 576 -368 512 -311 c 1,49,50
 452 -365 452 -365 356 -438.5 c 128,-1,51
 260 -512 260 -512 231 -512 c 0,52,53
 221 -512 221 -512 211 -502 c 128,-1,54
 201 -492 201 -492 201 -481 c 0,0,1
512 -211 m 1,55,56
 595 -111 595 -111 653.5 7.5 c 128,-1,57
 712 126 712 126 741 254 c 128,-1,58
 770 382 770 382 770 512 c 256,59,60
 770 642 770 642 741 770 c 128,-1,61
 712 898 712 898 653.5 1016.5 c 128,-1,62
 595 1135 595 1135 512 1235 c 1,63,64
 386 1087 386 1087 319 898 c 128,-1,65
 252 709 252 709 252 512 c 0,66,67
 252 382 252 382 282 252.5 c 128,-1,68
 312 123 312 123 369.5 6.5 c 128,-1,69
 427 -110 427 -110 512 -211 c 1,55,56
EndSplineSet
EndChar

StartChar: H
Encoding: 72 72 43
Width: 1479
GlyphClass: 2
Flags: W
LayerCount: 2
Fore
SplineSet
700 -16 m 2,0,-1
 174 1124 l 2,1,2
 170 1132 170 1132 170 1139 c 0,3,4
 170 1154 170 1154 181 1167 c 128,-1,5
 192 1180 192 1180 209 1180 c 2,6,-1
 1268 1180 l 2,7,8
 1285 1180 1285 1180 1296 1167 c 128,-1,9
 1307 1154 1307 1154 1307 1139 c 0,10,11
 1307 1132 1307 1132 1303 1124 c 2,12,-1
 776 -16 l 1,13,14
 766 -41 766 -41 739 -41 c 256,15,16
 712 -41 712 -41 700 -16 c 2,0,-1
EndSplineSet
EndChar

StartChar: I
Encoding: 73 73 44
Width: 1591
GlyphClass: 2
Flags: W
LayerCount: 2
Fore
SplineSet
170 -45 m 2,0,-1
 170 1067 l 2,1,2
 170 1082 170 1082 182 1093 c 128,-1,3
 194 1104 194 1104 211 1104 c 0,4,5
 221 1104 221 1104 227 1102 c 2,6,-1
 1397 549 l 1,7,8
 1421 539 1421 539 1421 512 c 0,9,10
 1421 483 1421 483 1403 477 c 1,11,-1
 227 -80 l 2,12,13
 221 -82 221 -82 211 -82 c 0,14,15
 194 -82 194 -82 182 -71.5 c 128,-1,16
 170 -61 170 -61 170 -45 c 2,0,-1
EndSplineSet
EndChar

StartChar: J
Encoding: 74 74 45
Width: 1591
GlyphClass: 2
Flags: W
LayerCount: 2
Fore
SplineSet
197 473 m 2,0,1
 170 486 170 486 170 512 c 256,2,3
 170 538 170 538 190 547 c 2,4,-1
 1366 1102 l 2,5,6
 1370 1104 1370 1104 1380 1104 c 0,7,8
 1397 1104 1397 1104 1409 1093 c 128,-1,9
 1421 1082 1421 1082 1421 1067 c 2,10,-1
 1421 -45 l 2,11,12
 1421 -61 1421 -61 1409 -71.5 c 128,-1,13
 1397 -82 1397 -82 1380 -82 c 0,14,15
 1370 -82 1370 -82 1366 -80 c 2,16,-1
 197 473 l 2,0,1
EndSplineSet
EndChar

StartChar: K
Encoding: 75 75 46
Width: 1024
GlyphClass: 2
Flags: W
LayerCount: 2
Fore
SplineSet
395 170 m 0,0,1
 395 212 395 212 461.5 314 c 128,-1,2
 528 416 528 416 571 461 c 1,3,-1
 166 461 l 1,4,5
 125 467 125 467 119 510 c 1,6,7
 119 531 119 531 131.5 545.5 c 128,-1,8
 144 560 144 560 168 563 c 1,9,-1
 571 563 l 1,10,11
 527 611 527 611 461 711.5 c 128,-1,12
 395 812 395 812 395 854 c 0,13,14
 395 868 395 868 406.5 881.5 c 128,-1,15
 418 895 418 895 432 895 c 2,16,-1
 510 895 l 2,17,18
 538 895 538 895 545 868 c 1,19,20
 586 762 586 762 660.5 680 c 128,-1,21
 735 598 735 598 836 547 c 0,22,23
 854 538 854 538 854 512 c 256,24,25
 854 486 854 486 836 477 c 0,26,27
 739 429 739 429 662 344.5 c 128,-1,28
 585 260 585 260 545 156 c 1,29,30
 538 129 538 129 510 129 c 2,31,-1
 432 129 l 2,32,33
 418 129 418 129 406.5 142.5 c 128,-1,34
 395 156 395 156 395 170 c 0,0,1
EndSplineSet
EndChar

StartChar: L
Encoding: 76 76 47
Width: 1024
GlyphClass: 2
Flags: W
LayerCount: 2
Fore
SplineSet
438 156 m 1,0,1
 400 257 400 257 323 343 c 128,-1,2
 246 429 246 429 150 477 c 1,3,4
 129 485 129 485 129 512 c 256,5,6
 129 539 129 539 150 547 c 1,7,8
 249 598 249 598 324 681.5 c 128,-1,9
 399 765 399 765 438 868 c 1,10,11
 445 895 445 895 473 895 c 2,12,-1
 551 895 l 2,13,14
 565 895 565 895 576.5 881.5 c 128,-1,15
 588 868 588 868 588 854 c 0,16,17
 588 812 588 812 522.5 711 c 128,-1,18
 457 610 457 610 412 563 c 1,19,-1
 817 563 l 1,20,21
 858 557 858 557 864 516 c 1,22,23
 864 467 864 467 817 461 c 1,24,-1
 412 461 l 1,25,26
 434 439 434 439 479 376.5 c 128,-1,27
 524 314 524 314 556 257 c 128,-1,28
 588 200 588 200 588 170 c 0,29,30
 588 156 588 156 576.5 142.5 c 128,-1,31
 565 129 565 129 551 129 c 2,32,-1
 473 129 l 2,33,34
 445 129 445 129 438 156 c 1,0,1
EndSplineSet
EndChar

StartChar: M
Encoding: 77 77 48
Width: 1479
GlyphClass: 2
Flags: W
LayerCount: 2
Fore
SplineSet
209 -41 m 2,0,1
 192 -41 192 -41 181 -28 c 128,-1,2
 170 -15 170 -15 170 0 c 0,3,4
 170 4 170 4 174 16 c 1,5,-1
 700 1155 l 2,6,7
 712 1180 712 1180 739 1180 c 0,8,9
 765 1180 765 1180 776 1155 c 2,10,-1
 1303 16 l 1,11,12
 1307 4 1307 4 1307 0 c 0,13,14
 1307 -15 1307 -15 1296 -28 c 128,-1,15
 1285 -41 1285 -41 1268 -41 c 2,16,-1
 209 -41 l 2,0,1
276 41 m 1,17,-1
 1200 41 l 1,18,-1
 739 1042 l 1,19,-1
 276 41 l 1,17,-1
EndSplineSet
EndChar

StartChar: N
Encoding: 78 78 49
Width: 1479
GlyphClass: 2
Flags: W
LayerCount: 2
Fore
SplineSet
209 -41 m 2,0,1
 192 -41 192 -41 181 -28 c 128,-1,2
 170 -15 170 -15 170 0 c 0,3,4
 170 4 170 4 174 16 c 1,5,-1
 700 1155 l 2,6,7
 712 1180 712 1180 739 1180 c 0,8,9
 765 1180 765 1180 776 1155 c 2,10,-1
 1303 16 l 1,11,12
 1307 4 1307 4 1307 0 c 0,13,14
 1307 -15 1307 -15 1296 -28 c 128,-1,15
 1285 -41 1285 -41 1268 -41 c 2,16,-1
 209 -41 l 2,0,1
EndSplineSet
EndChar

StartChar: O
Encoding: 79 79 50
Width: 1479
GlyphClass: 2
Flags: W
LayerCount: 2
Fore
SplineSet
700 -16 m 2,0,-1
 174 1124 l 2,1,2
 170 1132 170 1132 170 1139 c 0,3,4
 170 1154 170 1154 181 1167 c 128,-1,5
 192 1180 192 1180 209 1180 c 2,6,-1
 1268 1180 l 2,7,8
 1285 1180 1285 1180 1296 1167 c 128,-1,9
 1307 1154 1307 1154 1307 1139 c 0,10,11
 1307 1132 1307 1132 1303 1124 c 2,12,-1
 776 -16 l 1,13,14
 766 -41 766 -41 739 -41 c 256,15,16
 712 -41 712 -41 700 -16 c 2,0,-1
739 98 m 1,17,-1
 1200 1098 l 1,18,-1
 276 1098 l 1,19,-1
 739 98 l 1,17,-1
EndSplineSet
EndChar

StartChar: P
Encoding: 80 80 51
Width: 1591
GlyphClass: 2
Flags: W
LayerCount: 2
Fore
SplineSet
154 272 m 2,0,1
 137 272 137 272 126 285 c 128,-1,2
 115 298 115 298 115 313 c 0,3,4
 115 330 115 330 126 342 c 128,-1,5
 137 354 137 354 154 354 c 2,6,-1
 641 354 l 1,7,8
 575 420 575 420 575 512 c 256,9,10
 575 604 575 604 641 670 c 1,11,-1
 154 670 l 2,12,13
 137 670 137 670 126 682 c 128,-1,14
 115 694 115 694 115 711 c 0,15,16
 115 726 115 726 126 739 c 128,-1,17
 137 752 137 752 154 752 c 2,18,-1
 1440 752 l 2,19,20
 1455 752 1455 752 1466 739 c 128,-1,21
 1477 726 1477 726 1477 711 c 0,22,23
 1477 694 1477 694 1466 682 c 128,-1,24
 1455 670 1455 670 1440 670 c 2,25,-1
 950 670 l 1,26,27
 1018 602 1018 602 1018 512 c 256,28,29
 1018 422 1018 422 950 354 c 1,30,-1
 1440 354 l 2,31,32
 1455 354 1455 354 1466 342 c 128,-1,33
 1477 330 1477 330 1477 313 c 0,34,35
 1477 298 1477 298 1466 285 c 128,-1,36
 1455 272 1455 272 1440 272 c 2,37,-1
 154 272 l 2,0,1
717 354 m 1,38,-1
 874 354 l 1,39,40
 918 376 918 376 944.5 419 c 128,-1,41
 971 462 971 462 971 512 c 0,42,43
 971 561 971 561 944 606 c 128,-1,44
 917 651 917 651 874 670 c 1,45,-1
 717 670 l 1,46,47
 672 649 672 649 646.5 605.5 c 128,-1,48
 621 562 621 562 621 512 c 0,49,50
 621 463 621 463 646.5 419 c 128,-1,51
 672 375 672 375 717 354 c 1,38,-1
EndSplineSet
EndChar

StartChar: Q
Encoding: 81 81 52
Width: 1591
GlyphClass: 2
Flags: W
LayerCount: 2
Fore
SplineSet
170 -750 m 0,0,1
 170 -719 170 -719 197 -713 c 1,2,-1
 1225 -317 l 1,3,-1
 197 78 l 1,4,5
 170 84 170 84 170 115 c 0,6,7
 170 130 170 130 182 143 c 128,-1,8
 194 156 194 156 211 156 c 0,9,10
 217 156 217 156 220 155.5 c 128,-1,11
 223 155 223 155 227 154 c 2,12,-1
 1356 -281 l 2,13,14
 1366 -284 1366 -284 1373 -294 c 128,-1,15
 1380 -304 1380 -304 1380 -317 c 0,16,17
 1380 -346 1380 -346 1356 -356 c 2,18,-1
 227 -788 l 2,19,20
 225 -788 225 -788 220 -789 c 128,-1,21
 215 -790 215 -790 211 -791 c 1,22,23
 194 -791 194 -791 182 -778 c 128,-1,24
 170 -765 170 -765 170 -750 c 0,0,1
209 471 m 2,25,26
 192 471 192 471 181 484 c 128,-1,27
 170 497 170 497 170 512 c 256,28,29
 170 527 170 527 181 540 c 128,-1,30
 192 553 192 553 209 553 c 2,31,-1
 1343 553 l 2,32,33
 1359 553 1359 553 1369.5 540 c 128,-1,34
 1380 527 1380 527 1380 512 c 256,35,36
 1380 497 1380 497 1369.5 484 c 128,-1,37
 1359 471 1359 471 1343 471 c 2,38,-1
 209 471 l 2,25,26
197 1305 m 1,39,40
 170 1311 170 1311 170 1341 c 0,41,42
 170 1370 170 1370 197 1380 c 2,43,-1
 1325 1812 l 2,44,45
 1328 1813 1328 1813 1332.5 1814 c 128,-1,46
 1337 1815 1337 1815 1339 1815 c 0,47,48
 1356 1815 1356 1815 1368 1803 c 128,-1,49
 1380 1791 1380 1791 1380 1774 c 0,50,51
 1380 1744 1380 1744 1356 1737 c 1,52,-1
 326 1341 l 1,53,-1
 1356 948 l 2,54,55
 1380 938 1380 938 1380 909 c 0,56,57
 1380 892 1380 892 1368 880 c 128,-1,58
 1356 868 1356 868 1339 868 c 0,59,60
 1333 868 1333 868 1325 872 c 2,61,-1
 197 1305 l 1,39,40
EndSplineSet
EndChar

StartChar: R
Encoding: 82 82 53
Width: 1591
GlyphClass: 2
Flags: W
LayerCount: 2
Fore
SplineSet
197 -356 m 1,0,1
 170 -350 170 -350 170 -319 c 0,2,3
 170 -291 170 -291 197 -281 c 2,4,-1
 1325 152 l 2,5,6
 1328 153 1328 153 1331 153.5 c 128,-1,7
 1334 154 1334 154 1339 154 c 0,8,9
 1356 154 1356 154 1368 142 c 128,-1,10
 1380 130 1380 130 1380 113 c 0,11,12
 1380 83 1380 83 1356 76 c 1,13,-1
 326 -319 l 1,14,-1
 1356 -713 l 2,15,16
 1380 -723 1380 -723 1380 -752 c 0,17,18
 1380 -769 1380 -769 1368 -781 c 128,-1,19
 1356 -793 1356 -793 1339 -793 c 0,20,21
 1332 -793 1332 -793 1325 -788 c 1,22,-1
 197 -356 l 1,0,1
209 471 m 2,23,24
 192 471 192 471 181 484 c 128,-1,25
 170 497 170 497 170 512 c 256,26,27
 170 527 170 527 181 540 c 128,-1,28
 192 553 192 553 209 553 c 2,29,-1
 1343 553 l 2,30,31
 1359 553 1359 553 1369.5 540 c 128,-1,32
 1380 527 1380 527 1380 512 c 256,33,34
 1380 497 1380 497 1369.5 484 c 128,-1,35
 1359 471 1359 471 1343 471 c 2,36,-1
 209 471 l 2,23,24
170 909 m 0,37,38
 170 940 170 940 197 946 c 1,39,-1
 1225 1341 l 1,40,-1
 197 1737 l 1,41,42
 170 1743 170 1743 170 1774 c 0,43,44
 170 1789 170 1789 182 1802 c 128,-1,45
 194 1815 194 1815 211 1815 c 0,46,47
 215 1815 215 1815 219 1814 c 128,-1,48
 223 1813 223 1813 227 1812 c 2,49,-1
 1356 1378 l 1,50,51
 1380 1371 1380 1371 1380 1341 c 0,52,53
 1380 1313 1380 1313 1356 1303 c 2,54,-1
 227 870 l 1,55,56
 222 870 222 870 218.5 869.5 c 128,-1,57
 215 869 215 869 211 868 c 1,58,59
 194 868 194 868 182 881 c 128,-1,60
 170 894 170 894 170 909 c 0,37,38
EndSplineSet
EndChar

StartChar: S
Encoding: 83 83 54
Width: 1591
GlyphClass: 2
Flags: W
LayerCount: 2
Fore
SplineSet
170 -907 m 0,0,1
 170 -876 170 -876 197 -870 c 1,2,-1
 1262 -475 l 1,3,-1
 197 -82 l 2,4,5
 170 -72 170 -72 170 -43 c 0,6,7
 170 -26 170 -26 181 -14 c 128,-1,8
 192 -2 192 -2 211 -2 c 0,9,10
 215 -2 215 -2 227 -6 c 2,11,-1
 1397 -438 l 1,12,13
 1421 -445 1421 -445 1421 -475 c 0,14,15
 1421 -504 1421 -504 1397 -514 c 1,16,-1
 227 -946 l 1,17,18
 222 -946 222 -946 218.5 -946.5 c 128,-1,19
 215 -947 215 -947 211 -948 c 1,20,21
 194 -948 194 -948 182 -936 c 128,-1,22
 170 -924 170 -924 170 -907 c 0,0,1
209 313 m 2,23,24
 192 313 192 313 181 326 c 128,-1,25
 170 339 170 339 170 354 c 0,26,27
 170 371 170 371 181 383 c 128,-1,28
 192 395 192 395 209 395 c 2,29,-1
 1384 395 l 2,30,31
 1400 395 1400 395 1410.5 383 c 128,-1,32
 1421 371 1421 371 1421 354 c 0,33,34
 1421 339 1421 339 1410.5 326 c 128,-1,35
 1400 313 1400 313 1384 313 c 2,36,-1
 209 313 l 2,23,24
209 711 m 2,37,38
 192 711 192 711 181 723 c 128,-1,39
 170 735 170 735 170 752 c 0,40,41
 170 767 170 767 181 780 c 128,-1,42
 192 793 192 793 209 793 c 2,43,-1
 1384 793 l 2,44,45
 1400 793 1400 793 1410.5 780 c 128,-1,46
 1421 767 1421 767 1421 752 c 0,47,48
 1421 735 1421 735 1410.5 723 c 128,-1,49
 1400 711 1400 711 1384 711 c 2,50,-1
 209 711 l 2,37,38
197 1544 m 1,51,52
 170 1550 170 1550 170 1581 c 0,53,54
 170 1610 170 1610 197 1620 c 2,55,-1
 1366 2052 l 2,56,57
 1369 2053 1369 2053 1372 2053.5 c 128,-1,58
 1375 2054 1375 2054 1380 2054 c 0,59,60
 1398 2054 1398 2054 1409.5 2043 c 128,-1,61
 1421 2032 1421 2032 1421 2013 c 0,62,63
 1421 1983 1421 1983 1397 1976 c 1,64,-1
 330 1581 l 1,65,-1
 1397 1188 l 1,66,67
 1421 1178 1421 1178 1421 1149 c 0,68,69
 1421 1131 1421 1131 1409 1119.5 c 128,-1,70
 1397 1108 1397 1108 1380 1108 c 0,71,72
 1374 1108 1374 1108 1366 1112 c 2,73,-1
 197 1544 l 1,51,52
EndSplineSet
EndChar

StartChar: T
Encoding: 84 84 55
Width: 1591
GlyphClass: 2
Flags: W
LayerCount: 2
Fore
SplineSet
197 -514 m 1,0,1
 170 -508 170 -508 170 -477 c 0,2,3
 170 -448 170 -448 197 -438 c 2,4,-1
 1366 -6 l 2,5,6
 1369 -5 1369 -5 1372 -4.5 c 128,-1,7
 1375 -4 1375 -4 1380 -4 c 0,8,9
 1397 -4 1397 -4 1409 -16 c 128,-1,10
 1421 -28 1421 -28 1421 -45 c 0,11,12
 1421 -75 1421 -75 1397 -82 c 1,13,-1
 330 -477 l 1,14,-1
 1397 -870 l 1,15,16
 1421 -882 1421 -882 1421 -909 c 0,17,18
 1421 -927 1421 -927 1409 -938.5 c 128,-1,19
 1397 -950 1397 -950 1380 -950 c 0,20,21
 1374 -950 1374 -950 1366 -946 c 2,22,-1
 197 -514 l 1,0,1
209 313 m 2,23,24
 192 313 192 313 181 326 c 128,-1,25
 170 339 170 339 170 354 c 0,26,27
 170 371 170 371 181 383 c 128,-1,28
 192 395 192 395 209 395 c 2,29,-1
 1384 395 l 2,30,31
 1400 395 1400 395 1410.5 383 c 128,-1,32
 1421 371 1421 371 1421 354 c 0,33,34
 1421 339 1421 339 1410.5 326 c 128,-1,35
 1400 313 1400 313 1384 313 c 2,36,-1
 209 313 l 2,23,24
209 711 m 2,37,38
 192 711 192 711 181 723 c 128,-1,39
 170 735 170 735 170 752 c 0,40,41
 170 767 170 767 181 780 c 128,-1,42
 192 793 192 793 209 793 c 2,43,-1
 1384 793 l 2,44,45
 1400 793 1400 793 1410.5 780 c 128,-1,46
 1421 767 1421 767 1421 752 c 0,47,48
 1421 735 1421 735 1410.5 723 c 128,-1,49
 1400 711 1400 711 1384 711 c 2,50,-1
 209 711 l 2,37,38
170 1149 m 0,51,52
 170 1180 170 1180 197 1186 c 1,53,-1
 1262 1581 l 1,54,-1
 197 1974 l 2,55,56
 170 1984 170 1984 170 2013 c 0,57,58
 170 2030 170 2030 181 2042 c 128,-1,59
 192 2054 192 2054 211 2054 c 0,60,61
 215 2054 215 2054 227 2050 c 2,62,-1
 1397 1618 l 1,63,64
 1421 1611 1421 1611 1421 1581 c 0,65,66
 1421 1552 1421 1552 1397 1542 c 1,67,-1
 227 1110 l 1,68,69
 222 1110 222 1110 218.5 1109.5 c 128,-1,70
 215 1109 215 1109 211 1108 c 1,71,72
 194 1108 194 1108 182 1120 c 128,-1,73
 170 1132 170 1132 170 1149 c 0,51,52
EndSplineSet
EndChar

StartChar: U
Encoding: 85 85 56
Width: 1536
GlyphClass: 2
Flags: W
LayerCount: 2
Fore
SplineSet
469 0 m 1,0,-1
 469 72 l 1,1,2
 680 72 680 72 680 137 c 2,3,-1
 680 436 l 1,4,-1
 158 436 l 2,5,6
 149 436 149 436 141 444 c 128,-1,7
 133 452 133 452 133 459 c 2,8,-1
 133 471 l 2,9,10
 133 477 133 477 141.5 486.5 c 128,-1,11
 150 496 150 496 158 496 c 2,12,-1
 680 496 l 1,13,-1
 680 559 l 1,14,-1
 512 834 l 1,15,-1
 158 834 l 2,16,17
 150 834 150 834 141.5 842.5 c 128,-1,18
 133 851 133 851 133 856 c 2,19,-1
 133 868 l 2,20,21
 133 875 133 875 141 884 c 128,-1,22
 149 893 149 893 158 893 c 2,23,-1
 475 893 l 1,24,-1
 246 1266 l 1,25,26
 214 1307 214 1307 160 1317 c 128,-1,27
 106 1327 106 1327 23 1327 c 1,28,-1
 23 1399 l 1,29,30
 51 1399 51 1399 101.5 1397.5 c 128,-1,31
 152 1396 152 1396 202.5 1394.5 c 128,-1,32
 253 1393 253 1393 281 1393 c 0,33,34
 315 1393 315 1393 374.5 1394.5 c 128,-1,35
 434 1396 434 1396 493.5 1397.5 c 128,-1,36
 553 1399 553 1399 586 1399 c 1,37,-1
 586 1327 l 1,38,39
 444 1327 444 1327 444 1280 c 0,40,41
 444 1274 444 1274 449 1264 c 2,42,-1
 678 893 l 1,43,-1
 973 893 l 1,44,-1
 1169 1208 l 1,45,46
 1180 1228 1180 1228 1180 1251 c 0,47,48
 1180 1292 1180 1292 1145 1309.5 c 128,-1,49
 1110 1327 1110 1327 1065 1327 c 1,50,-1
 1065 1399 l 1,51,52
 1091 1399 1091 1399 1140 1397.5 c 128,-1,53
 1189 1396 1189 1396 1236.5 1394.5 c 128,-1,54
 1284 1393 1284 1393 1313 1393 c 1,55,56
 1339 1394 1339 1394 1368 1395 c 128,-1,57
 1397 1396 1397 1396 1422 1397 c 128,-1,58
 1447 1398 1447 1398 1463 1398.5 c 128,-1,59
 1479 1399 1479 1399 1511 1399 c 1,60,-1
 1511 1327 l 1,61,62
 1431 1327 1431 1327 1362 1298.5 c 128,-1,63
 1293 1270 1293 1270 1253 1210 c 1,64,-1
 1057 893 l 1,65,-1
 1376 893 l 2,66,67
 1384 893 1384 893 1392.5 884.5 c 128,-1,68
 1401 876 1401 876 1401 868 c 2,69,-1
 1401 856 l 2,70,71
 1401 850 1401 850 1392 842 c 128,-1,72
 1383 834 1383 834 1376 834 c 2,73,-1
 1022 834 l 1,74,-1
 852 559 l 1,75,-1
 852 496 l 1,76,-1
 1376 496 l 2,77,78
 1383 496 1383 496 1392 487 c 128,-1,79
 1401 478 1401 478 1401 471 c 2,80,-1
 1401 459 l 2,81,82
 1401 451 1401 451 1392.5 443.5 c 128,-1,83
 1384 436 1384 436 1376 436 c 2,84,-1
 852 436 l 1,85,-1
 852 137 l 2,86,87
 852 72 852 72 1063 72 c 1,88,-1
 1063 0 l 1,89,90
 1031 0 1031 0 973 1.5 c 128,-1,91
 915 3 915 3 856.5 4.5 c 128,-1,92
 798 6 798 6 766 6 c 256,93,94
 734 6 734 6 676 4.5 c 128,-1,95
 618 3 618 3 559.5 1.5 c 128,-1,96
 501 0 501 0 469 0 c 1,0,-1
825 651 m 1,97,-1
 938 834 l 1,98,-1
 715 834 l 1,99,-1
 825 651 l 1,97,-1
EndSplineSet
EndChar

StartChar: V
Encoding: 86 86 57
Width: 2048
GlyphClass: 2
Flags: W
LayerCount: 2
Fore
SplineSet
152 74 m 2,0,1
 136 74 136 74 125.5 86 c 128,-1,2
 115 98 115 98 115 115 c 0,3,4
 115 130 115 130 125.5 143 c 128,-1,5
 136 156 136 156 152 156 c 2,6,-1
 1358 156 l 1,7,8
 1503 345 1503 345 1686 471 c 1,9,-1
 156 471 l 2,10,11
 138 471 138 471 126.5 482.5 c 128,-1,12
 115 494 115 494 115 512 c 256,13,14
 115 530 115 530 125.5 541.5 c 128,-1,15
 136 553 136 553 156 553 c 2,16,-1
 1686 553 l 1,17,18
 1503 679 1503 679 1358 868 c 1,19,-1
 152 868 l 2,20,21
 136 868 136 868 125.5 881 c 128,-1,22
 115 894 115 894 115 909 c 0,23,24
 115 926 115 926 125.5 938 c 128,-1,25
 136 950 136 950 152 950 c 2,26,-1
 1300 950 l 1,27,28
 1212 1090 1212 1090 1153 1251 c 1,29,-1
 1262 1251 l 1,30,31
 1318 1093 1318 1093 1409.5 955 c 128,-1,32
 1501 817 1501 817 1625 703 c 128,-1,33
 1749 589 1749 589 1890 512 c 1,34,35
 1777 449 1777 449 1683.5 372.5 c 128,-1,36
 1590 296 1590 296 1508 199 c 128,-1,37
 1426 102 1426 102 1365.5 -2 c 128,-1,38
 1305 -106 1305 -106 1262 -227 c 1,39,-1
 1153 -227 l 1,40,41
 1212 -66 1212 -66 1300 74 c 1,42,-1
 152 74 l 2,0,1
EndSplineSet
EndChar

StartChar: W
Encoding: 87 87 58
Width: 2048
GlyphClass: 2
Flags: W
LayerCount: 2
Fore
SplineSet
784 -227 m 1,0,1
 744 -111 744 -111 681 -2.5 c 128,-1,2
 618 106 618 106 539 199 c 128,-1,3
 460 292 460 292 363 372 c 128,-1,4
 266 452 266 452 156 512 c 1,5,6
 260 569 260 569 360.5 651.5 c 128,-1,7
 461 734 461 734 538.5 824.5 c 128,-1,8
 616 915 616 915 680 1025.5 c 128,-1,9
 744 1136 744 1136 784 1251 c 1,10,-1
 893 1251 l 1,11,12
 833 1088 833 1088 745 950 c 1,13,-1
 1894 950 l 2,14,15
 1910 950 1910 950 1920.5 938 c 128,-1,16
 1931 926 1931 926 1931 909 c 0,17,18
 1931 894 1931 894 1920.5 881 c 128,-1,19
 1910 868 1910 868 1894 868 c 2,20,-1
 688 868 l 1,21,22
 543 679 543 679 360 553 c 1,23,-1
 1890 553 l 2,24,25
 1908 553 1908 553 1919.5 542 c 128,-1,26
 1931 531 1931 531 1931 512 c 0,27,28
 1931 494 1931 494 1919 482.5 c 128,-1,29
 1907 471 1907 471 1890 471 c 2,30,-1
 360 471 l 1,31,32
 543 345 543 345 688 156 c 1,33,-1
 1894 156 l 2,34,35
 1910 156 1910 156 1920.5 143 c 128,-1,36
 1931 130 1931 130 1931 115 c 0,37,38
 1931 98 1931 98 1920.5 86 c 128,-1,39
 1910 74 1910 74 1894 74 c 2,40,-1
 745 74 l 1,41,42
 833 -64 833 -64 893 -227 c 1,43,-1
 784 -227 l 1,0,1
EndSplineSet
EndChar

StartChar: X
Encoding: 88 88 59
Width: 1706
GlyphClass: 2
Flags: W
LayerCount: 2
Fore
SplineSet
479 -53 m 2,0,-1
 172 461 l 2,1,2
 170 465 170 465 170 467 c 0,3,4
 170 500 170 500 229 534.5 c 128,-1,5
 288 569 288 569 328 573 c 1,6,-1
 338 573 l 1,7,8
 348 567 348 567 350 565 c 2,9,-1
 549 231 l 1,10,11
 669 591 669 591 899 897 c 0,12,13
 953 970 953 970 1076.5 1102.5 c 128,-1,14
 1200 1235 1200 1235 1318.5 1332.5 c 128,-1,15
 1437 1430 1437 1430 1509 1438 c 1,16,-1
 1520 1438 l 1,17,18
 1526 1434 1526 1434 1528.5 1432.5 c 128,-1,19
 1531 1431 1531 1431 1532.5 1428 c 128,-1,20
 1534 1425 1534 1425 1534 1421 c 0,21,22
 1534 1413 1534 1413 1526 1401 c 0,23,24
 1516 1386 1516 1386 1487.5 1362 c 128,-1,25
 1459 1338 1459 1338 1427.5 1314 c 128,-1,26
 1396 1290 1396 1290 1368 1268 c 1,27,28
 1290 1198 1290 1198 1253 1161 c 0,29,30
 1111 1016 1111 1016 989 838 c 1,31,32
 744 473 744 473 659 41 c 1,33,34
 648 6 648 6 596.5 -25 c 128,-1,35
 545 -56 545 -56 502 -61 c 1,36,-1
 492 -61 l 1,37,38
 480 -54 480 -54 479 -53 c 2,0,-1
EndSplineSet
EndChar

StartChar: Y
Encoding: 89 89 60
Width: 1251
GlyphClass: 2
Flags: W
LayerCount: 2
Fore
SplineSet
154 0 m 2,0,1
 137 0 137 0 126 12 c 128,-1,2
 115 24 115 24 115 41 c 0,3,4
 115 56 115 56 126 69 c 128,-1,5
 137 82 137 82 154 82 c 2,6,-1
 1098 82 l 2,7,8
 1113 82 1113 82 1124 69 c 128,-1,9
 1135 56 1135 56 1135 41 c 0,10,11
 1135 24 1135 24 1124 12 c 128,-1,12
 1113 0 1113 0 1098 0 c 2,13,-1
 154 0 l 2,0,1
588 424 m 1,14,-1
 119 1411 l 1,15,16
 115 1415 115 1415 115 1425 c 0,17,18
 115 1442 115 1442 126 1454 c 128,-1,19
 137 1466 137 1466 156 1466 c 0,20,21
 180 1466 180 1466 195 1442 c 1,22,-1
 625 532 l 1,23,-1
 1059 1448 l 2,24,25
 1068 1466 1068 1466 1094 1466 c 0,26,27
 1111 1466 1111 1466 1123 1454 c 128,-1,28
 1135 1442 1135 1442 1135 1425 c 0,29,30
 1135 1415 1135 1415 1133 1411 c 2,31,-1
 659 418 l 2,32,33
 655 409 655 409 645 403 c 128,-1,34
 635 397 635 397 625 397 c 0,35,36
 598 397 598 397 588 424 c 1,14,-1
EndSplineSet
EndChar

StartChar: Z
Encoding: 90 90 61
Width: 1251
GlyphClass: 2
Flags: W
LayerCount: 2
Fore
SplineSet
115 41 m 0,0,1
 115 51 115 51 119 57 c 1,2,-1
 590 1051 l 2,3,4
 599 1069 599 1069 625 1069 c 0,5,6
 649 1069 649 1069 664 1044 c 1,7,-1
 1133 57 l 2,8,9
 1135 51 1135 51 1135 41 c 0,10,11
 1135 24 1135 24 1122 12 c 128,-1,12
 1109 0 1109 0 1094 0 c 0,13,14
 1067 0 1067 0 1057 27 c 1,15,-1
 625 934 l 1,16,-1
 190 20 l 2,17,18
 180 0 180 0 156 0 c 0,19,20
 139 0 139 0 127 12 c 128,-1,21
 115 24 115 24 115 41 c 0,0,1
154 1384 m 2,22,23
 137 1384 137 1384 126 1397 c 128,-1,24
 115 1410 115 1410 115 1425 c 0,25,26
 115 1442 115 1442 126 1454 c 128,-1,27
 137 1466 137 1466 154 1466 c 2,28,-1
 1098 1466 l 2,29,30
 1113 1466 1113 1466 1124 1454 c 128,-1,31
 1135 1442 1135 1442 1135 1425 c 0,32,33
 1135 1410 1135 1410 1124 1397 c 128,-1,34
 1113 1384 1113 1384 1098 1384 c 2,35,-1
 154 1384 l 2,22,23
EndSplineSet
EndChar

StartChar: bracketleft
Encoding: 91 91 62
Width: 1251
GlyphClass: 2
Flags: W
LayerCount: 2
Fore
SplineSet
115 -158 m 0,0,1
 115 -147 115 -147 119 -141 c 1,2,-1
 590 852 l 2,3,4
 599 870 599 870 625 870 c 0,5,6
 649 870 649 870 664 846 c 1,7,-1
 1133 -141 l 2,8,9
 1135 -147 1135 -147 1135 -158 c 0,10,11
 1135 -173 1135 -173 1122 -186 c 128,-1,12
 1109 -199 1109 -199 1094 -199 c 0,13,14
 1067 -199 1067 -199 1057 -172 c 1,15,-1
 625 735 l 1,16,-1
 190 -178 l 2,17,18
 186 -187 186 -187 176 -193 c 128,-1,19
 166 -199 166 -199 156 -199 c 0,20,21
 139 -199 139 -199 127 -186 c 128,-1,22
 115 -173 115 -173 115 -158 c 0,0,1
154 1186 m 2,23,24
 137 1186 137 1186 126 1198 c 128,-1,25
 115 1210 115 1210 115 1227 c 0,26,27
 115 1242 115 1242 126 1255 c 128,-1,28
 137 1268 137 1268 154 1268 c 2,29,-1
 1098 1268 l 2,30,31
 1113 1268 1113 1268 1124 1255 c 128,-1,32
 1135 1242 1135 1242 1135 1227 c 0,33,34
 1135 1210 1135 1210 1124 1198 c 128,-1,35
 1113 1186 1113 1186 1098 1186 c 2,36,-1
 154 1186 l 2,23,24
154 1583 m 2,37,38
 137 1583 137 1583 126 1596 c 128,-1,39
 115 1609 115 1609 115 1624 c 0,40,41
 115 1641 115 1641 126 1653 c 128,-1,42
 137 1665 137 1665 154 1665 c 2,43,-1
 1098 1665 l 2,44,45
 1113 1665 1113 1665 1124 1653 c 128,-1,46
 1135 1641 1135 1641 1135 1624 c 0,47,48
 1135 1609 1135 1609 1124 1596 c 128,-1,49
 1113 1583 1113 1583 1098 1583 c 2,50,-1
 154 1583 l 2,37,38
EndSplineSet
EndChar

StartChar: backslash
Encoding: 92 92 63
Width: 1479
GlyphClass: 2
Flags: W
LayerCount: 2
Fore
SplineSet
154 0 m 2,0,1
 137 0 137 0 126 12 c 128,-1,2
 115 24 115 24 115 41 c 0,3,4
 115 55 115 55 125 70 c 1,5,-1
 1290 1409 l 1,6,7
 1302 1421 1302 1421 1321 1421 c 0,8,9
 1338 1421 1338 1421 1350 1409 c 128,-1,10
 1362 1397 1362 1397 1362 1380 c 0,11,12
 1362 1364 1362 1364 1352 1354 c 2,13,-1
 246 82 l 1,14,-1
 1325 82 l 2,15,16
 1341 82 1341 82 1351.5 69 c 128,-1,17
 1362 56 1362 56 1362 41 c 0,18,19
 1362 24 1362 24 1351.5 12 c 128,-1,20
 1341 0 1341 0 1325 0 c 2,21,-1
 154 0 l 2,0,1
EndSplineSet
EndChar

StartChar: bracketright
Encoding: 93 93 64
Width: 1479
GlyphClass: 2
Flags: W
LayerCount: 2
Fore
SplineSet
154 0 m 2,0,1
 137 0 137 0 126 12 c 128,-1,2
 115 24 115 24 115 41 c 0,3,4
 115 55 115 55 125 70 c 1,5,-1
 1290 1450 l 2,6,7
 1299 1462 1299 1462 1321 1462 c 0,8,9
 1338 1462 1338 1462 1350 1450 c 128,-1,10
 1362 1438 1362 1438 1362 1421 c 0,11,12
 1362 1405 1362 1405 1352 1395 c 1,13,-1
 674 590 l 1,14,15
 725 531 725 531 776 441 c 128,-1,16
 827 351 827 351 859 256.5 c 128,-1,17
 891 162 891 162 891 82 c 1,18,-1
 1325 82 l 2,19,20
 1341 82 1341 82 1351.5 69 c 128,-1,21
 1362 56 1362 56 1362 41 c 0,22,23
 1362 24 1362 24 1351.5 12 c 128,-1,24
 1341 0 1341 0 1325 0 c 2,25,-1
 895 0 l 1,26,27
 895 -18 895 -18 883 -29.5 c 128,-1,28
 871 -41 871 -41 854 -41 c 0,29,30
 818 -41 818 -41 811 0 c 1,31,-1
 154 0 l 2,0,1
244 82 m 1,32,-1
 809 82 l 1,33,34
 797 204 797 204 747 320 c 128,-1,35
 697 436 697 436 618 526 c 1,36,-1
 244 82 l 1,32,-1
EndSplineSet
EndChar

StartChar: asciicircum
Encoding: 94 94 65
Width: 1479
GlyphClass: 2
Flags: W
LayerCount: 2
Fore
SplineSet
141 475 m 1,0,1
 115 485 115 485 115 512 c 0,2,3
 115 538 115 538 135 547 c 2,4,-1
 1307 1126 l 2,5,6
 1311 1128 1311 1128 1321 1128 c 0,7,8
 1338 1128 1338 1128 1350 1116 c 128,-1,9
 1362 1104 1362 1104 1362 1087 c 0,10,11
 1362 1062 1362 1062 1343 1053 c 2,12,-1
 1077 922 l 1,13,14
 1121 825 1121 825 1142 722 c 128,-1,15
 1163 619 1163 619 1163 512 c 0,16,17
 1163 406 1163 406 1142 303.5 c 128,-1,18
 1121 201 1121 201 1077 102 c 1,19,-1
 1337 -27 l 1,20,21
 1362 -37 1362 -37 1362 -63 c 0,22,23
 1362 -80 1362 -80 1349 -92 c 128,-1,24
 1336 -104 1336 -104 1321 -104 c 0,25,26
 1311 -104 1311 -104 1307 -102 c 2,27,-1
 141 475 l 1,0,1
248 512 m 1,28,-1
 1004 139 l 1,29,30
 1081 316 1081 316 1081 512 c 256,31,32
 1081 708 1081 708 1004 885 c 1,33,-1
 248 512 l 1,28,-1
EndSplineSet
EndChar

StartChar: underscore
Encoding: 95 95 66
Width: 1591
GlyphClass: 2
Flags: W
LayerCount: 2
Fore
SplineSet
569 57 m 0,0,1
 478 57 478 57 396 92 c 128,-1,2
 314 127 314 127 250 190 c 128,-1,3
 186 253 186 253 150.5 337 c 128,-1,4
 115 421 115 421 115 512 c 256,5,6
 115 603 115 603 150.5 687 c 128,-1,7
 186 771 186 771 248.5 833.5 c 128,-1,8
 311 896 311 896 394.5 931.5 c 128,-1,9
 478 967 478 967 569 967 c 0,10,11
 668 967 668 967 756 926.5 c 128,-1,12
 844 886 844 886 908.5 813 c 128,-1,13
 973 740 973 740 1001 647 c 1,14,15
 1024 719 1024 719 1066 776.5 c 128,-1,16
 1108 834 1108 834 1165 877 c 128,-1,17
 1222 920 1222 920 1290.5 943.5 c 128,-1,18
 1359 967 1359 967 1434 967 c 0,19,20
 1452 967 1452 967 1464.5 955.5 c 128,-1,21
 1477 944 1477 944 1477 926 c 0,22,23
 1477 909 1477 909 1466 897 c 128,-1,24
 1455 885 1455 885 1440 885 c 0,25,26
 1363 885 1363 885 1294 856 c 128,-1,27
 1225 827 1225 827 1173 776 c 128,-1,28
 1121 725 1121 725 1092 656 c 128,-1,29
 1063 587 1063 587 1063 512 c 0,30,31
 1063 412 1063 412 1113.5 325.5 c 128,-1,32
 1164 239 1164 239 1251 189 c 128,-1,33
 1338 139 1338 139 1440 139 c 0,34,35
 1455 139 1455 139 1466 127 c 128,-1,36
 1477 115 1477 115 1477 98 c 256,37,38
 1477 81 1477 81 1464 69 c 128,-1,39
 1451 57 1451 57 1434 57 c 0,40,41
 1286 57 1286 57 1166 147 c 128,-1,42
 1046 237 1046 237 1001 377 c 1,43,44
 959 236 959 236 837.5 146.5 c 128,-1,45
 716 57 716 57 569 57 c 0,0,1
569 139 m 256,46,47
 667 139 667 139 753.5 190 c 128,-1,48
 840 241 840 241 890 327.5 c 128,-1,49
 940 414 940 414 940 512 c 256,50,51
 940 610 940 610 890 696.5 c 128,-1,52
 840 783 840 783 753.5 834 c 128,-1,53
 667 885 667 885 569 885 c 256,54,55
 471 885 471 885 384.5 834 c 128,-1,56
 298 783 298 783 247.5 696.5 c 128,-1,57
 197 610 197 610 197 512 c 256,58,59
 197 414 197 414 247.5 327.5 c 128,-1,60
 298 241 298 241 384.5 190 c 128,-1,61
 471 139 471 139 569 139 c 256,46,47
EndSplineSet
EndChar

StartChar: grave
Encoding: 96 96 67
Width: 1591
GlyphClass: 2
Flags: W
LayerCount: 2
Fore
SplineSet
121 713 m 1,0,1
 115 722 115 722 115 733 c 0,2,3
 115 750 115 750 126 762 c 128,-1,4
 137 774 137 774 156 774 c 0,5,6
 179 774 179 774 190 756 c 1,7,8
 235 672 235 672 298.5 602 c 128,-1,9
 362 532 362 532 443 480 c 128,-1,10
 524 428 524 428 613.5 400.5 c 128,-1,11
 703 373 703 373 797 373 c 0,12,13
 920 373 920 373 1037.5 421.5 c 128,-1,14
 1155 470 1155 470 1246.5 555 c 128,-1,15
 1338 640 1338 640 1401 756 c 1,16,17
 1412 774 1412 774 1436 774 c 0,18,19
 1453 774 1453 774 1465 762 c 128,-1,20
 1477 750 1477 750 1477 733 c 0,21,22
 1477 721 1477 721 1470 713 c 1,23,24
 1405 589 1405 589 1300.5 493.5 c 128,-1,25
 1196 398 1196 398 1066 344.5 c 128,-1,26
 936 291 936 291 797 291 c 0,27,28
 588 291 588 291 405 407.5 c 128,-1,29
 222 524 222 524 121 713 c 1,0,1
EndSplineSet
EndChar

StartChar: a
Encoding: 97 97 68
Width: 1591
GlyphClass: 2
Flags: W
LayerCount: 2
Fore
SplineSet
115 291 m 0,0,1
 115 301 115 301 119 307 c 0,2,3
 171 410 171 410 239 493.5 c 128,-1,4
 307 577 307 577 395 641 c 128,-1,5
 483 705 483 705 585 739.5 c 128,-1,6
 687 774 687 774 797 774 c 256,7,8
 907 774 907 774 1009 739 c 128,-1,9
 1111 704 1111 704 1198 640.5 c 128,-1,10
 1285 577 1285 577 1355 492 c 128,-1,11
 1425 407 1425 407 1475 307 c 0,12,13
 1477 301 1477 301 1477 291 c 0,14,15
 1477 274 1477 274 1464 262 c 128,-1,16
 1451 250 1451 250 1436 250 c 0,17,18
 1411 250 1411 250 1401 270 c 0,19,20
 1358 358 1358 358 1295.5 436 c 128,-1,21
 1233 514 1233 514 1155 571 c 128,-1,22
 1077 628 1077 628 986.5 660 c 128,-1,23
 896 692 896 692 797 692 c 0,24,25
 699 692 699 692 607.5 660.5 c 128,-1,26
 516 629 516 629 437.5 571 c 128,-1,27
 359 513 359 513 297.5 436.5 c 128,-1,28
 236 360 236 360 190 270 c 0,29,30
 180 250 180 250 156 250 c 0,31,32
 139 250 139 250 127 262 c 128,-1,33
 115 274 115 274 115 291 c 0,0,1
EndSplineSet
EndChar

StartChar: b
Encoding: 98 98 69
Width: 1591
GlyphClass: 2
Flags: W
LayerCount: 2
Fore
SplineSet
170 512 m 256,0,1
 170 677 170 677 256 813.5 c 128,-1,2
 342 950 342 950 486 1028 c 128,-1,3
 630 1106 630 1106 793 1106 c 2,4,-1
 1384 1106 l 2,5,6
 1400 1106 1400 1106 1410.5 1093 c 128,-1,7
 1421 1080 1421 1080 1421 1065 c 0,8,9
 1421 1048 1421 1048 1410.5 1036 c 128,-1,10
 1400 1024 1400 1024 1384 1024 c 2,11,-1
 799 1024 l 2,12,13
 692 1024 692 1024 593.5 986 c 128,-1,14
 495 948 495 948 417 878 c 128,-1,15
 339 808 339 808 295.5 715 c 128,-1,16
 252 622 252 622 252 512 c 256,17,18
 252 402 252 402 295.5 309.5 c 128,-1,19
 339 217 339 217 417.5 146 c 128,-1,20
 496 75 496 75 594 37.5 c 128,-1,21
 692 0 692 0 799 0 c 2,22,-1
 1384 0 l 2,23,24
 1400 0 1400 0 1410.5 -12 c 128,-1,25
 1421 -24 1421 -24 1421 -41 c 0,26,27
 1421 -56 1421 -56 1410.5 -69 c 128,-1,28
 1400 -82 1400 -82 1384 -82 c 2,29,-1
 793 -82 l 2,30,31
 630 -82 630 -82 486 -4 c 128,-1,32
 342 74 342 74 256 210.5 c 128,-1,33
 170 347 170 347 170 512 c 256,0,1
485 512 m 256,34,35
 485 586 485 586 523 650.5 c 128,-1,36
 561 715 561 715 625.5 753 c 128,-1,37
 690 791 690 791 764 791 c 2,38,-1
 782 791 l 2,39,40
 793 791 793 791 799 788 c 1,41,-1
 1384 788 l 2,42,43
 1400 788 1400 788 1410.5 775.5 c 128,-1,44
 1421 763 1421 763 1421 748 c 0,45,46
 1421 731 1421 731 1410.5 719 c 128,-1,47
 1400 707 1400 707 1384 707 c 2,48,-1
 793 707 l 1,49,50
 788 709 788 709 778 709 c 2,51,-1
 764 709 l 2,52,53
 684 709 684 709 625.5 649.5 c 128,-1,54
 567 590 567 590 567 512 c 256,55,56
 567 434 567 434 625.5 374.5 c 128,-1,57
 684 315 684 315 764 315 c 2,58,-1
 778 315 l 1,59,60
 782 316 782 316 785 316.5 c 128,-1,61
 788 317 788 317 793 317 c 2,62,-1
 1384 317 l 2,63,64
 1400 317 1400 317 1410.5 305 c 128,-1,65
 1421 293 1421 293 1421 276 c 0,66,67
 1421 260 1421 260 1410.5 248 c 128,-1,68
 1400 236 1400 236 1384 236 c 2,69,-1
 799 236 l 2,70,71
 796 236 796 236 791 235 c 128,-1,72
 786 234 786 234 782 233 c 1,73,-1
 764 233 l 2,74,75
 690 233 690 233 625.5 271 c 128,-1,76
 561 309 561 309 523 373.5 c 128,-1,77
 485 438 485 438 485 512 c 256,34,35
EndSplineSet
EndChar

StartChar: c
Encoding: 99 99 70
Width: 1591
GlyphClass: 2
Flags: W
LayerCount: 2
Fore
SplineSet
209 -82 m 2,0,1
 192 -82 192 -82 181 -69 c 128,-1,2
 170 -56 170 -56 170 -41 c 0,3,4
 170 -24 170 -24 181 -12 c 128,-1,5
 192 0 192 0 209 0 c 2,6,-1
 793 0 l 2,7,8
 897 0 897 0 996.5 37.5 c 128,-1,9
 1096 75 1096 75 1174.5 145.5 c 128,-1,10
 1253 216 1253 216 1296 309.5 c 128,-1,11
 1339 403 1339 403 1339 512 c 0,12,13
 1339 623 1339 623 1295 717 c 128,-1,14
 1251 811 1251 811 1174 880.5 c 128,-1,15
 1097 950 1097 950 999.5 987 c 128,-1,16
 902 1024 902 1024 793 1024 c 2,17,-1
 209 1024 l 2,18,19
 192 1024 192 1024 181 1036 c 128,-1,20
 170 1048 170 1048 170 1065 c 0,21,22
 170 1080 170 1080 181 1093 c 128,-1,23
 192 1106 192 1106 209 1106 c 2,24,-1
 799 1106 l 2,25,26
 922 1106 922 1106 1033.5 1062 c 128,-1,27
 1145 1018 1145 1018 1233.5 936.5 c 128,-1,28
 1322 855 1322 855 1371.5 746 c 128,-1,29
 1421 637 1421 637 1421 512 c 0,30,31
 1421 347 1421 347 1335 210.5 c 128,-1,32
 1249 74 1249 74 1106 -4 c 128,-1,33
 963 -82 963 -82 799 -82 c 2,34,-1
 209 -82 l 2,0,1
209 236 m 2,35,36
 192 236 192 236 181 248 c 128,-1,37
 170 260 170 260 170 276 c 0,38,39
 170 293 170 293 181 305 c 128,-1,40
 192 317 192 317 209 317 c 2,41,-1
 799 317 l 2,42,43
 805 317 805 317 807.5 316.5 c 128,-1,44
 810 316 810 316 813 315 c 1,45,-1
 827 315 l 2,46,47
 879 315 879 315 924 341.5 c 128,-1,48
 969 368 969 368 996.5 414 c 128,-1,49
 1024 460 1024 460 1024 512 c 256,50,51
 1024 564 1024 564 996.5 610 c 128,-1,52
 969 656 969 656 924 682.5 c 128,-1,53
 879 709 879 709 827 709 c 2,54,-1
 813 709 l 2,55,56
 805 709 805 709 799 707 c 1,57,-1
 209 707 l 2,58,59
 192 707 192 707 181 719 c 128,-1,60
 170 731 170 731 170 748 c 0,61,62
 170 763 170 763 181.5 775.5 c 128,-1,63
 193 788 193 788 209 788 c 2,64,-1
 793 788 l 1,65,66
 799 791 799 791 811 791 c 2,67,-1
 827 791 l 2,68,69
 883 791 883 791 935 768 c 128,-1,70
 987 745 987 745 1023.5 708.5 c 128,-1,71
 1060 672 1060 672 1083 620 c 128,-1,72
 1106 568 1106 568 1106 512 c 0,73,74
 1106 438 1106 438 1068 373.5 c 128,-1,75
 1030 309 1030 309 965.5 271 c 128,-1,76
 901 233 901 233 827 233 c 2,77,-1
 811 233 l 1,78,79
 807 234 807 234 801.5 235 c 128,-1,80
 796 236 796 236 793 236 c 2,81,-1
 209 236 l 2,35,36
EndSplineSet
EndChar

StartChar: d
Encoding: 100 100 71
Width: 1364
GlyphClass: 2
Flags: W
LayerCount: 2
Fore
SplineSet
115 389 m 2,0,-1
 115 1188 l 2,1,2
 115 1203 115 1203 127 1214 c 128,-1,3
 139 1225 139 1225 156 1225 c 0,4,5
 171 1225 171 1225 184 1214 c 128,-1,6
 197 1203 197 1203 197 1188 c 2,7,-1
 197 395 l 2,8,9
 197 306 197 306 240.5 239 c 128,-1,10
 284 172 284 172 355.5 127.5 c 128,-1,11
 427 83 427 83 514 60 c 128,-1,12
 601 37 601 37 682 37 c 0,13,14
 764 37 764 37 851 59.5 c 128,-1,15
 938 82 938 82 1008.5 126 c 128,-1,16
 1079 170 1079 170 1123 238 c 128,-1,17
 1167 306 1167 306 1167 395 c 2,18,-1
 1167 1188 l 2,19,20
 1167 1203 1167 1203 1180 1214 c 128,-1,21
 1193 1225 1193 1225 1208 1225 c 0,22,23
 1225 1225 1225 1225 1237 1214 c 128,-1,24
 1249 1203 1249 1203 1249 1188 c 2,25,-1
 1249 389 l 2,26,27
 1249 285 1249 285 1198 202 c 128,-1,28
 1147 119 1147 119 1063.5 64 c 128,-1,29
 980 9 980 9 879 -18 c 128,-1,30
 778 -45 778 -45 682 -45 c 256,31,32
 586 -45 586 -45 485 -18 c 128,-1,33
 384 9 384 9 300.5 64 c 128,-1,34
 217 119 217 119 166 202 c 128,-1,35
 115 285 115 285 115 389 c 2,0,-1
430 502 m 2,36,-1
 430 1188 l 2,37,38
 430 1203 430 1203 443 1214 c 128,-1,39
 456 1225 456 1225 471 1225 c 0,40,41
 488 1225 488 1225 500 1214 c 128,-1,42
 512 1203 512 1203 512 1188 c 2,43,-1
 512 508 l 2,44,45
 512 443 512 443 564 397.5 c 128,-1,46
 616 352 616 352 682 352 c 0,47,48
 727 352 727 352 766 373 c 128,-1,49
 805 394 805 394 828.5 430 c 128,-1,50
 852 466 852 466 852 510 c 2,51,-1
 852 1188 l 2,52,53
 852 1203 852 1203 864 1214 c 128,-1,54
 876 1225 876 1225 893 1225 c 0,55,56
 908 1225 908 1225 921 1214 c 128,-1,57
 934 1203 934 1203 934 1188 c 2,58,-1
 934 504 l 2,59,60
 934 439 934 439 898.5 385.5 c 128,-1,61
 863 332 863 332 804 301 c 128,-1,62
 745 270 745 270 682 270 c 0,63,64
 585 270 585 270 507.5 338 c 128,-1,65
 430 406 430 406 430 502 c 2,36,-1
EndSplineSet
EndChar

StartChar: e
Encoding: 101 101 72
Width: 1364
GlyphClass: 2
Flags: W
LayerCount: 2
Fore
SplineSet
115 -8 m 2,0,-1
 115 791 l 2,1,2
 115 927 115 927 200 1026 c 128,-1,3
 285 1125 285 1125 418 1175 c 128,-1,4
 551 1225 551 1225 682 1225 c 0,5,6
 779 1225 779 1225 878.5 1198.5 c 128,-1,7
 978 1172 978 1172 1062.5 1116.5 c 128,-1,8
 1147 1061 1147 1061 1198 978 c 128,-1,9
 1249 895 1249 895 1249 791 c 2,10,-1
 1249 -8 l 2,11,12
 1249 -24 1249 -24 1237 -34.5 c 128,-1,13
 1225 -45 1225 -45 1208 -45 c 0,14,15
 1193 -45 1193 -45 1180 -34.5 c 128,-1,16
 1167 -24 1167 -24 1167 -8 c 2,17,-1
 1167 784 l 2,18,19
 1167 874 1167 874 1122.5 942.5 c 128,-1,20
 1078 1011 1078 1011 1008.5 1054 c 128,-1,21
 939 1097 939 1097 852 1120 c 128,-1,22
 765 1143 765 1143 682 1143 c 0,23,24
 568 1143 568 1143 456.5 1103 c 128,-1,25
 345 1063 345 1063 271 982 c 128,-1,26
 197 901 197 901 197 784 c 2,27,-1
 197 -8 l 2,28,29
 197 -24 197 -24 184 -34.5 c 128,-1,30
 171 -45 171 -45 156 -45 c 0,31,32
 139 -45 139 -45 127 -34.5 c 128,-1,33
 115 -24 115 -24 115 -8 c 2,0,-1
430 -8 m 2,34,-1
 430 676 l 2,35,36
 430 775 430 775 506.5 842 c 128,-1,37
 583 909 583 909 682 909 c 0,38,39
 745 909 745 909 803.5 878.5 c 128,-1,40
 862 848 862 848 898 794.5 c 128,-1,41
 934 741 934 741 934 678 c 2,42,-1
 934 -8 l 2,43,44
 934 -24 934 -24 921 -34.5 c 128,-1,45
 908 -45 908 -45 893 -45 c 0,46,47
 876 -45 876 -45 864 -34.5 c 128,-1,48
 852 -24 852 -24 852 -8 c 2,49,-1
 852 672 l 2,50,51
 852 739 852 739 801.5 783 c 128,-1,52
 751 827 751 827 682 827 c 0,53,54
 614 827 614 827 563 781.5 c 128,-1,55
 512 736 512 736 512 670 c 2,56,-1
 512 -8 l 2,57,58
 512 -24 512 -24 500 -34.5 c 128,-1,59
 488 -45 488 -45 471 -45 c 0,60,61
 456 -45 456 -45 443 -34.5 c 128,-1,62
 430 -24 430 -24 430 -8 c 2,34,-1
EndSplineSet
EndChar

StartChar: f
Encoding: 102 102 73
Width: 1556
GlyphClass: 2
Flags: W
LayerCount: 2
Fore
SplineSet
170 -4 m 0,0,1
 170 12 170 12 181.5 23.5 c 128,-1,2
 193 35 193 35 209 37 c 0,3,4
 380 55 380 55 489 170.5 c 128,-1,5
 598 286 598 286 650 451 c 128,-1,6
 702 616 702 616 719.5 794 c 128,-1,7
 737 972 737 972 737 1147 c 0,8,9
 737 1162 737 1162 750 1173 c 128,-1,10
 763 1184 763 1184 778 1184 c 0,11,12
 795 1184 795 1184 807 1173 c 128,-1,13
 819 1162 819 1162 819 1147 c 0,14,15
 819 898 819 898 854.5 662.5 c 128,-1,16
 890 427 890 427 1007.5 243.5 c 128,-1,17
 1125 60 1125 60 1346 37 c 0,18,19
 1362 35 1362 35 1373 24 c 128,-1,20
 1384 13 1384 13 1384 -4 c 0,21,22
 1384 -23 1384 -23 1371 -34 c 128,-1,23
 1358 -45 1358 -45 1339 -45 c 1,24,25
 1095 -19 1095 -19 962 169 c 128,-1,26
 829 357 829 357 778 631 c 1,27,28
 729 357 729 357 595.5 169 c 128,-1,29
 462 -19 462 -19 215 -45 c 1,30,31
 196 -45 196 -45 183 -34 c 128,-1,32
 170 -23 170 -23 170 -4 c 0,0,1
EndSplineSet
EndChar

StartChar: g
Encoding: 103 103 74
Width: 1556
GlyphClass: 2
Flags: W
LayerCount: 2
Fore
SplineSet
737 -8 m 0,0,1
 737 167 737 167 719.5 344.5 c 128,-1,2
 702 522 702 522 650 688 c 128,-1,3
 598 854 598 854 489 969.5 c 128,-1,4
 380 1085 380 1085 209 1102 c 0,5,6
 193 1104 193 1104 181.5 1115.5 c 128,-1,7
 170 1127 170 1127 170 1143 c 0,8,9
 170 1161 170 1161 182.5 1172.5 c 128,-1,10
 195 1184 195 1184 215 1184 c 1,11,12
 462 1159 462 1159 596 969.5 c 128,-1,13
 730 780 730 780 778 508 c 1,14,15
 809 676 809 676 875.5 823.5 c 128,-1,16
 942 971 942 971 1057.5 1069 c 128,-1,17
 1173 1167 1173 1167 1339 1184 c 1,18,19
 1359 1184 1359 1184 1371.5 1172.5 c 128,-1,20
 1384 1161 1384 1161 1384 1143 c 0,21,22
 1384 1126 1384 1126 1373 1115 c 128,-1,23
 1362 1104 1362 1104 1346 1102 c 0,24,25
 1125 1080 1125 1080 1007.5 896.5 c 128,-1,26
 890 713 890 713 854.5 477 c 128,-1,27
 819 241 819 241 819 -8 c 0,28,29
 819 -24 819 -24 807 -34.5 c 128,-1,30
 795 -45 795 -45 778 -45 c 0,31,32
 763 -45 763 -45 750 -34.5 c 128,-1,33
 737 -24 737 -24 737 -8 c 0,0,1
EndSplineSet
EndChar

StartChar: h
Encoding: 104 104 75
Width: 1591
GlyphClass: 2
Flags: W
LayerCount: 2
Fore
SplineSet
115 -4 m 0,0,1
 115 14 115 14 125 25 c 2,2,-1
 739 688 l 1,3,-1
 125 1354 l 1,4,5
 115 1361 115 1361 115 1380 c 0,6,7
 115 1397 115 1397 126 1409 c 128,-1,8
 137 1421 137 1421 156 1421 c 0,9,10
 174 1421 174 1421 186 1409 c 2,11,-1
 1466 25 l 2,12,13
 1477 14 1477 14 1477 -4 c 0,14,15
 1477 -21 1477 -21 1464 -33 c 128,-1,16
 1451 -45 1451 -45 1436 -45 c 0,17,18
 1417 -45 1417 -45 1405 -33 c 2,19,-1
 797 627 l 1,20,-1
 186 -33 l 2,21,22
 174 -45 174 -45 156 -45 c 0,23,24
 139 -45 139 -45 127 -33 c 128,-1,25
 115 -21 115 -21 115 -4 c 0,0,1
EndSplineSet
EndChar

StartChar: i
Encoding: 105 105 76
Width: 1591
GlyphClass: 2
Flags: W
LayerCount: 2
Fore
SplineSet
115 -4 m 0,0,1
 115 14 115 14 125 25 c 2,2,-1
 1405 1409 l 2,3,4
 1417 1421 1417 1421 1436 1421 c 0,5,6
 1453 1421 1453 1421 1465 1409 c 128,-1,7
 1477 1397 1477 1397 1477 1380 c 0,8,9
 1477 1361 1477 1361 1466 1354 c 1,10,-1
 852 688 l 1,11,-1
 1466 25 l 2,12,13
 1477 14 1477 14 1477 -4 c 0,14,15
 1477 -21 1477 -21 1464 -33 c 128,-1,16
 1451 -45 1451 -45 1436 -45 c 0,17,18
 1417 -45 1417 -45 1405 -33 c 2,19,-1
 797 627 l 1,20,-1
 186 -33 l 2,21,22
 174 -45 174 -45 156 -45 c 0,23,24
 139 -45 139 -45 127 -33 c 128,-1,25
 115 -21 115 -21 115 -4 c 0,0,1
EndSplineSet
EndChar

StartChar: j
Encoding: 106 106 77
Width: 1591
GlyphClass: 2
Flags: W
LayerCount: 2
Fore
SplineSet
209 -438 m 2,0,1
 192 -438 192 -438 181 -426 c 128,-1,2
 170 -414 170 -414 170 -397 c 0,3,4
 170 -382 170 -382 181 -369 c 128,-1,5
 192 -356 192 -356 209 -356 c 2,6,-1
 1384 -356 l 2,7,8
 1400 -356 1400 -356 1410.5 -369 c 128,-1,9
 1421 -382 1421 -382 1421 -397 c 0,10,11
 1421 -414 1421 -414 1410.5 -426 c 128,-1,12
 1400 -438 1400 -438 1384 -438 c 2,13,-1
 209 -438 l 2,0,1
209 -41 m 2,14,15
 192 -41 192 -41 181 -28 c 128,-1,16
 170 -15 170 -15 170 0 c 256,17,18
 170 15 170 15 181 28 c 128,-1,19
 192 41 192 41 209 41 c 2,20,-1
 1384 41 l 2,21,22
 1400 41 1400 41 1410.5 28 c 128,-1,23
 1421 15 1421 15 1421 0 c 256,24,25
 1421 -15 1421 -15 1410.5 -28 c 128,-1,26
 1400 -41 1400 -41 1384 -41 c 2,27,-1
 209 -41 l 2,14,15
170 950 m 0,28,29
 170 1114 170 1114 256 1249.5 c 128,-1,30
 342 1385 342 1385 486 1463.5 c 128,-1,31
 630 1542 630 1542 793 1542 c 2,32,-1
 1384 1542 l 2,33,34
 1400 1542 1400 1542 1410.5 1530 c 128,-1,35
 1421 1518 1421 1518 1421 1501 c 0,36,37
 1421 1486 1421 1486 1410.5 1473 c 128,-1,38
 1400 1460 1400 1460 1384 1460 c 2,39,-1
 799 1460 l 2,40,41
 692 1460 692 1460 594 1423 c 128,-1,42
 496 1386 496 1386 417.5 1315.5 c 128,-1,43
 339 1245 339 1245 295.5 1152.5 c 128,-1,44
 252 1060 252 1060 252 950 c 256,45,46
 252 840 252 840 295.5 747.5 c 128,-1,47
 339 655 339 655 417.5 584 c 128,-1,48
 496 513 496 513 594 475.5 c 128,-1,49
 692 438 692 438 799 438 c 2,50,-1
 1384 438 l 2,51,52
 1400 438 1400 438 1410.5 426 c 128,-1,53
 1421 414 1421 414 1421 397 c 0,54,55
 1421 382 1421 382 1410.5 369 c 128,-1,56
 1400 356 1400 356 1384 356 c 2,57,-1
 793 356 l 2,58,59
 630 356 630 356 486 434 c 128,-1,60
 342 512 342 512 256 648 c 128,-1,61
 170 784 170 784 170 950 c 0,28,29
EndSplineSet
EndChar

StartChar: k
Encoding: 107 107 78
Width: 1591
GlyphClass: 2
Flags: W
LayerCount: 2
Fore
SplineSet
209 -438 m 2,0,1
 192 -438 192 -438 181 -426 c 128,-1,2
 170 -414 170 -414 170 -397 c 0,3,4
 170 -382 170 -382 181 -369 c 128,-1,5
 192 -356 192 -356 209 -356 c 2,6,-1
 1384 -356 l 2,7,8
 1400 -356 1400 -356 1410.5 -369 c 128,-1,9
 1421 -382 1421 -382 1421 -397 c 0,10,11
 1421 -414 1421 -414 1410.5 -426 c 128,-1,12
 1400 -438 1400 -438 1384 -438 c 2,13,-1
 209 -438 l 2,0,1
209 -41 m 2,14,15
 192 -41 192 -41 181 -28 c 128,-1,16
 170 -15 170 -15 170 0 c 256,17,18
 170 15 170 15 181 28 c 128,-1,19
 192 41 192 41 209 41 c 2,20,-1
 1384 41 l 2,21,22
 1400 41 1400 41 1410.5 28 c 128,-1,23
 1421 15 1421 15 1421 0 c 256,24,25
 1421 -15 1421 -15 1410.5 -28 c 128,-1,26
 1400 -41 1400 -41 1384 -41 c 2,27,-1
 209 -41 l 2,14,15
209 356 m 2,28,29
 192 356 192 356 181 369 c 128,-1,30
 170 382 170 382 170 397 c 0,31,32
 170 414 170 414 181 426 c 128,-1,33
 192 438 192 438 209 438 c 2,34,-1
 793 438 l 2,35,36
 937 438 937 438 1062 504 c 128,-1,37
 1187 570 1187 570 1263 688.5 c 128,-1,38
 1339 807 1339 807 1339 950 c 0,39,40
 1339 1060 1339 1060 1295 1153.5 c 128,-1,41
 1251 1247 1251 1247 1174 1316.5 c 128,-1,42
 1097 1386 1097 1386 999.5 1423 c 128,-1,43
 902 1460 902 1460 793 1460 c 2,44,-1
 209 1460 l 2,45,46
 192 1460 192 1460 181 1473 c 128,-1,47
 170 1486 170 1486 170 1501 c 0,48,49
 170 1518 170 1518 181 1530 c 128,-1,50
 192 1542 192 1542 209 1542 c 2,51,-1
 799 1542 l 2,52,53
 922 1542 922 1542 1034.5 1497.5 c 128,-1,54
 1147 1453 1147 1453 1235 1372 c 128,-1,55
 1323 1291 1323 1291 1372 1183 c 128,-1,56
 1421 1075 1421 1075 1421 950 c 0,57,58
 1421 785 1421 785 1335 648.5 c 128,-1,59
 1249 512 1249 512 1106 434 c 128,-1,60
 963 356 963 356 799 356 c 2,61,-1
 209 356 l 2,28,29
EndSplineSet
EndChar

StartChar: l
Encoding: 108 108 79
Width: 1591
GlyphClass: 2
Flags: W
LayerCount: 2
Fore
SplineSet
154 272 m 2,0,1
 137 272 137 272 126 285 c 128,-1,2
 115 298 115 298 115 313 c 0,3,4
 115 330 115 330 126 342 c 128,-1,5
 137 354 137 354 154 354 c 2,6,-1
 1440 354 l 2,7,8
 1455 354 1455 354 1466 342 c 128,-1,9
 1477 330 1477 330 1477 313 c 0,10,11
 1477 298 1477 298 1466 285 c 128,-1,12
 1455 272 1455 272 1440 272 c 2,13,-1
 154 272 l 2,0,1
154 670 m 2,14,15
 137 670 137 670 126 682 c 128,-1,16
 115 694 115 694 115 711 c 0,17,18
 115 726 115 726 126 739 c 128,-1,19
 137 752 137 752 154 752 c 2,20,-1
 502 752 l 1,21,22
 513 825 513 825 555 883.5 c 128,-1,23
 597 942 597 942 660 975 c 128,-1,24
 723 1008 723 1008 797 1008 c 0,25,26
 852 1008 852 1008 900 989.5 c 128,-1,27
 948 971 948 971 988.5 936.5 c 128,-1,28
 1029 902 1029 902 1056 854 c 128,-1,29
 1083 806 1083 806 1090 752 c 1,30,-1
 1440 752 l 2,31,32
 1455 752 1455 752 1466 739 c 128,-1,33
 1477 726 1477 726 1477 711 c 0,34,35
 1477 694 1477 694 1466 682 c 128,-1,36
 1455 670 1455 670 1440 670 c 2,37,-1
 1049 670 l 2,38,39
 1035 670 1035 670 1023.5 682.5 c 128,-1,40
 1012 695 1012 695 1012 709 c 0,41,42
 1012 764 1012 764 983 815 c 128,-1,43
 954 866 954 866 904 896 c 128,-1,44
 854 926 854 926 797 926 c 0,45,46
 707 926 707 926 644.5 861 c 128,-1,47
 582 796 582 796 582 709 c 0,48,49
 582 693 582 693 569.5 681.5 c 128,-1,50
 557 670 557 670 543 670 c 2,51,-1
 154 670 l 2,14,15
EndSplineSet
EndChar

StartChar: m
Encoding: 109 109 80
Width: 1591
GlyphClass: 2
Flags: W
LayerCount: 2
Fore
SplineSet
154 272 m 2,0,1
 137 272 137 272 126 285 c 128,-1,2
 115 298 115 298 115 313 c 0,3,4
 115 330 115 330 126 342 c 128,-1,5
 137 354 137 354 154 354 c 2,6,-1
 543 354 l 2,7,8
 558 354 558 354 570 343 c 128,-1,9
 582 332 582 332 582 317 c 0,10,11
 582 228 582 228 644.5 163 c 128,-1,12
 707 98 707 98 797 98 c 0,13,14
 854 98 854 98 904 128 c 128,-1,15
 954 158 954 158 983 209.5 c 128,-1,16
 1012 261 1012 261 1012 317 c 0,17,18
 1012 330 1012 330 1023 342 c 128,-1,19
 1034 354 1034 354 1049 354 c 2,20,-1
 1440 354 l 2,21,22
 1455 354 1455 354 1466 342 c 128,-1,23
 1477 330 1477 330 1477 313 c 0,24,25
 1477 298 1477 298 1466 285 c 128,-1,26
 1455 272 1455 272 1440 272 c 2,27,-1
 1090 272 l 1,28,29
 1075 164 1075 164 990.5 90 c 128,-1,30
 906 16 906 16 797 16 c 0,31,32
 686 16 686 16 601.5 90 c 128,-1,33
 517 164 517 164 502 272 c 1,34,-1
 154 272 l 2,0,1
154 670 m 2,35,36
 137 670 137 670 126 682 c 128,-1,37
 115 694 115 694 115 711 c 0,38,39
 115 726 115 726 126 739 c 128,-1,40
 137 752 137 752 154 752 c 2,41,-1
 502 752 l 1,42,43
 513 825 513 825 555 883.5 c 128,-1,44
 597 942 597 942 660 975 c 128,-1,45
 723 1008 723 1008 797 1008 c 0,46,47
 852 1008 852 1008 900 989.5 c 128,-1,48
 948 971 948 971 988.5 936.5 c 128,-1,49
 1029 902 1029 902 1056 854 c 128,-1,50
 1083 806 1083 806 1090 752 c 1,51,-1
 1440 752 l 2,52,53
 1455 752 1455 752 1466 739 c 128,-1,54
 1477 726 1477 726 1477 711 c 0,55,56
 1477 694 1477 694 1466 682 c 128,-1,57
 1455 670 1455 670 1440 670 c 2,58,-1
 1049 670 l 2,59,60
 1035 670 1035 670 1023.5 682.5 c 128,-1,61
 1012 695 1012 695 1012 709 c 0,62,63
 1012 764 1012 764 983 815 c 128,-1,64
 954 866 954 866 904 896 c 128,-1,65
 854 926 854 926 797 926 c 0,66,67
 707 926 707 926 644.5 861 c 128,-1,68
 582 796 582 796 582 709 c 0,69,70
 582 693 582 693 569.5 681.5 c 128,-1,71
 557 670 557 670 543 670 c 2,72,-1
 154 670 l 2,35,36
EndSplineSet
EndChar

StartChar: n
Encoding: 110 110 81
Width: 2730
GlyphClass: 2
Flags: W
LayerCount: 2
Fore
SplineSet
135 477 m 2,0,1
 115 487 115 487 115 512 c 256,2,3
 115 537 115 537 135 547 c 2,4,-1
 1245 1155 l 1,5,6
 1263 1161 1263 1161 1266 1161 c 0,7,8
 1282 1161 1282 1161 1294.5 1148.5 c 128,-1,9
 1307 1136 1307 1136 1307 1120 c 0,10,11
 1307 1098 1307 1098 1288 1085 c 1,12,-1
 242 512 l 1,13,-1
 1288 -61 l 1,14,15
 1307 -74 1307 -74 1307 -96 c 0,16,17
 1307 -112 1307 -112 1294.5 -124.5 c 128,-1,18
 1282 -137 1282 -137 1266 -137 c 0,19,20
 1262 -137 1262 -137 1256.5 -135 c 128,-1,21
 1251 -133 1251 -133 1245 -131 c 1,22,-1
 135 477 l 2,0,1
788 477 m 2,23,24
 768 487 768 487 768 512 c 256,25,26
 768 537 768 537 788 547 c 2,27,-1
 1898 1155 l 2,28,29
 1902 1157 1902 1157 1906 1158.5 c 128,-1,30
 1910 1160 1910 1160 1912 1160.5 c 128,-1,31
 1914 1161 1914 1161 1919 1161 c 0,32,33
 1937 1161 1937 1161 1948.5 1149.5 c 128,-1,34
 1960 1138 1960 1138 1960 1120 c 0,35,36
 1960 1098 1960 1098 1942 1085 c 1,37,-1
 895 512 l 1,38,-1
 1942 -61 l 1,39,40
 1960 -74 1960 -74 1960 -96 c 0,41,42
 1960 -113 1960 -113 1948.5 -125 c 128,-1,43
 1937 -137 1937 -137 1919 -137 c 0,44,45
 1916 -137 1916 -137 1910 -135 c 128,-1,46
 1904 -133 1904 -133 1898 -131 c 1,47,-1
 788 477 l 2,23,24
1442 477 m 1,48,49
 1421 487 1421 487 1421 512 c 0,50,51
 1421 536 1421 536 1442 547 c 2,52,-1
 2552 1155 l 1,53,54
 2570 1161 2570 1161 2572 1161 c 0,55,56
 2590 1161 2590 1161 2601.5 1149.5 c 128,-1,57
 2613 1138 2613 1138 2613 1120 c 0,58,59
 2613 1098 2613 1098 2595 1085 c 1,60,-1
 1548 512 l 1,61,-1
 2595 -61 l 1,62,63
 2613 -74 2613 -74 2613 -96 c 0,64,65
 2613 -113 2613 -113 2601.5 -125 c 128,-1,66
 2590 -137 2590 -137 2572 -137 c 0,67,68
 2569 -137 2569 -137 2563.5 -135 c 128,-1,69
 2558 -133 2558 -133 2552 -131 c 1,70,-1
 1442 477 l 1,48,49
EndSplineSet
EndChar

StartChar: o
Encoding: 111 111 82
Width: 2730
GlyphClass: 2
Flags: W
LayerCount: 2
Fore
SplineSet
115 -96 m 0,0,1
 115 -73 115 -73 135 -61 c 1,2,-1
 1221 512 l 1,3,-1
 135 1085 l 1,4,5
 115 1097 115 1097 115 1120 c 0,6,7
 115 1136 115 1136 126.5 1148.5 c 128,-1,8
 138 1161 138 1161 156 1161 c 0,9,10
 161 1161 161 1161 167 1159 c 128,-1,11
 173 1157 173 1157 178 1155 c 2,12,-1
 1329 547 l 2,13,14
 1348 538 1348 538 1348 512 c 0,15,16
 1348 487 1348 487 1329 477 c 2,17,-1
 172 -133 l 1,18,19
 160 -137 160 -137 156 -137 c 0,20,21
 138 -137 138 -137 126.5 -124.5 c 128,-1,22
 115 -112 115 -112 115 -96 c 0,0,1
748 -96 m 0,23,24
 748 -73 748 -73 768 -61 c 1,25,-1
 1853 512 l 1,26,-1
 768 1085 l 1,27,28
 748 1097 748 1097 748 1120 c 0,29,30
 748 1136 748 1136 759.5 1148.5 c 128,-1,31
 771 1161 771 1161 788 1161 c 0,32,33
 792 1161 792 1161 799 1159 c 128,-1,34
 806 1157 806 1157 811 1155 c 2,35,-1
 1962 547 l 2,36,37
 1980 538 1980 538 1980 512 c 256,38,39
 1980 486 1980 486 1962 477 c 2,40,-1
 805 -133 l 1,41,42
 793 -137 793 -137 788 -137 c 0,43,44
 771 -137 771 -137 759.5 -124.5 c 128,-1,45
 748 -112 748 -112 748 -96 c 0,23,24
1380 -96 m 0,46,47
 1380 -73 1380 -73 1401 -61 c 2,48,-1
 2486 512 l 1,49,-1
 1401 1085 l 2,50,51
 1380 1097 1380 1097 1380 1120 c 0,52,53
 1380 1136 1380 1136 1392.5 1148.5 c 128,-1,54
 1405 1161 1405 1161 1421 1161 c 0,55,56
 1425 1161 1425 1161 1432 1159 c 128,-1,57
 1439 1157 1439 1157 1444 1155 c 2,58,-1
 2595 547 l 2,59,60
 2613 538 2613 538 2613 512 c 256,61,62
 2613 486 2613 486 2595 477 c 2,63,-1
 1438 -133 l 1,64,65
 1426 -137 1426 -137 1421 -137 c 0,66,67
 1405 -137 1405 -137 1392.5 -124.5 c 128,-1,68
 1380 -112 1380 -112 1380 -96 c 0,46,47
EndSplineSet
EndChar

StartChar: p
Encoding: 112 112 83
Width: 1024
GlyphClass: 2
Flags: W
LayerCount: 2
Fore
SplineSet
115 666 m 2,0,-1
 115 1384 l 2,1,2
 115 1397 115 1397 126 1409 c 128,-1,3
 137 1421 137 1421 152 1421 c 2,4,-1
 870 1421 l 2,5,6
 886 1421 886 1421 896.5 1409 c 128,-1,7
 907 1397 907 1397 907 1380 c 0,8,9
 907 1365 907 1365 896.5 1352 c 128,-1,10
 886 1339 886 1339 870 1339 c 2,11,-1
 197 1339 l 1,12,-1
 197 666 l 2,13,14
 197 650 197 650 183.5 638.5 c 128,-1,15
 170 627 170 627 156 627 c 0,16,17
 139 627 139 627 127 638 c 128,-1,18
 115 649 115 649 115 666 c 2,0,-1
EndSplineSet
EndChar

StartChar: q
Encoding: 113 113 84
Width: 1024
GlyphClass: 2
Flags: W
LayerCount: 2
Fore
SplineSet
825 666 m 2,0,-1
 825 1339 l 1,1,-1
 152 1339 l 2,2,3
 136 1339 136 1339 125.5 1352 c 128,-1,4
 115 1365 115 1365 115 1380 c 0,5,6
 115 1397 115 1397 125.5 1409 c 128,-1,7
 136 1421 136 1421 152 1421 c 2,8,-1
 870 1421 l 2,9,10
 885 1421 885 1421 896 1410 c 128,-1,11
 907 1399 907 1399 907 1384 c 2,12,-1
 907 666 l 2,13,14
 907 649 907 649 895 638 c 128,-1,15
 883 627 883 627 866 627 c 0,16,17
 852 627 852 627 838.5 638.5 c 128,-1,18
 825 650 825 650 825 666 c 2,0,-1
EndSplineSet
EndChar

StartChar: r
Encoding: 114 114 85
Width: 1937
GlyphClass: 2
Flags: W
LayerCount: 2
Fore
SplineSet
63 547 m 0,0,1
 63 792 63 792 185 1000.5 c 128,-1,2
 307 1209 307 1209 516.5 1331.5 c 128,-1,3
 726 1454 726 1454 971 1454 c 0,4,5
 1214 1454 1214 1454 1423 1332 c 128,-1,6
 1632 1210 1632 1210 1754 1001 c 128,-1,7
 1876 792 1876 792 1876 547 c 0,8,9
 1876 303 1876 303 1754 94 c 128,-1,10
 1632 -115 1632 -115 1423.5 -237.5 c 128,-1,11
 1215 -360 1215 -360 971 -360 c 0,12,13
 725 -360 725 -360 516 -237.5 c 128,-1,14
 307 -115 307 -115 185 94 c 128,-1,15
 63 303 63 303 63 547 c 0,0,1
145 547 m 0,16,17
 145 380 145 380 208.5 230 c 128,-1,18
 272 80 272 80 387 -35.5 c 128,-1,19
 502 -151 502 -151 652.5 -215 c 128,-1,20
 803 -279 803 -279 971 -279 c 0,21,22
 1193 -279 1193 -279 1383 -166.5 c 128,-1,23
 1573 -54 1573 -54 1683.5 135.5 c 128,-1,24
 1794 325 1794 325 1794 547 c 256,25,26
 1794 769 1794 769 1683 959 c 128,-1,27
 1572 1149 1572 1149 1382 1260.5 c 128,-1,28
 1192 1372 1192 1372 971 1372 c 0,29,30
 748 1372 748 1372 558 1260.5 c 128,-1,31
 368 1149 368 1149 256.5 959 c 128,-1,32
 145 769 145 769 145 547 c 0,16,17
430 0 m 1,33,-1
 430 59 l 1,34,35
 478 59 478 59 508 63 c 128,-1,36
 538 67 538 67 558 84 c 128,-1,37
 578 101 578 101 578 137 c 2,38,-1
 578 915 l 2,39,40
 578 968 578 968 540.5 980.5 c 128,-1,41
 503 993 503 993 430 993 c 1,42,-1
 430 1053 l 1,43,-1
 924 1053 l 2,44,45
 1013 1053 1013 1053 1113.5 1022.5 c 128,-1,46
 1214 992 1214 992 1285 928.5 c 128,-1,47
 1356 865 1356 865 1356 774 c 0,48,49
 1356 680 1356 680 1278 615.5 c 128,-1,50
 1200 551 1200 551 1094 520 c 1,51,52
 1159 494 1159 494 1206 445 c 128,-1,53
 1253 396 1253 396 1266 330 c 2,54,-1
 1294 195 l 2,55,56
 1302 152 1302 152 1312 115.5 c 128,-1,57
 1322 79 1322 79 1344 52 c 128,-1,58
 1366 25 1366 25 1403 25 c 0,59,60
 1448 25 1448 25 1472.5 64.5 c 128,-1,61
 1497 104 1497 104 1497 154 c 0,62,63
 1497 161 1497 161 1503.5 166.5 c 128,-1,64
 1510 172 1510 172 1518 172 c 2,65,-1
 1536 172 l 2,66,67
 1556 172 1556 172 1556 145 c 0,68,69
 1556 79 1556 79 1512 25 c 128,-1,70
 1468 -29 1468 -29 1403 -29 c 0,71,72
 1284 -29 1284 -29 1197 23 c 128,-1,73
 1110 75 1110 75 1110 186 c 2,74,-1
 1110 322 l 2,75,76
 1110 398 1110 398 1054 449 c 128,-1,77
 998 500 998 500 922 500 c 2,78,-1
 727 500 l 1,79,-1
 727 137 l 2,80,81
 727 101 727 101 747 84 c 128,-1,82
 767 67 767 67 796.5 63 c 128,-1,83
 826 59 826 59 874 59 c 1,84,-1
 874 0 l 1,85,86
 849 0 849 0 806.5 1.5 c 128,-1,87
 764 3 764 3 720.5 4.5 c 128,-1,88
 677 6 677 6 653 6 c 0,89,90
 616 6 616 6 597.5 5.5 c 128,-1,91
 579 5 579 5 550.5 4 c 128,-1,92
 522 3 522 3 490 1.5 c 128,-1,93
 458 0 458 0 430 0 c 1,33,-1
727 553 m 1,94,-1
 901 553 l 2,95,96
 987 553 987 553 1046 572 c 128,-1,97
 1105 591 1105 591 1138 640 c 128,-1,98
 1171 689 1171 689 1171 774 c 256,99,100
 1171 859 1171 859 1138 907.5 c 128,-1,101
 1105 956 1105 956 1045 974.5 c 128,-1,102
 985 993 985 993 901 993 c 2,103,-1
 801 993 l 2,104,105
 754 993 754 993 740.5 978.5 c 128,-1,106
 727 964 727 964 727 915 c 2,107,-1
 727 553 l 1,94,-1
EndSplineSet
EndChar

StartChar: s
Encoding: 115 115 86
Width: 1847
GlyphClass: 2
Flags: W
LayerCount: 2
Fore
SplineSet
16 547 m 0,0,1
 16 793 16 793 138.5 1001 c 128,-1,2
 261 1209 261 1209 470.5 1331.5 c 128,-1,3
 680 1454 680 1454 924 1454 c 0,4,5
 1167 1454 1167 1454 1376.5 1331.5 c 128,-1,6
 1586 1209 1586 1209 1708.5 1001 c 128,-1,7
 1831 793 1831 793 1831 547 c 0,8,9
 1831 302 1831 302 1708.5 93.5 c 128,-1,10
 1586 -115 1586 -115 1377 -237.5 c 128,-1,11
 1168 -360 1168 -360 924 -360 c 0,12,13
 679 -360 679 -360 470 -237.5 c 128,-1,14
 261 -115 261 -115 138.5 93.5 c 128,-1,15
 16 302 16 302 16 547 c 0,0,1
98 547 m 0,16,17
 98 380 98 380 162 229.5 c 128,-1,18
 226 79 226 79 341 -36 c 128,-1,19
 456 -151 456 -151 606.5 -215 c 128,-1,20
 757 -279 757 -279 924 -279 c 256,21,22
 1091 -279 1091 -279 1241 -215 c 128,-1,23
 1391 -151 1391 -151 1506 -36 c 128,-1,24
 1621 79 1621 79 1685 229.5 c 128,-1,25
 1749 380 1749 380 1749 547 c 0,26,27
 1749 770 1749 770 1637.5 959.5 c 128,-1,28
 1526 1149 1526 1149 1335.5 1260.5 c 128,-1,29
 1145 1372 1145 1372 924 1372 c 0,30,31
 702 1372 702 1372 512 1261 c 128,-1,32
 322 1150 322 1150 210 960 c 128,-1,33
 98 770 98 770 98 547 c 0,16,17
559 -12 m 2,34,-1
 559 332 l 2,35,36
 559 348 559 348 578 348 c 2,37,-1
 602 348 l 2,38,39
 608 348 608 348 613 343 c 128,-1,40
 618 338 618 338 618 332 c 0,41,42
 618 183 618 183 717 107 c 128,-1,43
 816 31 816 31 969 31 c 0,44,45
 1025 31 1025 31 1072 59 c 128,-1,46
 1119 87 1119 87 1147.5 134 c 128,-1,47
 1176 181 1176 181 1176 238 c 0,48,49
 1176 309 1176 309 1131.5 366 c 128,-1,50
 1087 423 1087 423 1018 440 c 2,51,-1
 795 492 l 1,52,53
 729 509 729 509 676 550.5 c 128,-1,54
 623 592 623 592 591 653 c 128,-1,55
 559 714 559 714 559 780 c 0,56,57
 559 863 559 863 604.5 932.5 c 128,-1,58
 650 1002 650 1002 722.5 1041.5 c 128,-1,59
 795 1081 795 1081 879 1081 c 0,60,61
 954 1081 954 1081 1018.5 1057 c 128,-1,62
 1083 1033 1083 1033 1133 983 c 1,63,-1
 1200 1075 l 1,64,65
 1206 1081 1206 1081 1214 1081 c 2,66,-1
 1225 1081 l 2,67,68
 1231 1081 1231 1081 1236 1076 c 128,-1,69
 1241 1071 1241 1071 1241 1065 c 2,70,-1
 1241 723 l 2,71,72
 1241 705 1241 705 1225 705 c 2,73,-1
 1200 705 l 2,74,75
 1182 705 1182 705 1182 723 c 1,76,77
 1168 859 1168 859 1090 943.5 c 128,-1,78
 1012 1028 1012 1028 879 1028 c 0,79,80
 827 1028 827 1028 779 1003.5 c 128,-1,81
 731 979 731 979 701.5 936 c 128,-1,82
 672 893 672 893 672 840 c 0,83,84
 672 775 672 775 715.5 724.5 c 128,-1,85
 759 674 759 674 825 655 c 1,86,-1
 1047 604 l 2,87,88
 1152 579 1152 579 1220 491 c 128,-1,89
 1288 403 1288 403 1288 293 c 0,90,91
 1288 208 1288 208 1245 133.5 c 128,-1,92
 1202 59 1202 59 1128.5 15 c 128,-1,93
 1055 -29 1055 -29 969 -29 c 0,94,95
 778 -29 778 -29 668 70 c 1,96,-1
 600 -23 l 1,97,98
 594 -29 594 -29 588 -29 c 2,99,-1
 578 -29 l 2,100,101
 571 -29 571 -29 565 -23 c 128,-1,102
 559 -17 559 -17 559 -12 c 2,34,-1
EndSplineSet
EndChar

StartChar: t
Encoding: 116 116 87
Width: 1364
GlyphClass: 2
Flags: W
LayerCount: 2
Fore
SplineSet
115 -8 m 2,0,-1
 115 696 l 2,1,2
 115 789 115 789 164.5 862.5 c 128,-1,3
 214 936 214 936 292.5 984 c 128,-1,4
 371 1032 371 1032 465.5 1056.5 c 128,-1,5
 560 1081 560 1081 643 1081 c 1,6,-1
 643 1470 l 2,7,8
 643 1486 643 1486 656 1496.5 c 128,-1,9
 669 1507 669 1507 684 1507 c 0,10,11
 701 1507 701 1507 713 1496.5 c 128,-1,12
 725 1486 725 1486 725 1470 c 2,13,-1
 725 1081 l 1,14,15
 811 1081 811 1081 902.5 1057 c 128,-1,16
 994 1033 994 1033 1074 984 c 128,-1,17
 1154 935 1154 935 1202.5 862.5 c 128,-1,18
 1251 790 1251 790 1251 696 c 2,19,-1
 1251 -8 l 2,20,21
 1251 -24 1251 -24 1239 -34.5 c 128,-1,22
 1227 -45 1227 -45 1210 -45 c 0,23,24
 1195 -45 1195 -45 1182 -34.5 c 128,-1,25
 1169 -24 1169 -24 1169 -8 c 2,26,-1
 1169 690 l 2,27,28
 1169 790 1169 790 1099.5 859.5 c 128,-1,29
 1030 929 1030 929 927 963 c 128,-1,30
 824 997 824 997 725 997 c 1,31,-1
 725 -8 l 2,32,33
 725 -24 725 -24 713 -34.5 c 128,-1,34
 701 -45 701 -45 684 -45 c 0,35,36
 669 -45 669 -45 656 -34.5 c 128,-1,37
 643 -24 643 -24 643 -8 c 2,38,-1
 643 999 l 1,39,40
 544 999 544 999 440.5 964.5 c 128,-1,41
 337 930 337 930 267 860 c 128,-1,42
 197 790 197 790 197 690 c 2,43,-1
 197 -8 l 2,44,45
 197 -24 197 -24 184 -34.5 c 128,-1,46
 171 -45 171 -45 156 -45 c 0,47,48
 139 -45 139 -45 127 -34.5 c 128,-1,49
 115 -24 115 -24 115 -8 c 2,0,-1
EndSplineSet
EndChar

StartChar: u
Encoding: 117 117 88
Width: 1591
GlyphClass: 2
Flags: W
LayerCount: 2
Fore
SplineSet
756 -156 m 2,0,-1
 756 471 l 1,1,-1
 154 471 l 2,2,3
 137 471 137 471 126 484 c 128,-1,4
 115 497 115 497 115 512 c 256,5,6
 115 527 115 527 126 540 c 128,-1,7
 137 553 137 553 154 553 c 2,8,-1
 756 553 l 1,9,-1
 756 1180 l 2,10,11
 756 1195 756 1195 768 1206 c 128,-1,12
 780 1217 780 1217 797 1217 c 0,13,14
 812 1217 812 1217 825 1206 c 128,-1,15
 838 1195 838 1195 838 1180 c 2,16,-1
 838 553 l 1,17,-1
 1442 553 l 2,18,19
 1457 553 1457 553 1468 540 c 128,-1,20
 1479 527 1479 527 1479 512 c 256,21,22
 1479 497 1479 497 1468 484 c 128,-1,23
 1457 471 1457 471 1442 471 c 2,24,-1
 838 471 l 1,25,-1
 838 -156 l 2,26,27
 838 -171 838 -171 825 -182 c 128,-1,28
 812 -193 812 -193 797 -193 c 0,29,30
 780 -193 780 -193 768 -182 c 128,-1,31
 756 -171 756 -171 756 -156 c 2,0,-1
694 1460 m 1,32,-1
 694 1473 l 1,33,34
 698 1512 698 1512 724.5 1538.5 c 128,-1,35
 751 1565 751 1565 791 1569 c 1,36,-1
 803 1569 l 1,37,38
 830 1566 830 1566 850.5 1553.5 c 128,-1,39
 871 1541 871 1541 883.5 1520.5 c 128,-1,40
 896 1500 896 1500 899 1473 c 1,41,-1
 899 1460 l 1,42,43
 895 1421 895 1421 868.5 1394.5 c 128,-1,44
 842 1368 842 1368 803 1364 c 1,45,-1
 791 1364 l 1,46,47
 751 1368 751 1368 724.5 1394.5 c 128,-1,48
 698 1421 698 1421 694 1460 c 1,32,-1
EndSplineSet
EndChar

StartChar: v
Encoding: 118 118 89
Width: 1591
GlyphClass: 2
Flags: W
LayerCount: 2
Fore
SplineSet
455 272 m 0,0,1
 352 272 352 272 275 333.5 c 128,-1,2
 198 395 198 395 156.5 492 c 128,-1,3
 115 589 115 589 115 688 c 2,4,-1
 115 700 l 1,5,6
 121 752 121 752 143 752 c 0,7,8
 166 752 166 752 172 700 c 1,9,10
 172 621 172 621 208.5 548 c 128,-1,11
 245 475 245 475 309.5 431 c 128,-1,12
 374 387 374 387 455 387 c 0,13,14
 545 387 545 387 618 432.5 c 128,-1,15
 691 478 691 478 792.5 569.5 c 128,-1,16
 894 661 894 661 970 706.5 c 128,-1,17
 1046 752 1046 752 1139 752 c 0,18,19
 1242 752 1242 752 1319 690.5 c 128,-1,20
 1396 629 1396 629 1437.5 532 c 128,-1,21
 1479 435 1479 435 1479 336 c 2,22,-1
 1479 324 l 1,23,24
 1473 272 1473 272 1450 272 c 256,25,26
 1427 272 1427 272 1421 324 c 1,27,28
 1421 403 1421 403 1384.5 476 c 128,-1,29
 1348 549 1348 549 1284 593 c 128,-1,30
 1220 637 1220 637 1139 637 c 0,31,32
 1049 637 1049 637 976 591.5 c 128,-1,33
 903 546 903 546 801.5 454.5 c 128,-1,34
 700 363 700 363 624.5 317.5 c 128,-1,35
 549 272 549 272 455 272 c 0,0,1
EndSplineSet
EndChar

StartChar: w
Encoding: 119 119 90
Width: 1591
GlyphClass: 2
Flags: W
LayerCount: 2
Fore
SplineSet
154 74 m 2,0,1
 137 74 137 74 126 86 c 128,-1,2
 115 98 115 98 115 115 c 0,3,4
 115 130 115 130 126 143 c 128,-1,5
 137 156 137 156 154 156 c 2,6,-1
 1442 156 l 2,7,8
 1457 156 1457 156 1468 143 c 128,-1,9
 1479 130 1479 130 1479 115 c 0,10,11
 1479 98 1479 98 1468 86 c 128,-1,12
 1457 74 1457 74 1442 74 c 2,13,-1
 154 74 l 2,0,1
455 512 m 0,14,15
 357 512 357 512 279.5 564.5 c 128,-1,16
 202 617 202 617 158.5 703 c 128,-1,17
 115 789 115 789 115 887 c 2,18,-1
 115 899 l 1,19,20
 121 950 121 950 143 950 c 0,21,22
 166 950 166 950 172 899 c 1,23,24
 172 789 172 789 257 708 c 128,-1,25
 342 627 342 627 455 627 c 0,26,27
 543 627 543 627 616.5 667.5 c 128,-1,28
 690 708 690 708 792 787.5 c 128,-1,29
 894 867 894 867 971 908.5 c 128,-1,30
 1048 950 1048 950 1139 950 c 0,31,32
 1285 950 1285 950 1382 837 c 128,-1,33
 1479 724 1479 724 1479 575 c 2,34,-1
 1479 563 l 1,35,36
 1473 512 1473 512 1450 512 c 256,37,38
 1427 512 1427 512 1421 563 c 1,39,40
 1421 637 1421 637 1381.5 699.5 c 128,-1,41
 1342 762 1342 762 1277 799 c 128,-1,42
 1212 836 1212 836 1139 836 c 0,43,44
 1049 836 1049 836 974.5 794.5 c 128,-1,45
 900 753 900 753 796 672 c 128,-1,46
 692 591 692 591 619.5 551.5 c 128,-1,47
 547 512 547 512 455 512 c 0,14,15
EndSplineSet
EndChar

StartChar: x
Encoding: 120 120 91
Width: 1024
GlyphClass: 2
Flags: W
LayerCount: 2
Fore
SplineSet
115 -8 m 2,0,-1
 115 711 l 2,1,2
 115 728 115 728 127 739 c 128,-1,3
 139 750 139 750 156 750 c 0,4,5
 170 750 170 750 183.5 738.5 c 128,-1,6
 197 727 197 727 197 711 c 2,7,-1
 197 37 l 1,8,-1
 870 37 l 2,9,10
 886 37 886 37 896.5 24 c 128,-1,11
 907 11 907 11 907 -4 c 0,12,13
 907 -21 907 -21 896.5 -33 c 128,-1,14
 886 -45 886 -45 870 -45 c 2,15,-1
 152 -45 l 2,16,17
 139 -45 139 -45 127 -33 c 128,-1,18
 115 -21 115 -21 115 -8 c 2,0,-1
EndSplineSet
EndChar

StartChar: y
Encoding: 121 121 92
Width: 1024
GlyphClass: 2
Flags: W
LayerCount: 2
Fore
SplineSet
152 -45 m 2,0,1
 136 -45 136 -45 125.5 -33 c 128,-1,2
 115 -21 115 -21 115 -4 c 0,3,4
 115 11 115 11 125.5 24 c 128,-1,5
 136 37 136 37 152 37 c 2,6,-1
 825 37 l 1,7,-1
 825 711 l 2,8,9
 825 727 825 727 838.5 738.5 c 128,-1,10
 852 750 852 750 866 750 c 0,11,12
 883 750 883 750 895 739 c 128,-1,13
 907 728 907 728 907 711 c 2,14,-1
 907 -8 l 2,15,16
 907 -23 907 -23 895 -34 c 128,-1,17
 883 -45 883 -45 870 -45 c 2,18,-1
 152 -45 l 2,0,1
EndSplineSet
EndChar

StartChar: z
Encoding: 122 122 93
Width: 1706
GlyphClass: 2
Flags: W
LayerCount: 2
Fore
SplineSet
119 256 m 0,0,1
 98 256 98 256 98 274 c 2,2,-1
 98 1147 l 2,3,4
 98 1155 98 1155 105 1160 c 128,-1,5
 112 1165 112 1165 119 1165 c 0,6,7
 130 1165 130 1165 137 1155 c 1,8,9
 369 731 369 731 831 731 c 1,10,11
 831 888 831 888 783 1017.5 c 128,-1,12
 735 1147 735 1147 641.5 1249 c 128,-1,13
 548 1351 548 1351 410 1427 c 1,14,15
 397 1436 397 1436 397 1446 c 0,16,17
 397 1454 397 1454 402 1460 c 128,-1,18
 407 1466 407 1466 416 1466 c 2,19,-1
 1290 1466 l 2,20,21
 1298 1466 1298 1466 1303.5 1460 c 128,-1,22
 1309 1454 1309 1454 1309 1446 c 0,23,24
 1309 1436 1309 1436 1296 1427 c 1,25,26
 1158 1351 1158 1351 1064 1248.5 c 128,-1,27
 970 1146 970 1146 922 1017 c 128,-1,28
 874 888 874 888 874 731 c 1,29,30
 1336 731 1336 731 1571 1155 c 1,31,32
 1574 1165 1574 1165 1589 1165 c 0,33,34
 1595 1165 1595 1165 1602.5 1160 c 128,-1,35
 1610 1155 1610 1155 1610 1147 c 2,36,-1
 1610 274 l 2,37,38
 1610 267 1610 267 1602.5 261.5 c 128,-1,39
 1595 256 1595 256 1589 256 c 0,40,41
 1574 256 1574 256 1571 266 c 1,42,43
 1337 690 1337 690 874 690 c 1,44,45
 874 533 874 533 922 404 c 128,-1,46
 970 275 970 275 1064 172.5 c 128,-1,47
 1158 70 1158 70 1296 -6 c 0,48,49
 1309 -13 1309 -13 1309 -25 c 0,50,51
 1309 -33 1309 -33 1303 -39 c 128,-1,52
 1297 -45 1297 -45 1290 -45 c 2,53,-1
 416 -45 l 2,54,55
 409 -45 409 -45 403 -39 c 128,-1,56
 397 -33 397 -33 397 -25 c 0,57,58
 397 -13 397 -13 410 -6 c 0,59,60
 548 70 548 70 641.5 172 c 128,-1,61
 735 274 735 274 783 403.5 c 128,-1,62
 831 533 831 533 831 690 c 1,63,64
 598 690 598 690 424.5 582.5 c 128,-1,65
 251 475 251 475 137 266 c 1,66,67
 130 256 130 256 119 256 c 0,0,1
EndSplineSet
EndChar

StartChar: braceleft
Encoding: 123 123 94
Width: 1024
GlyphClass: 2
Flags: W
LayerCount: 2
Fore
SplineSet
115 236 m 2,0,-1
 115 1456 l 2,1,2
 115 1550 115 1550 176 1613.5 c 128,-1,3
 237 1677 237 1677 330 1706 c 128,-1,4
 423 1735 423 1735 512 1735 c 0,5,6
 577 1735 577 1735 647 1719.5 c 128,-1,7
 717 1704 717 1704 776.5 1670.5 c 128,-1,8
 836 1637 836 1637 872.5 1582.5 c 128,-1,9
 909 1528 909 1528 909 1456 c 2,10,-1
 909 1212 l 1,11,12
 904 1180 904 1180 882 1159.5 c 128,-1,13
 860 1139 860 1139 827 1139 c 0,14,15
 796 1139 796 1139 774.5 1158.5 c 128,-1,16
 753 1178 753 1178 745 1212 c 1,17,-1
 745 1442 l 2,18,19
 745 1512 745 1512 671 1541.5 c 128,-1,20
 597 1571 597 1571 512 1571 c 256,21,22
 427 1571 427 1571 353 1541.5 c 128,-1,23
 279 1512 279 1512 279 1442 c 2,24,-1
 279 250 l 2,25,26
 279 178 279 178 353 148.5 c 128,-1,27
 427 119 427 119 512 119 c 256,28,29
 597 119 597 119 671 148.5 c 128,-1,30
 745 178 745 178 745 250 c 2,31,-1
 745 477 l 1,32,33
 753 510 753 510 774 530.5 c 128,-1,34
 795 551 795 551 827 551 c 0,35,36
 861 551 861 551 882.5 530 c 128,-1,37
 904 509 904 509 909 477 c 1,38,-1
 909 236 l 2,39,40
 909 141 909 141 848.5 78 c 128,-1,41
 788 15 788 15 695 -15 c 128,-1,42
 602 -45 602 -45 512 -45 c 256,43,44
 422 -45 422 -45 329 -15 c 128,-1,45
 236 15 236 15 175.5 78 c 128,-1,46
 115 141 115 141 115 236 c 2,0,-1
EndSplineSet
EndChar

StartChar: bar
Encoding: 124 124 95
Width: 1137
GlyphClass: 2
Flags: W
LayerCount: 2
Fore
SplineSet
487 -362 m 1,0,-1
 487 719 l 1,1,-1
 193 719 l 1,2,3
 125 725 125 725 115 795 c 1,4,-1
 115 809 l 1,5,6
 119 839 119 839 140.5 859.5 c 128,-1,7
 162 880 162 880 193 883 c 1,8,-1
 946 883 l 1,9,10
 979 880 979 880 999.5 859.5 c 128,-1,11
 1020 839 1020 839 1024 809 c 1,12,-1
 1024 795 l 1,13,14
 1020 764 1020 764 999.5 743 c 128,-1,15
 979 722 979 722 946 719 c 1,16,-1
 651 719 l 1,17,-1
 651 -362 l 1,18,19
 644 -395 644 -395 623 -415.5 c 128,-1,20
 602 -436 602 -436 569 -436 c 0,21,22
 503 -436 503 -436 487 -362 c 1,0,-1
EndSplineSet
EndChar

StartChar: braceright
Encoding: 125 125 96
Width: 1591
GlyphClass: 2
Flags: W
LayerCount: 2
Fore
SplineSet
115 512 m 0,0,1
 115 652 115 652 168 775 c 128,-1,2
 221 898 221 898 315.5 993.5 c 128,-1,3
 410 1089 410 1089 534.5 1141.5 c 128,-1,4
 659 1194 659 1194 797 1194 c 256,5,6
 935 1194 935 1194 1060 1141 c 128,-1,7
 1185 1088 1185 1088 1279 993.5 c 128,-1,8
 1373 899 1373 899 1426 775.5 c 128,-1,9
 1479 652 1479 652 1479 512 c 0,10,11
 1479 374 1479 374 1425.5 249 c 128,-1,12
 1372 124 1372 124 1278.5 30.5 c 128,-1,13
 1185 -63 1185 -63 1060 -116.5 c 128,-1,14
 935 -170 935 -170 797 -170 c 256,15,16
 659 -170 659 -170 534.5 -116.5 c 128,-1,17
 410 -63 410 -63 316 31 c 128,-1,18
 222 125 222 125 168.5 249.5 c 128,-1,19
 115 374 115 374 115 512 c 0,0,1
797 -111 m 0,20,21
 922 -111 922 -111 1036.5 -61.5 c 128,-1,22
 1151 -12 1151 -12 1236 73 c 128,-1,23
 1321 158 1321 158 1370 272 c 128,-1,24
 1419 386 1419 386 1419 512 c 0,25,26
 1419 640 1419 640 1369.5 754 c 128,-1,27
 1320 868 1320 868 1235.5 953 c 128,-1,28
 1151 1038 1151 1038 1036.5 1086.5 c 128,-1,29
 922 1135 922 1135 797 1135 c 0,30,31
 673 1135 673 1135 559.5 1087 c 128,-1,32
 446 1039 446 1039 359.5 952.5 c 128,-1,33
 273 866 273 866 223.5 751.5 c 128,-1,34
 174 637 174 637 174 512 c 0,35,36
 174 388 174 388 223 274.5 c 128,-1,37
 272 161 272 161 359 74 c 128,-1,38
 446 -13 446 -13 559.5 -62 c 128,-1,39
 673 -111 673 -111 797 -111 c 0,20,21
512 512 m 256,40,41
 512 588 512 588 551 653.5 c 128,-1,42
 590 719 590 719 655.5 758 c 128,-1,43
 721 797 721 797 797 797 c 0,44,45
 872 797 872 797 938 757.5 c 128,-1,46
 1004 718 1004 718 1042.5 653 c 128,-1,47
 1081 588 1081 588 1081 512 c 256,48,49
 1081 436 1081 436 1042.5 371 c 128,-1,50
 1004 306 1004 306 938 266.5 c 128,-1,51
 872 227 872 227 797 227 c 0,52,53
 721 227 721 227 655.5 266 c 128,-1,54
 590 305 590 305 551 370.5 c 128,-1,55
 512 436 512 436 512 512 c 256,40,41
797 309 m 0,56,57
 851 309 851 309 897.5 336.5 c 128,-1,58
 944 364 944 364 971.5 410.5 c 128,-1,59
 999 457 999 457 999 512 c 256,60,61
 999 567 999 567 971.5 613.5 c 128,-1,62
 944 660 944 660 897.5 687.5 c 128,-1,63
 851 715 851 715 797 715 c 0,64,65
 742 715 742 715 695.5 687.5 c 128,-1,66
 649 660 649 660 621.5 613.5 c 128,-1,67
 594 567 594 567 594 512 c 256,68,69
 594 457 594 457 621.5 410.5 c 128,-1,70
 649 364 649 364 695.5 336.5 c 128,-1,71
 742 309 742 309 797 309 c 0,56,57
EndSplineSet
EndChar

StartChar: asciitilde
Encoding: 126 126 97
Width: 1591
GlyphClass: 2
Flags: W
LayerCount: 2
Fore
SplineSet
115 512 m 0,0,1
 115 652 115 652 168 775 c 128,-1,2
 221 898 221 898 315.5 993.5 c 128,-1,3
 410 1089 410 1089 534.5 1141.5 c 128,-1,4
 659 1194 659 1194 797 1194 c 256,5,6
 935 1194 935 1194 1060 1141 c 128,-1,7
 1185 1088 1185 1088 1279 993.5 c 128,-1,8
 1373 899 1373 899 1426 775.5 c 128,-1,9
 1479 652 1479 652 1479 512 c 0,10,11
 1479 374 1479 374 1425.5 249 c 128,-1,12
 1372 124 1372 124 1278.5 30.5 c 128,-1,13
 1185 -63 1185 -63 1060 -116.5 c 128,-1,14
 935 -170 935 -170 797 -170 c 256,15,16
 659 -170 659 -170 534.5 -116.5 c 128,-1,17
 410 -63 410 -63 316 31 c 128,-1,18
 222 125 222 125 168.5 249.5 c 128,-1,19
 115 374 115 374 115 512 c 0,0,1
797 -111 m 0,20,21
 922 -111 922 -111 1036.5 -61.5 c 128,-1,22
 1151 -12 1151 -12 1236 73 c 128,-1,23
 1321 158 1321 158 1370 272 c 128,-1,24
 1419 386 1419 386 1419 512 c 0,25,26
 1419 640 1419 640 1369.5 754 c 128,-1,27
 1320 868 1320 868 1235.5 953 c 128,-1,28
 1151 1038 1151 1038 1036.5 1086.5 c 128,-1,29
 922 1135 922 1135 797 1135 c 0,30,31
 673 1135 673 1135 559.5 1087 c 128,-1,32
 446 1039 446 1039 359.5 952.5 c 128,-1,33
 273 866 273 866 223.5 751.5 c 128,-1,34
 174 637 174 637 174 512 c 0,35,36
 174 388 174 388 223 274.5 c 128,-1,37
 272 161 272 161 359 74 c 128,-1,38
 446 -13 446 -13 559.5 -62 c 128,-1,39
 673 -111 673 -111 797 -111 c 0,20,21
477 262 m 0,40,41
 452 262 452 262 435 281 c 128,-1,42
 418 300 418 300 418 324 c 0,43,44
 418 356 418 356 446 373 c 1,45,-1
 741 512 l 1,46,-1
 446 651 l 1,47,48
 418 668 418 668 418 700 c 0,49,50
 418 724 418 724 435 743 c 128,-1,51
 452 762 452 762 477 762 c 0,52,53
 496 762 496 762 506 752 c 1,54,-1
 768 561 l 1,55,-1
 737 895 l 1,56,-1
 737 901 l 2,57,58
 737 923 737 923 755.5 938.5 c 128,-1,59
 774 954 774 954 797 954 c 256,60,61
 820 954 820 954 838 938.5 c 128,-1,62
 856 923 856 923 856 901 c 2,63,-1
 856 895 l 1,64,-1
 825 561 l 1,65,-1
 1087 752 l 1,66,67
 1098 762 1098 762 1116 762 c 0,68,69
 1142 762 1142 762 1159 743.5 c 128,-1,70
 1176 725 1176 725 1176 700 c 0,71,72
 1176 669 1176 669 1147 651 c 1,73,-1
 852 512 l 1,74,-1
 1147 373 l 1,75,76
 1176 355 1176 355 1176 324 c 0,77,78
 1176 299 1176 299 1159 280.5 c 128,-1,79
 1142 262 1142 262 1116 262 c 0,80,81
 1098 262 1098 262 1087 272 c 1,82,-1
 825 463 l 1,83,-1
 856 129 l 1,84,-1
 856 125 l 2,85,86
 856 103 856 103 837.5 87.5 c 128,-1,87
 819 72 819 72 797 72 c 0,88,89
 776 72 776 72 756.5 87.5 c 128,-1,90
 737 103 737 103 737 125 c 2,91,-1
 737 129 l 1,92,-1
 768 463 l 1,93,-1
 506 272 l 1,94,95
 496 262 496 262 477 262 c 0,40,41
EndSplineSet
EndChar

StartChar: uni007F
Encoding: 127 127 98
AltUni2: 0000c4.ffffffff.0
Width: 1591
GlyphClass: 2
Flags: W
LayerCount: 2
Fore
SplineSet
115 512 m 0,0,1
 115 652 115 652 168 775 c 128,-1,2
 221 898 221 898 315.5 993.5 c 128,-1,3
 410 1089 410 1089 534.5 1141.5 c 128,-1,4
 659 1194 659 1194 797 1194 c 256,5,6
 935 1194 935 1194 1060 1141 c 128,-1,7
 1185 1088 1185 1088 1279 993.5 c 128,-1,8
 1373 899 1373 899 1426 775.5 c 128,-1,9
 1479 652 1479 652 1479 512 c 0,10,11
 1479 374 1479 374 1425.5 249 c 128,-1,12
 1372 124 1372 124 1278.5 30.5 c 128,-1,13
 1185 -63 1185 -63 1060 -116.5 c 128,-1,14
 935 -170 935 -170 797 -170 c 256,15,16
 659 -170 659 -170 534.5 -116.5 c 128,-1,17
 410 -63 410 -63 316 31 c 128,-1,18
 222 125 222 125 168.5 249.5 c 128,-1,19
 115 374 115 374 115 512 c 0,0,1
797 -111 m 0,20,21
 922 -111 922 -111 1036.5 -61.5 c 128,-1,22
 1151 -12 1151 -12 1236 73 c 128,-1,23
 1321 158 1321 158 1370 272 c 128,-1,24
 1419 386 1419 386 1419 512 c 0,25,26
 1419 640 1419 640 1369.5 754 c 128,-1,27
 1320 868 1320 868 1235.5 953 c 128,-1,28
 1151 1038 1151 1038 1036.5 1086.5 c 128,-1,29
 922 1135 922 1135 797 1135 c 0,30,31
 673 1135 673 1135 559.5 1087 c 128,-1,32
 446 1039 446 1039 359.5 952.5 c 128,-1,33
 273 866 273 866 223.5 751.5 c 128,-1,34
 174 637 174 637 174 512 c 0,35,36
 174 388 174 388 223 274.5 c 128,-1,37
 272 161 272 161 359 74 c 128,-1,38
 446 -13 446 -13 559.5 -62 c 128,-1,39
 673 -111 673 -111 797 -111 c 0,20,21
483 483 m 2,40,41
 474 483 474 483 465.5 492.5 c 128,-1,42
 457 502 457 502 457 514 c 0,43,44
 457 524 457 524 465.5 533.5 c 128,-1,45
 474 543 474 543 483 543 c 2,46,-1
 1110 543 l 2,47,48
 1120 543 1120 543 1128.5 533.5 c 128,-1,49
 1137 524 1137 524 1137 514 c 0,50,51
 1137 502 1137 502 1128.5 492.5 c 128,-1,52
 1120 483 1120 483 1110 483 c 2,53,-1
 483 483 l 2,40,41
EndSplineSet
EndChar

StartChar: exclamdown
Encoding: 161 161 100
Width: 1591
GlyphClass: 2
Flags: W
LayerCount: 2
Fore
SplineSet
115 39 m 2,0,-1
 115 1370 l 2,1,2
 115 1384 115 1384 126.5 1395.5 c 128,-1,3
 138 1407 138 1407 154 1407 c 2,4,-1
 1440 1407 l 2,5,6
 1454 1407 1454 1407 1465.5 1395.5 c 128,-1,7
 1477 1384 1477 1384 1477 1370 c 2,8,-1
 1477 39 l 2,9,10
 1477 24 1477 24 1465 12 c 128,-1,11
 1453 0 1453 0 1440 0 c 2,12,-1
 154 0 l 2,13,14
 139 0 139 0 127 12 c 128,-1,15
 115 24 115 24 115 39 c 2,0,-1
197 82 m 1,16,-1
 1395 82 l 1,17,-1
 1395 1325 l 1,18,-1
 197 1325 l 1,19,-1
 197 82 l 1,16,-1
684 705 m 0,20,21
 684 751 684 751 718 784 c 128,-1,22
 752 817 752 817 797 817 c 0,23,24
 825 817 825 817 852 802 c 128,-1,25
 879 787 879 787 894 760 c 128,-1,26
 909 733 909 733 909 705 c 0,27,28
 909 660 909 660 876 626 c 128,-1,29
 843 592 843 592 797 592 c 0,30,31
 752 592 752 592 718 626 c 128,-1,32
 684 660 684 660 684 705 c 0,20,21
EndSplineSet
EndChar

StartChar: cent
Encoding: 162 162 101
Width: 1591
GlyphClass: 2
Flags: W
LayerCount: 2
Fore
SplineSet
115 39 m 2,0,-1
 115 1370 l 2,1,2
 115 1384 115 1384 126.5 1395.5 c 128,-1,3
 138 1407 138 1407 154 1407 c 2,4,-1
 1440 1407 l 2,5,6
 1454 1407 1454 1407 1465.5 1395.5 c 128,-1,7
 1477 1384 1477 1384 1477 1370 c 2,8,-1
 1477 39 l 2,9,10
 1477 24 1477 24 1465 12 c 128,-1,11
 1453 0 1453 0 1440 0 c 2,12,-1
 154 0 l 2,13,14
 139 0 139 0 127 12 c 128,-1,15
 115 24 115 24 115 39 c 2,0,-1
197 82 m 1,16,-1
 756 82 l 1,17,-1
 756 664 l 1,18,-1
 197 664 l 1,19,-1
 197 82 l 1,16,-1
838 82 m 1,20,-1
 1395 82 l 1,21,-1
 1395 664 l 1,22,-1
 838 664 l 1,23,-1
 838 82 l 1,20,-1
197 745 m 1,24,-1
 756 745 l 1,25,-1
 756 1325 l 1,26,-1
 197 1325 l 1,27,-1
 197 745 l 1,24,-1
838 745 m 1,28,-1
 1395 745 l 1,29,-1
 1395 1325 l 1,30,-1
 838 1325 l 1,31,-1
 838 745 l 1,28,-1
EndSplineSet
EndChar

StartChar: sterling
Encoding: 163 163 102
Width: 1591
GlyphClass: 2
Flags: W
LayerCount: 2
Fore
SplineSet
115 39 m 2,0,-1
 115 1370 l 2,1,2
 115 1384 115 1384 126.5 1395.5 c 128,-1,3
 138 1407 138 1407 154 1407 c 2,4,-1
 1440 1407 l 2,5,6
 1454 1407 1454 1407 1465.5 1395.5 c 128,-1,7
 1477 1384 1477 1384 1477 1370 c 2,8,-1
 1477 39 l 2,9,10
 1477 24 1477 24 1465 12 c 128,-1,11
 1453 0 1453 0 1440 0 c 2,12,-1
 154 0 l 2,13,14
 139 0 139 0 127 12 c 128,-1,15
 115 24 115 24 115 39 c 2,0,-1
252 82 m 1,16,-1
 1339 82 l 1,17,-1
 797 643 l 1,18,-1
 252 82 l 1,16,-1
197 143 m 1,19,-1
 737 705 l 1,20,-1
 197 1264 l 1,21,-1
 197 143 l 1,19,-1
1395 143 m 1,22,-1
 1395 1264 l 1,23,-1
 854 705 l 1,24,-1
 1395 143 l 1,22,-1
797 764 m 1,25,-1
 1339 1325 l 1,26,-1
 252 1325 l 1,27,-1
 797 764 l 1,25,-1
EndSplineSet
EndChar

StartChar: currency
Encoding: 164 164 103
Width: 1591
GlyphClass: 2
Flags: W
LayerCount: 2
Fore
SplineSet
115 39 m 2,0,-1
 115 1370 l 2,1,2
 115 1384 115 1384 126.5 1395.5 c 128,-1,3
 138 1407 138 1407 154 1407 c 2,4,-1
 1440 1407 l 2,5,6
 1454 1407 1454 1407 1465.5 1395.5 c 128,-1,7
 1477 1384 1477 1384 1477 1370 c 2,8,-1
 1477 39 l 2,9,10
 1477 24 1477 24 1465 12 c 128,-1,11
 1453 0 1453 0 1440 0 c 2,12,-1
 154 0 l 2,13,14
 139 0 139 0 127 12 c 128,-1,15
 115 24 115 24 115 39 c 2,0,-1
197 82 m 1,16,-1
 1395 82 l 1,17,-1
 1395 1325 l 1,18,-1
 197 1325 l 1,19,-1
 197 82 l 1,16,-1
EndSplineSet
EndChar

StartChar: yen
Encoding: 165 165 104
Width: 1591
GlyphClass: 2
Flags: W
LayerCount: 2
Fore
SplineSet
115 39 m 2,0,-1
 115 1370 l 2,1,2
 115 1384 115 1384 126.5 1395.5 c 128,-1,3
 138 1407 138 1407 154 1407 c 2,4,-1
 1440 1407 l 2,5,6
 1454 1407 1454 1407 1465.5 1395.5 c 128,-1,7
 1477 1384 1477 1384 1477 1370 c 2,8,-1
 1477 39 l 2,9,10
 1477 24 1477 24 1465 12 c 128,-1,11
 1453 0 1453 0 1440 0 c 2,12,-1
 154 0 l 2,13,14
 139 0 139 0 127 12 c 128,-1,15
 115 24 115 24 115 39 c 2,0,-1
EndSplineSet
EndChar

StartChar: brokenbar
Encoding: 166 166 105
Width: 567
GlyphClass: 2
Flags: W
LayerCount: 2
Fore
SplineSet
115 39 m 2,0,-1
 115 346 l 2,1,2
 115 360 115 360 126.5 371.5 c 128,-1,3
 138 383 138 383 154 383 c 2,4,-1
 416 383 l 2,5,6
 430 383 430 383 441.5 371.5 c 128,-1,7
 453 360 453 360 453 346 c 2,8,-1
 453 39 l 2,9,10
 453 24 453 24 441 12 c 128,-1,11
 429 0 429 0 416 0 c 2,12,-1
 154 0 l 2,13,14
 139 0 139 0 127 12 c 128,-1,15
 115 24 115 24 115 39 c 2,0,-1
EndSplineSet
EndChar

StartChar: section
Encoding: 167 167 106
Width: 1364
GlyphClass: 2
Flags: W
LayerCount: 2
Fore
SplineSet
651 -260 m 1,0,-1
 121 575 l 2,1,2
 115 585 115 585 115 598 c 0,3,4
 115 609 115 609 121 618 c 2,5,-1
 647 1448 l 1,6,7
 661 1466 661 1466 682 1466 c 0,8,9
 704 1466 704 1466 713 1454 c 1,10,-1
 1243 618 l 2,11,12
 1249 609 1249 609 1249 598 c 0,13,14
 1249 586 1249 586 1243 575 c 2,15,-1
 717 -254 l 1,16,17
 703 -272 703 -272 682 -272 c 0,18,19
 660 -272 660 -272 651 -260 c 1,0,-1
682 -156 m 1,20,-1
 1159 598 l 1,21,-1
 682 1350 l 1,22,-1
 205 598 l 1,23,-1
 682 -156 l 1,20,-1
EndSplineSet
EndChar

StartChar: dieresis
Encoding: 168 168 107
Width: 1364
GlyphClass: 2
Flags: W
LayerCount: 2
Fore
SplineSet
651 -260 m 1,0,-1
 121 575 l 2,1,2
 115 585 115 585 115 598 c 0,3,4
 115 609 115 609 121 618 c 2,5,-1
 647 1448 l 1,6,7
 661 1466 661 1466 682 1466 c 0,8,9
 704 1466 704 1466 713 1454 c 1,10,-1
 1243 618 l 2,11,12
 1249 609 1249 609 1249 598 c 0,13,14
 1249 586 1249 586 1243 575 c 2,15,-1
 717 -254 l 1,16,17
 703 -272 703 -272 682 -272 c 0,18,19
 660 -272 660 -272 651 -260 c 1,0,-1
EndSplineSet
EndChar

StartChar: copyright
Encoding: 169 169 108
Width: 1591
GlyphClass: 2
Flags: W
LayerCount: 2
Fore
SplineSet
797 -170 m 0,0,1
 657 -170 657 -170 534 -117 c 128,-1,2
 411 -64 411 -64 315.5 30.5 c 128,-1,3
 220 125 220 125 167.5 249.5 c 128,-1,4
 115 374 115 374 115 512 c 0,5,6
 115 653 115 653 173 785 c 128,-1,7
 231 917 231 917 335.5 1014 c 128,-1,8
 440 1111 440 1111 575 1157 c 1,9,10
 459 1212 459 1212 358 1319 c 1,11,-1
 426 1339 l 1,12,13
 527 1224 527 1224 676 1184 c 1,14,15
 741 1194 741 1194 795 1194 c 0,16,17
 808 1194 808 1194 816.5 1186.5 c 128,-1,18
 825 1179 825 1179 825 1165 c 0,19,20
 825 1154 825 1154 817.5 1144.5 c 128,-1,21
 810 1135 810 1135 799 1135 c 0,22,23
 768 1135 768 1135 754 1133 c 1,24,25
 708 1096 708 1096 670.5 1045 c 128,-1,26
 633 994 633 994 609 936 c 128,-1,27
 585 878 585 878 575 819 c 1,28,-1
 506 801 l 1,29,30
 530 947 530 947 618 1071 c 1,31,-1
 608 1106 l 1,32,33
 482 1066 482 1066 383.5 977.5 c 128,-1,34
 285 889 285 889 229.5 766 c 128,-1,35
 174 643 174 643 174 512 c 0,36,37
 174 389 174 389 222.5 273.5 c 128,-1,38
 271 158 271 158 357.5 72 c 128,-1,39
 444 -14 444 -14 558.5 -62.5 c 128,-1,40
 673 -111 673 -111 797 -111 c 256,41,42
 921 -111 921 -111 1035 -62.5 c 128,-1,43
 1149 -14 1149 -14 1235 72 c 128,-1,44
 1321 158 1321 158 1369 271.5 c 128,-1,45
 1417 385 1417 385 1417 512 c 0,46,47
 1417 603 1417 603 1392 687 c 128,-1,48
 1367 771 1367 771 1321.5 844.5 c 128,-1,49
 1276 918 1276 918 1210.5 977.5 c 128,-1,50
 1145 1037 1145 1037 1067 1073 c 1,51,52
 1051 1079 1051 1079 1051 1100 c 0,53,54
 1051 1112 1051 1112 1059 1120 c 128,-1,55
 1067 1128 1067 1128 1079 1128 c 0,56,57
 1087 1128 1087 1128 1094 1126 c 1,58,59
 1210 1070 1210 1070 1296.5 975 c 128,-1,60
 1383 880 1383 880 1430 759 c 128,-1,61
 1477 638 1477 638 1477 512 c 0,62,63
 1477 375 1477 375 1424 249.5 c 128,-1,64
 1371 124 1371 124 1277.5 30.5 c 128,-1,65
 1184 -63 1184 -63 1060 -116.5 c 128,-1,66
 936 -170 936 -170 797 -170 c 0,0,1
EndSplineSet
EndChar

StartChar: ordfeminine
Encoding: 170 170 109
Width: 1591
GlyphClass: 2
Flags: W
LayerCount: 2
Fore
SplineSet
797 -170 m 0,0,1
 657 -170 657 -170 534 -117 c 128,-1,2
 411 -64 411 -64 315.5 30.5 c 128,-1,3
 220 125 220 125 167.5 249.5 c 128,-1,4
 115 374 115 374 115 512 c 0,5,6
 115 642 115 642 162.5 762 c 128,-1,7
 210 882 210 882 297 976.5 c 128,-1,8
 384 1071 384 1071 500 1126 c 0,9,10
 504 1128 504 1128 512 1128 c 0,11,12
 525 1128 525 1128 534 1120 c 128,-1,13
 543 1112 543 1112 543 1100 c 0,14,15
 543 1081 543 1081 526 1073 c 0,16,17
 419 1022 419 1022 339.5 935.5 c 128,-1,18
 260 849 260 849 217 738.5 c 128,-1,19
 174 628 174 628 174 512 c 0,20,21
 174 389 174 389 222.5 273.5 c 128,-1,22
 271 158 271 158 357.5 72 c 128,-1,23
 444 -14 444 -14 558.5 -62.5 c 128,-1,24
 673 -111 673 -111 797 -111 c 256,25,26
 921 -111 921 -111 1035 -62.5 c 128,-1,27
 1149 -14 1149 -14 1235 72 c 128,-1,28
 1321 158 1321 158 1369 271.5 c 128,-1,29
 1417 385 1417 385 1417 512 c 0,30,31
 1417 643 1417 643 1361.5 766 c 128,-1,32
 1306 889 1306 889 1207.5 977.5 c 128,-1,33
 1109 1066 1109 1066 983 1106 c 1,34,-1
 973 1071 l 1,35,36
 1061 947 1061 947 1085 801 c 1,37,-1
 1016 819 l 1,38,39
 1006 878 1006 878 982 936 c 128,-1,40
 958 994 958 994 921 1044.5 c 128,-1,41
 884 1095 884 1095 838 1133 c 1,42,43
 823 1135 823 1135 795 1135 c 0,44,45
 783 1135 783 1135 774.5 1144.5 c 128,-1,46
 766 1154 766 1154 766 1165 c 0,47,48
 766 1177 766 1177 775.5 1185.5 c 128,-1,49
 785 1194 785 1194 799 1194 c 0,50,51
 852 1194 852 1194 915 1184 c 1,52,53
 1066 1224 1066 1224 1165 1339 c 1,54,-1
 1233 1319 l 1,55,56
 1131 1210 1131 1210 1016 1157 c 1,57,58
 1117 1123 1117 1123 1202.5 1059 c 128,-1,59
 1288 995 1288 995 1349.5 909 c 128,-1,60
 1411 823 1411 823 1444 720.5 c 128,-1,61
 1477 618 1477 618 1477 512 c 0,62,63
 1477 375 1477 375 1424 249.5 c 128,-1,64
 1371 124 1371 124 1277.5 30.5 c 128,-1,65
 1184 -63 1184 -63 1060 -116.5 c 128,-1,66
 936 -170 936 -170 797 -170 c 0,0,1
EndSplineSet
EndChar

StartChar: logicalnot
Encoding: 172 172 110
Width: 2048
GlyphClass: 2
Flags: W
LayerCount: 2
Fore
SplineSet
420 -29 m 1,0,1
 381 81 381 81 300 172 c 128,-1,2
 219 263 219 263 115 313 c 1,3,-1
 115 354 l 1,4,-1
 1890 354 l 2,5,6
 1908 354 1908 354 1919.5 343 c 128,-1,7
 1931 332 1931 332 1931 313 c 0,8,9
 1931 296 1931 296 1919 284 c 128,-1,10
 1907 272 1907 272 1890 272 c 2,11,-1
 301 272 l 1,12,13
 344 234 344 234 382 185.5 c 128,-1,14
 420 137 420 137 448 81.5 c 128,-1,15
 476 26 476 26 492 -29 c 1,16,-1
 420 -29 l 1,0,1
115 711 m 0,17,18
 115 726 115 726 127 739 c 128,-1,19
 139 752 139 752 156 752 c 2,20,-1
 1745 752 l 1,21,22
 1702 790 1702 790 1664 838.5 c 128,-1,23
 1626 887 1626 887 1598 942.5 c 128,-1,24
 1570 998 1570 998 1554 1053 c 1,25,-1
 1626 1053 l 1,26,27
 1666 942 1666 942 1745.5 853 c 128,-1,28
 1825 764 1825 764 1931 711 c 1,29,-1
 1931 670 l 1,30,-1
 156 670 l 2,31,32
 139 670 139 670 127 682 c 128,-1,33
 115 694 115 694 115 711 c 0,17,18
EndSplineSet
EndChar

StartChar: uni00AD
Encoding: 173 173 111
Width: 2048
GlyphClass: 2
Flags: W
LayerCount: 2
Fore
SplineSet
420 -29 m 1,0,1
 381 81 381 81 300 172 c 128,-1,2
 219 263 219 263 115 313 c 1,3,-1
 115 354 l 1,4,-1
 1890 354 l 2,5,6
 1908 354 1908 354 1919.5 343 c 128,-1,7
 1931 332 1931 332 1931 313 c 0,8,9
 1931 296 1931 296 1919 284 c 128,-1,10
 1907 272 1907 272 1890 272 c 2,11,-1
 301 272 l 1,12,13
 344 234 344 234 382 185.5 c 128,-1,14
 420 137 420 137 448 81.5 c 128,-1,15
 476 26 476 26 492 -29 c 1,16,-1
 420 -29 l 1,0,1
115 711 m 0,17,18
 115 726 115 726 127 739 c 128,-1,19
 139 752 139 752 156 752 c 2,20,-1
 1745 752 l 1,21,22
 1702 790 1702 790 1664 838.5 c 128,-1,23
 1626 887 1626 887 1598 942.5 c 128,-1,24
 1570 998 1570 998 1554 1053 c 1,25,-1
 1626 1053 l 1,26,27
 1666 942 1666 942 1745.5 853 c 128,-1,28
 1825 764 1825 764 1931 711 c 1,29,-1
 1931 670 l 1,30,-1
 156 670 l 2,31,32
 139 670 139 670 127 682 c 128,-1,33
 115 694 115 694 115 711 c 0,17,18
EndSplineSet
EndChar

StartChar: registered
Encoding: 174 174 112
Width: 2048
GlyphClass: 2
Flags: W
LayerCount: 2
Fore
SplineSet
156 272 m 2,0,1
 139 272 139 272 127 285 c 128,-1,2
 115 298 115 298 115 313 c 0,3,4
 115 330 115 330 126 342 c 128,-1,5
 137 354 137 354 156 354 c 2,6,-1
 1931 354 l 1,7,-1
 1931 313 l 1,8,9
 1827 263 1827 263 1746.5 172.5 c 128,-1,10
 1666 82 1666 82 1626 -29 c 1,11,-1
 1554 -29 l 1,12,13
 1579 58 1579 58 1629 136.5 c 128,-1,14
 1679 215 1679 215 1745 272 c 1,15,-1
 156 272 l 2,0,1
115 670 m 1,16,-1
 115 711 l 1,17,18
 222 764 222 764 301.5 853.5 c 128,-1,19
 381 943 381 943 420 1053 c 1,20,-1
 492 1053 l 1,21,22
 469 969 469 969 419.5 891.5 c 128,-1,23
 370 814 370 814 301 752 c 1,24,-1
 1890 752 l 2,25,26
 1907 752 1907 752 1919 740 c 128,-1,27
 1931 728 1931 728 1931 711 c 0,28,29
 1931 693 1931 693 1919 681.5 c 128,-1,30
 1907 670 1907 670 1890 670 c 2,31,-1
 115 670 l 1,16,-1
EndSplineSet
EndChar

StartChar: macron
Encoding: 175 175 113
Width: 1591
GlyphClass: 2
Flags: W
LayerCount: 2
Fore
SplineSet
115 39 m 2,0,-1
 115 1370 l 2,1,2
 115 1384 115 1384 126.5 1395.5 c 128,-1,3
 138 1407 138 1407 154 1407 c 2,4,-1
 1440 1407 l 2,5,6
 1454 1407 1454 1407 1465.5 1395.5 c 128,-1,7
 1477 1384 1477 1384 1477 1370 c 2,8,-1
 1477 39 l 2,9,10
 1477 24 1477 24 1465 12 c 128,-1,11
 1453 0 1453 0 1440 0 c 2,12,-1
 154 0 l 2,13,14
 139 0 139 0 127 12 c 128,-1,15
 115 24 115 24 115 39 c 2,0,-1
197 82 m 1,16,-1
 1395 82 l 1,17,-1
 1395 664 l 1,18,-1
 197 664 l 1,19,-1
 197 82 l 1,16,-1
197 745 m 1,20,-1
 1395 745 l 1,21,-1
 1395 1325 l 1,22,-1
 197 1325 l 1,23,-1
 197 745 l 1,20,-1
EndSplineSet
EndChar

StartChar: degree
Encoding: 176 176 114
Width: 1479
GlyphClass: 2
Flags: W
LayerCount: 2
Fore
SplineSet
115 39 m 2,0,-1
 115 1384 l 2,1,2
 115 1400 115 1400 127 1410.5 c 128,-1,3
 139 1421 139 1421 156 1421 c 0,4,5
 171 1421 171 1421 184 1410.5 c 128,-1,6
 197 1400 197 1400 197 1384 c 2,7,-1
 197 39 l 2,8,9
 197 22 197 22 184 11 c 128,-1,10
 171 0 171 0 156 0 c 0,11,12
 139 0 139 0 127 11 c 128,-1,13
 115 22 115 22 115 39 c 2,0,-1
512 39 m 2,14,-1
 512 1384 l 2,15,16
 512 1400 512 1400 524 1410.5 c 128,-1,17
 536 1421 536 1421 553 1421 c 0,18,19
 568 1421 568 1421 581 1410.5 c 128,-1,20
 594 1400 594 1400 594 1384 c 2,21,-1
 594 752 l 1,22,-1
 1325 752 l 2,23,24
 1341 752 1341 752 1351.5 739 c 128,-1,25
 1362 726 1362 726 1362 711 c 0,26,27
 1362 694 1362 694 1351.5 682 c 128,-1,28
 1341 670 1341 670 1325 670 c 2,29,-1
 594 670 l 1,30,-1
 594 39 l 2,31,32
 594 22 594 22 581 11 c 128,-1,33
 568 0 568 0 553 0 c 0,34,35
 536 0 536 0 524 11 c 128,-1,36
 512 22 512 22 512 39 c 2,14,-1
EndSplineSet
EndChar

StartChar: plusminus
Encoding: 177 177 115
Width: 1819
GlyphClass: 2
Flags: W
LayerCount: 2
Fore
SplineSet
115 39 m 2,0,-1
 115 1384 l 2,1,2
 115 1400 115 1400 127 1410.5 c 128,-1,3
 139 1421 139 1421 156 1421 c 0,4,5
 171 1421 171 1421 184 1410.5 c 128,-1,6
 197 1400 197 1400 197 1384 c 2,7,-1
 197 39 l 2,8,9
 197 22 197 22 184 11 c 128,-1,10
 171 0 171 0 156 0 c 0,11,12
 139 0 139 0 127 11 c 128,-1,13
 115 22 115 22 115 39 c 2,0,-1
485 39 m 2,14,-1
 485 1384 l 2,15,16
 485 1400 485 1400 498 1410.5 c 128,-1,17
 511 1421 511 1421 526 1421 c 0,18,19
 543 1421 543 1421 555 1410.5 c 128,-1,20
 567 1400 567 1400 567 1384 c 2,21,-1
 567 39 l 2,22,23
 567 22 567 22 555 11 c 128,-1,24
 543 0 543 0 526 0 c 0,25,26
 511 0 511 0 498 11 c 128,-1,27
 485 22 485 22 485 39 c 2,14,-1
856 39 m 2,28,-1
 856 1384 l 2,29,30
 856 1400 856 1400 869 1410.5 c 128,-1,31
 882 1421 882 1421 897 1421 c 0,32,33
 914 1421 914 1421 926 1410.5 c 128,-1,34
 938 1400 938 1400 938 1384 c 2,35,-1
 938 752 l 1,36,-1
 1667 752 l 2,37,38
 1683 752 1683 752 1693.5 739 c 128,-1,39
 1704 726 1704 726 1704 711 c 0,40,41
 1704 694 1704 694 1693.5 682 c 128,-1,42
 1683 670 1683 670 1667 670 c 2,43,-1
 938 670 l 1,44,-1
 938 39 l 2,45,46
 938 22 938 22 926 11 c 128,-1,47
 914 0 914 0 897 0 c 0,48,49
 882 0 882 0 869 11 c 128,-1,50
 856 22 856 22 856 39 c 2,28,-1
EndSplineSet
EndChar

StartChar: uni00B2
Encoding: 178 178 116
Width: 1251
GlyphClass: 2
Flags: W
LayerCount: 2
Fore
SplineSet
115 39 m 2,0,-1
 115 1384 l 2,1,2
 115 1400 115 1400 127 1410.5 c 128,-1,3
 139 1421 139 1421 156 1421 c 0,4,5
 171 1421 171 1421 184 1410.5 c 128,-1,6
 197 1400 197 1400 197 1384 c 2,7,-1
 197 950 l 1,8,-1
 1098 950 l 2,9,10
 1113 950 1113 950 1124 938 c 128,-1,11
 1135 926 1135 926 1135 909 c 0,12,13
 1135 894 1135 894 1124 881 c 128,-1,14
 1113 868 1113 868 1098 868 c 2,15,-1
 197 868 l 1,16,-1
 197 553 l 1,17,-1
 1098 553 l 2,18,19
 1113 553 1113 553 1124 540 c 128,-1,20
 1135 527 1135 527 1135 512 c 256,21,22
 1135 497 1135 497 1124 484 c 128,-1,23
 1113 471 1113 471 1098 471 c 2,24,-1
 197 471 l 1,25,-1
 197 39 l 2,26,27
 197 22 197 22 184 11 c 128,-1,28
 171 0 171 0 156 0 c 0,29,30
 139 0 139 0 127 11 c 128,-1,31
 115 22 115 22 115 39 c 2,0,-1
EndSplineSet
EndChar

StartChar: uni00B3
Encoding: 179 179 117
Width: 2048
GlyphClass: 2
Flags: W
LayerCount: 2
Fore
SplineSet
156 471 m 2,0,1
 139 471 139 471 127 483 c 128,-1,2
 115 495 115 495 115 512 c 256,3,4
 115 529 115 529 126 541 c 128,-1,5
 137 553 137 553 156 553 c 2,6,-1
 1380 553 l 1,7,8
 1314 613 1314 613 1262.5 690.5 c 128,-1,9
 1211 768 1211 768 1178 854 c 1,10,-1
 1249 854 l 1,11,12
 1316 670 1316 670 1485 553 c 1,13,-1
 1759 553 l 1,14,15
 1714 594 1714 594 1675.5 641.5 c 128,-1,16
 1637 689 1637 689 1605 745.5 c 128,-1,17
 1573 802 1573 802 1554 854 c 1,18,-1
 1626 854 l 1,19,20
 1669 742 1669 742 1747.5 654.5 c 128,-1,21
 1826 567 1826 567 1931 512 c 1,22,23
 1826 457 1826 457 1747 369 c 128,-1,24
 1668 281 1668 281 1626 170 c 1,25,-1
 1554 170 l 1,26,27
 1587 258 1587 258 1639 333.5 c 128,-1,28
 1691 409 1691 409 1759 471 c 1,29,-1
 1485 471 l 1,30,31
 1316 354 1316 354 1249 170 c 1,32,-1
 1178 170 l 1,33,34
 1210 254 1210 254 1260.5 331 c 128,-1,35
 1311 408 1311 408 1380 471 c 1,36,-1
 156 471 l 2,0,1
EndSplineSet
EndChar

StartChar: acute
Encoding: 180 180 118
Width: 2048
GlyphClass: 2
Flags: W
LayerCount: 2
Fore
SplineSet
420 170 m 1,0,1
 381 278 381 278 300 368.5 c 128,-1,2
 219 459 219 459 115 512 c 1,3,4
 219 565 219 565 299.5 655 c 128,-1,5
 380 745 380 745 420 854 c 1,6,-1
 492 854 l 1,7,8
 473 802 473 802 441 745.5 c 128,-1,9
 409 689 409 689 370.5 641.5 c 128,-1,10
 332 594 332 594 287 553 c 1,11,-1
 561 553 l 1,12,13
 639 607 639 607 702 686 c 128,-1,14
 765 765 765 765 797 854 c 1,15,-1
 868 854 l 1,16,17
 802 677 802 677 666 553 c 1,18,-1
 1890 553 l 2,19,20
 1908 553 1908 553 1919.5 542 c 128,-1,21
 1931 531 1931 531 1931 512 c 0,22,23
 1931 494 1931 494 1919 482.5 c 128,-1,24
 1907 471 1907 471 1890 471 c 2,25,-1
 666 471 l 1,26,27
 802 347 802 347 868 170 c 1,28,-1
 797 170 l 1,29,30
 766 257 766 257 704 336 c 128,-1,31
 642 415 642 415 561 471 c 1,32,-1
 287 471 l 1,33,34
 358 406 358 406 410 329.5 c 128,-1,35
 462 253 462 253 492 170 c 1,36,-1
 420 170 l 1,0,1
EndSplineSet
EndChar

StartChar: uni00B5
Encoding: 181 181 119
Width: 2048
GlyphClass: 2
Flags: W
LayerCount: 2
Fore
SplineSet
420 -170 m 1,0,1
 380 -62 380 -62 299.5 27.5 c 128,-1,2
 219 117 219 117 115 170 c 1,3,4
 219 223 219 223 299.5 313 c 128,-1,5
 380 403 380 403 420 512 c 1,6,7
 381 620 381 620 300 710.5 c 128,-1,8
 219 801 219 801 115 854 c 1,9,10
 187 891 187 891 244.5 942 c 128,-1,11
 302 993 302 993 348 1059 c 128,-1,12
 394 1125 394 1125 420 1194 c 1,13,-1
 492 1194 l 1,14,15
 428 1024 428 1024 287 895 c 1,16,-1
 1890 895 l 2,17,18
 1908 895 1908 895 1919.5 884 c 128,-1,19
 1931 873 1931 873 1931 854 c 256,20,21
 1931 835 1931 835 1919.5 824 c 128,-1,22
 1908 813 1908 813 1890 813 c 2,23,-1
 287 813 l 1,24,25
 429 680 429 680 492 512 c 1,26,27
 429 344 429 344 287 211 c 1,28,-1
 1890 211 l 2,29,30
 1908 211 1908 211 1919.5 200.5 c 128,-1,31
 1931 190 1931 190 1931 170 c 0,32,33
 1931 152 1931 152 1919 140.5 c 128,-1,34
 1907 129 1907 129 1890 129 c 2,35,-1
 287 129 l 1,36,37
 428 0 428 0 492 -170 c 1,38,-1
 420 -170 l 1,0,1
EndSplineSet
EndChar

StartChar: paragraph
Encoding: 182 182 120
Width: 2048
GlyphClass: 2
Flags: W
LayerCount: 2
Fore
SplineSet
156 129 m 2,0,1
 139 129 139 129 127 141 c 128,-1,2
 115 153 115 153 115 170 c 0,3,4
 115 188 115 188 126.5 199.5 c 128,-1,5
 138 211 138 211 156 211 c 2,6,-1
 1759 211 l 1,7,8
 1617 344 1617 344 1554 512 c 1,9,10
 1617 680 1617 680 1759 813 c 1,11,-1
 156 813 l 2,12,13
 138 813 138 813 126.5 824.5 c 128,-1,14
 115 836 115 836 115 854 c 0,15,16
 115 871 115 871 126 883 c 128,-1,17
 137 895 137 895 156 895 c 2,18,-1
 1759 895 l 1,19,20
 1618 1024 1618 1024 1554 1194 c 1,21,-1
 1626 1194 l 1,22,23
 1669 1084 1669 1084 1747.5 996.5 c 128,-1,24
 1826 909 1826 909 1931 854 c 1,25,26
 1826 799 1826 799 1747 711 c 128,-1,27
 1668 623 1668 623 1626 512 c 1,28,29
 1669 400 1669 400 1747.5 312.5 c 128,-1,30
 1826 225 1826 225 1931 170 c 1,31,32
 1826 115 1826 115 1747.5 28 c 128,-1,33
 1669 -59 1669 -59 1626 -170 c 1,34,-1
 1554 -170 l 1,35,36
 1618 0 1618 0 1759 129 c 1,37,-1
 156 129 l 2,0,1
EndSplineSet
EndChar

StartChar: periodcentered
Encoding: 183 183 121
AltUni2: 002219.ffffffff.0
Width: 1706
GlyphClass: 2
Flags: W
LayerCount: 2
Fore
SplineSet
469 -356 m 2,0,-1
 469 1249 l 1,1,2
 342 1109 342 1109 170 1044 c 1,3,-1
 170 1116 l 1,4,5
 281 1159 281 1159 368 1237.5 c 128,-1,6
 455 1316 455 1316 510 1421 c 1,7,8
 565 1316 565 1316 652.5 1237.5 c 128,-1,9
 740 1159 740 1159 852 1116 c 1,10,11
 963 1158 963 1158 1051 1237 c 128,-1,12
 1139 1316 1139 1316 1194 1421 c 1,13,14
 1249 1316 1249 1316 1336.5 1237.5 c 128,-1,15
 1424 1159 1424 1159 1534 1116 c 1,16,-1
 1534 1044 l 1,17,18
 1362 1109 1362 1109 1235 1249 c 1,19,-1
 1235 -356 l 2,20,21
 1235 -374 1235 -374 1223 -385.5 c 128,-1,22
 1211 -397 1211 -397 1194 -397 c 0,23,24
 1176 -397 1176 -397 1164.5 -385.5 c 128,-1,25
 1153 -374 1153 -374 1153 -356 c 2,26,-1
 1153 1249 l 1,27,28
 1020 1107 1020 1107 852 1044 c 1,29,30
 684 1107 684 1107 551 1249 c 1,31,-1
 551 -356 l 2,32,33
 551 -374 551 -374 539.5 -385.5 c 128,-1,34
 528 -397 528 -397 510 -397 c 0,35,36
 493 -397 493 -397 481 -385 c 128,-1,37
 469 -373 469 -373 469 -356 c 2,0,-1
EndSplineSet
EndChar

StartChar: cedilla
Encoding: 184 184 122
Width: 1706
GlyphClass: 2
Flags: W
LayerCount: 2
Fore
SplineSet
170 -92 m 1,0,-1
 170 -20 l 1,1,2
 342 -85 342 -85 469 -225 c 1,3,-1
 469 1380 l 2,4,5
 469 1397 469 1397 480 1409 c 128,-1,6
 491 1421 491 1421 510 1421 c 256,7,8
 529 1421 529 1421 540 1409.5 c 128,-1,9
 551 1398 551 1398 551 1380 c 2,10,-1
 551 -225 l 1,11,12
 684 -83 684 -83 852 -20 c 1,13,14
 1020 -83 1020 -83 1153 -225 c 1,15,-1
 1153 1380 l 2,16,17
 1153 1398 1153 1398 1163.5 1409.5 c 128,-1,18
 1174 1421 1174 1421 1194 1421 c 0,19,20
 1212 1421 1212 1421 1223.5 1410 c 128,-1,21
 1235 1399 1235 1399 1235 1380 c 2,22,-1
 1235 -225 l 1,23,24
 1362 -85 1362 -85 1534 -20 c 1,25,-1
 1534 -92 l 1,26,27
 1465 -118 1465 -118 1399 -164 c 128,-1,28
 1333 -210 1333 -210 1282 -267.5 c 128,-1,29
 1231 -325 1231 -325 1194 -397 c 1,30,31
 1141 -293 1141 -293 1050.5 -212 c 128,-1,32
 960 -131 960 -131 852 -92 c 1,33,34
 743 -132 743 -132 653 -212.5 c 128,-1,35
 563 -293 563 -293 510 -397 c 1,36,37
 457 -293 457 -293 367.5 -212.5 c 128,-1,38
 278 -132 278 -132 170 -92 c 1,0,-1
EndSplineSet
EndChar

StartChar: uni00B9
Encoding: 185 185 123
Width: 852
GlyphClass: 2
Flags: W
LayerCount: 2
Fore
SplineSet
385 -356 m 2,0,-1
 385 1421 l 1,1,-1
 426 1421 l 1,2,3
 478 1316 478 1316 568 1236.5 c 128,-1,4
 658 1157 658 1157 768 1116 c 1,5,-1
 768 1044 l 1,6,7
 679 1070 679 1070 602.5 1119 c 128,-1,8
 526 1168 526 1168 467 1235 c 1,9,-1
 467 -356 l 2,10,11
 467 -374 467 -374 455 -385.5 c 128,-1,12
 443 -397 443 -397 426 -397 c 256,13,14
 409 -397 409 -397 397 -385 c 128,-1,15
 385 -373 385 -373 385 -356 c 2,0,-1
EndSplineSet
EndChar

StartChar: ordmasculine
Encoding: 186 186 124
Width: 852
GlyphClass: 2
Flags: W
LayerCount: 2
Fore
SplineSet
385 -397 m 1,0,-1
 385 1380 l 2,1,2
 385 1397 385 1397 396 1409 c 128,-1,3
 407 1421 407 1421 426 1421 c 0,4,5
 444 1421 444 1421 455.5 1410 c 128,-1,6
 467 1399 467 1399 467 1380 c 2,7,-1
 467 -211 l 1,8,9
 529 -141 529 -141 606 -92 c 128,-1,10
 683 -43 683 -43 768 -20 c 1,11,-1
 768 -92 l 1,12,13
 659 -131 659 -131 568.5 -211.5 c 128,-1,14
 478 -292 478 -292 426 -397 c 1,15,-1
 385 -397 l 1,0,-1
EndSplineSet
EndChar

StartChar: guillemotright
Encoding: 187 187 125
Width: 852
GlyphClass: 2
Flags: W
LayerCount: 2
Fore
SplineSet
387 -356 m 2,0,-1
 387 1235 l 1,1,2
 328 1168 328 1168 251 1118.5 c 128,-1,3
 174 1069 174 1069 86 1044 c 1,4,-1
 86 1116 l 1,5,6
 198 1157 198 1157 287 1236.5 c 128,-1,7
 376 1316 376 1316 428 1421 c 1,8,-1
 469 1421 l 1,9,-1
 469 -356 l 2,10,11
 469 -374 469 -374 457 -385.5 c 128,-1,12
 445 -397 445 -397 428 -397 c 0,13,14
 413 -397 413 -397 400 -385 c 128,-1,15
 387 -373 387 -373 387 -356 c 2,0,-1
EndSplineSet
EndChar

StartChar: onequarter
Encoding: 188 188 126
Width: 852
GlyphClass: 2
Flags: W
LayerCount: 2
Fore
SplineSet
86 -92 m 1,0,-1
 86 -20 l 1,1,2
 170 -43 170 -43 247.5 -92 c 128,-1,3
 325 -141 325 -141 387 -211 c 1,4,-1
 387 1380 l 2,5,6
 387 1397 387 1397 399 1409 c 128,-1,7
 411 1421 411 1421 428 1421 c 0,8,9
 446 1421 446 1421 457.5 1410 c 128,-1,10
 469 1399 469 1399 469 1380 c 2,11,-1
 469 -397 l 1,12,-1
 428 -397 l 1,13,14
 376 -292 376 -292 286.5 -211.5 c 128,-1,15
 197 -131 197 -131 86 -92 c 1,0,-1
EndSplineSet
EndChar

StartChar: onehalf
Encoding: 189 189 127
Width: 2275
GlyphClass: 2
Flags: W
LayerCount: 2
Fore
SplineSet
147 170 m 1,0,1
 213 346 213 346 350 471 c 1,2,-1
 350 553 l 1,3,4
 213 678 213 678 147 854 c 1,5,-1
 219 854 l 1,6,7
 286 670 286 670 455 553 c 1,8,-1
 1987 553 l 1,9,10
 1848 679 1848 679 1782 854 c 1,11,-1
 1853 854 l 1,12,13
 1895 744 1895 744 1975 654.5 c 128,-1,14
 2055 565 2055 565 2159 512 c 1,15,16
 2055 459 2055 459 1974.5 369 c 128,-1,17
 1894 279 1894 279 1853 170 c 1,18,-1
 1782 170 l 1,19,20
 1848 345 1848 345 1987 471 c 1,21,-1
 455 471 l 1,22,23
 286 354 286 354 219 170 c 1,24,-1
 147 170 l 1,0,1
EndSplineSet
EndChar

StartChar: threequarters
Encoding: 190 190 128
Width: 2275
GlyphClass: 2
Flags: W
LayerCount: 2
Fore
SplineSet
420 170 m 1,0,1
 381 278 381 278 300 368.5 c 128,-1,2
 219 459 219 459 115 512 c 1,3,4
 219 565 219 565 299.5 655 c 128,-1,5
 380 745 380 745 420 854 c 1,6,-1
 492 854 l 1,7,8
 473 802 473 802 441 745.5 c 128,-1,9
 409 689 409 689 370.5 641.5 c 128,-1,10
 332 594 332 594 287 553 c 1,11,-1
 1819 553 l 1,12,13
 1900 610 1900 610 1961 687.5 c 128,-1,14
 2022 765 2022 765 2054 854 c 1,15,-1
 2126 854 l 1,16,17
 2060 678 2060 678 1923 553 c 1,18,-1
 1923 471 l 1,19,20
 2060 346 2060 346 2126 170 c 1,21,-1
 2054 170 l 1,22,23
 2023 257 2023 257 1963 335 c 128,-1,24
 1903 413 1903 413 1819 471 c 1,25,-1
 287 471 l 1,26,27
 358 406 358 406 410 329.5 c 128,-1,28
 462 253 462 253 492 170 c 1,29,-1
 420 170 l 1,0,1
EndSplineSet
EndChar

StartChar: questiondown
Encoding: 191 191 129
Width: 2048
GlyphClass: 2
Flags: W
LayerCount: 2
Fore
SplineSet
156 301 m 2,0,1
 138 301 138 301 126.5 312.5 c 128,-1,2
 115 324 115 324 115 342 c 0,3,4
 115 359 115 359 126 371 c 128,-1,5
 137 383 137 383 156 383 c 2,6,-1
 1759 383 l 1,7,8
 1619 510 1619 510 1554 682 c 1,9,-1
 1626 682 l 1,10,11
 1669 572 1669 572 1747.5 484.5 c 128,-1,12
 1826 397 1826 397 1931 342 c 1,13,14
 1826 287 1826 287 1747 199 c 128,-1,15
 1668 111 1668 111 1626 0 c 1,16,-1
 1554 0 l 1,17,18
 1587 88 1587 88 1639 163.5 c 128,-1,19
 1691 239 1691 239 1759 301 c 1,20,-1
 156 301 l 2,0,1
420 682 m 1,21,22
 381 790 381 790 300 880.5 c 128,-1,23
 219 971 219 971 115 1024 c 1,24,25
 219 1077 219 1077 299.5 1167 c 128,-1,26
 380 1257 380 1257 420 1366 c 1,27,-1
 492 1366 l 1,28,29
 473 1314 473 1314 441 1257.5 c 128,-1,30
 409 1201 409 1201 370.5 1153.5 c 128,-1,31
 332 1106 332 1106 287 1065 c 1,32,-1
 1890 1065 l 2,33,34
 1908 1065 1908 1065 1919.5 1054 c 128,-1,35
 1931 1043 1931 1043 1931 1024 c 0,36,37
 1931 1006 1931 1006 1919 994.5 c 128,-1,38
 1907 983 1907 983 1890 983 c 2,39,-1
 287 983 l 1,40,41
 358 918 358 918 410 841.5 c 128,-1,42
 462 765 462 765 492 682 c 1,43,-1
 420 682 l 1,21,22
EndSplineSet
EndChar

StartChar: Agrave
Encoding: 192 192 130
Width: 2048
GlyphClass: 2
Flags: W
LayerCount: 2
Fore
SplineSet
420 0 m 1,0,1
 381 108 381 108 300 198.5 c 128,-1,2
 219 289 219 289 115 342 c 1,3,4
 187 379 187 379 244.5 430 c 128,-1,5
 302 481 302 481 348 547 c 128,-1,6
 394 613 394 613 420 682 c 1,7,-1
 492 682 l 1,8,9
 427 510 427 510 287 383 c 1,10,-1
 1890 383 l 2,11,12
 1908 383 1908 383 1919.5 372 c 128,-1,13
 1931 361 1931 361 1931 342 c 256,14,15
 1931 323 1931 323 1919.5 312 c 128,-1,16
 1908 301 1908 301 1890 301 c 2,17,-1
 287 301 l 1,18,19
 358 236 358 236 410 159.5 c 128,-1,20
 462 83 462 83 492 0 c 1,21,-1
 420 0 l 1,0,1
156 983 m 2,22,23
 138 983 138 983 126.5 994.5 c 128,-1,24
 115 1006 115 1006 115 1024 c 0,25,26
 115 1041 115 1041 126 1053 c 128,-1,27
 137 1065 137 1065 156 1065 c 2,28,-1
 1759 1065 l 1,29,30
 1619 1192 1619 1192 1554 1364 c 1,31,-1
 1626 1364 l 1,32,33
 1669 1254 1669 1254 1747.5 1166.5 c 128,-1,34
 1826 1079 1826 1079 1931 1024 c 1,35,36
 1826 969 1826 969 1747 881 c 128,-1,37
 1668 793 1668 793 1626 682 c 1,38,-1
 1554 682 l 1,39,40
 1587 770 1587 770 1639 845.5 c 128,-1,41
 1691 921 1691 921 1759 983 c 1,42,-1
 156 983 l 2,22,23
EndSplineSet
EndChar

StartChar: Aacute
Encoding: 193 193 131
Width: 1024
GlyphClass: 2
Flags: W
LayerCount: 2
Fore
SplineSet
825 41 m 2,0,-1
 825 1096 l 1,1,-1
 287 1096 l 1,2,3
 426 970 426 970 492 797 c 1,4,-1
 420 797 l 1,5,6
 380 905 380 905 299.5 994.5 c 128,-1,7
 219 1084 219 1084 115 1137 c 1,8,9
 220 1191 220 1191 300 1280 c 128,-1,10
 380 1369 380 1369 420 1479 c 1,11,-1
 492 1479 l 1,12,13
 429 1311 429 1311 287 1178 c 1,14,-1
 866 1178 l 2,15,16
 883 1178 883 1178 895 1166 c 128,-1,17
 907 1154 907 1154 907 1137 c 2,18,-1
 907 41 l 2,19,20
 907 23 907 23 895 11.5 c 128,-1,21
 883 0 883 0 866 0 c 0,22,23
 851 0 851 0 838 12 c 128,-1,24
 825 24 825 24 825 41 c 2,0,-1
EndSplineSet
EndChar

StartChar: Acircumflex
Encoding: 194 194 132
Width: 1024
GlyphClass: 2
Flags: W
LayerCount: 2
Fore
SplineSet
115 41 m 2,0,-1
 115 1137 l 2,1,2
 115 1152 115 1152 127 1165 c 128,-1,3
 139 1178 139 1178 156 1178 c 2,4,-1
 735 1178 l 1,5,6
 593 1311 593 1311 530 1479 c 1,7,-1
 602 1479 l 1,8,9
 645 1366 645 1366 722.5 1279.5 c 128,-1,10
 800 1193 800 1193 907 1137 c 1,11,12
 802 1082 802 1082 723.5 995 c 128,-1,13
 645 908 645 908 602 797 c 1,14,-1
 530 797 l 1,15,16
 596 970 596 970 735 1096 c 1,17,-1
 197 1096 l 1,18,-1
 197 41 l 2,19,20
 197 24 197 24 184 12 c 128,-1,21
 171 0 171 0 156 0 c 0,22,23
 139 0 139 0 127 12 c 128,-1,24
 115 24 115 24 115 41 c 2,0,-1
EndSplineSet
EndChar

StartChar: Atilde
Encoding: 195 195 133
Width: 2048
GlyphClass: 2
Flags: W
LayerCount: 2
Fore
SplineSet
154 471 m 0,0,1
 137 471 137 471 125 483 c 128,-1,2
 113 495 113 495 113 512 c 0,3,4
 113 526 113 526 123 541 c 1,5,-1
 313 711 l 2,6,7
 326 723 326 723 344 723 c 0,8,9
 360 723 360 723 375 711 c 1,10,-1
 723 397 l 1,11,-1
 1071 711 l 1,12,13
 1086 723 1086 723 1102 723 c 0,14,15
 1119 723 1119 723 1133 711 c 2,16,-1
 1309 553 l 1,17,-1
 1759 553 l 1,18,19
 1714 594 1714 594 1675.5 641.5 c 128,-1,20
 1637 689 1637 689 1605 745.5 c 128,-1,21
 1573 802 1573 802 1554 854 c 1,22,-1
 1626 854 l 1,23,24
 1669 742 1669 742 1747.5 654.5 c 128,-1,25
 1826 567 1826 567 1931 512 c 1,26,27
 1826 457 1826 457 1747 369 c 128,-1,28
 1668 281 1668 281 1626 170 c 1,29,-1
 1554 170 l 1,30,31
 1587 258 1587 258 1639 333.5 c 128,-1,32
 1691 409 1691 409 1759 471 c 1,33,-1
 1292 471 l 2,34,35
 1278 471 1278 471 1260 485 c 1,36,-1
 1102 627 l 1,37,-1
 754 313 l 2,38,39
 741 301 741 301 723 301 c 0,40,41
 704 301 704 301 692 313 c 2,42,-1
 344 627 l 1,43,-1
 184 485 l 1,44,45
 170 471 170 471 154 471 c 0,0,1
EndSplineSet
EndChar
